<?xml version="1.0" encoding="UTF-8" standalone="no"?>
<svg
   xmlns:dc="http://purl.org/dc/elements/1.1/"
   xmlns:cc="http://creativecommons.org/ns#"
   xmlns:rdf="http://www.w3.org/1999/02/22-rdf-syntax-ns#"
   xmlns:svg="http://www.w3.org/2000/svg"
   xmlns="http://www.w3.org/2000/svg"
   xmlns:sodipodi="http://sodipodi.sourceforge.net/DTD/sodipodi-0.dtd"
   xmlns:inkscape="http://www.inkscape.org/namespaces/inkscape"
   width="92.763123mm"
   height="92.763123mm"
   viewBox="0 0 92.763123 92.763123"
   version="1.1"
   id="svg8"
   inkscape:export-filename="/Users/jlim/Downloads/jenkins.png"
   inkscape:export-xdpi="96"
   inkscape:export-ydpi="96"
   inkscape:version="1.0beta1 (32d4812, 2019-09-19)"
   sodipodi:docname="aws18_airflow.svg">
  <defs
     id="defs2">
    <path
       id="path0_fill"
       d="M 1.74498 5.47533C 1.74498 7.03335 1.62034 7.54082 1.29983 7.91474C 0.943119 8.23595 0.480024 8.41358 0 8.41331L 0.124642 9.3036C 0.86884 9.31366 1.59095 9.05078 2.15452 8.56466C 2.45775 8.19487 2.6834 7.76781 2.818 7.30893C 2.95261 6.85005 2.99341 6.36876 2.93798 5.89377L 2.93798 0L 1.74498 0L 1.74498 5.43972L 1.74498 5.47533Z" />
    <path
       id="path1_fill"
       d="M 5.50204 4.76309C 5.50204 5.43081 5.50204 6.02731 5.55545 6.54368L 4.496 6.54368L 4.42478 5.48423C 4.20318 5.85909 3.88627 6.16858 3.50628 6.38125C 3.12628 6.59392 2.69675 6.70219 2.26135 6.69503C 1.22861 6.69503 0 6.13415 0 3.84608L 0 0.0445149L 1.193 0.0445149L 1.193 3.6057C 1.193 4.84322 1.57583 5.67119 2.65309 5.67119C 2.87472 5.67358 3.09459 5.63168 3.29982 5.54796C 3.50505 5.46424 3.69149 5.34039 3.84822 5.18366C 4.00494 5.02694 4.1288 4.84049 4.21252 4.63527C 4.29623 4.43004 4.33813 4.21016 4.33575 3.98853L 4.33575 0L 5.52874 0L 5.52874 4.72748L 5.50204 4.76309Z" />
    <path
       id="path2_fill"
       d="M 0.0534178 2.27264C 0.0534178 1.44466 0.0534178 0.768036 0 0.153731L 1.06836 0.153731L 1.12177 1.2666C 1.3598 0.864535 1.70247 0.534594 2.11325 0.311954C 2.52404 0.0893145 2.98754 -0.0176786 3.45435 0.00238095C 5.03908 0.00238095 6.23208 1.32892 6.23208 3.30538C 6.23208 5.63796 4.7987 6.79535 3.24958 6.79535C 2.85309 6.81304 2.45874 6.7281 2.10469 6.54874C 1.75064 6.36937 1.44888 6.10166 1.22861 5.77151L 1.22861 5.77151L 1.22861 9.33269L 0.0534178 9.33269L 0.0534178 2.29935L 0.0534178 2.27264ZM 1.22861 4.00872C 1.23184 4.17026 1.24972 4.33117 1.28203 4.48948C 1.38304 4.88479 1.61299 5.23513 1.93548 5.48506C 2.25798 5.735 2.65461 5.87026 3.06262 5.86944C 4.31794 5.86944 5.05689 4.8456 5.05689 3.3588C 5.05689 2.05897 4.36246 0.946096 3.10714 0.946096C 2.61036 0.986777 2.14548 1.20726 1.79965 1.5662C 1.45382 1.92514 1.25079 2.3979 1.22861 2.89585L 1.22861 4.00872Z" />
    <path
       id="path3_fill"
       d="M 1.31764 0.0178059L 2.75102 3.85499C 2.90237 4.28233 3.06262 4.7987 3.16946 5.18153C 3.2941 4.7898 3.42764 4.29123 3.5879 3.82828L 4.88773 0.0178059L 6.14305 0.0178059L 4.36246 4.64735C 3.47216 6.87309 2.92908 8.02158 2.11 8.71601C 1.69745 9.09283 1.19448 9.35658 0.649917 9.48166L 0.356119 8.48453C 0.736886 8.35942 1.09038 8.16304 1.39777 7.90584C 1.8321 7.55188 2.17678 7.10044 2.4038 6.5882C 2.45239 6.49949 2.48551 6.40314 2.50173 6.3033C 2.49161 6.19586 2.46457 6.0907 2.42161 5.9917L 0 0L 1.29983 0L 1.31764 0.0178059Z" />
    <path
       id="path4_fill"
       d="M 2.19013 0L 2.19013 1.86962L 3.8995 1.86962L 3.8995 2.75992L 2.19013 2.75992L 2.19013 6.26769C 2.19013 7.06896 2.42161 7.53191 3.08043 7.53191C 3.31442 7.53574 3.54789 7.5088 3.77486 7.45179L 3.82828 8.34208C 3.48794 8.45999 3.12881 8.51431 2.76882 8.50234C 2.53042 8.51726 2.29161 8.48043 2.06878 8.39437C 1.84595 8.30831 1.64438 8.17506 1.47789 8.00377C 1.11525 7.51873 0.949826 6.91431 1.01494 6.31221L 1.01494 2.75102L 0 2.75102L 0 1.86072L 1.03274 1.86072L 1.03274 0.275992L 2.19013 0Z" />
    <path
       id="path5_fill"
       d="M 1.17716 3.57899C 1.153 3.88093 1.19468 4.18451 1.29933 4.46876C 1.40398 4.75301 1.5691 5.01114 1.78329 5.22532C 1.99747 5.43951 2.2556 5.60463 2.53985 5.70928C 2.8241 5.81393 3.12768 5.85561 3.42962 5.83145C 4.04033 5.84511 4.64706 5.72983 5.21021 5.49313L 5.41498 6.38343C 4.72393 6.66809 3.98085 6.80458 3.23375 6.78406C 2.79821 6.81388 2.36138 6.74914 1.95322 6.59427C 1.54505 6.43941 1.17522 6.19809 0.869071 5.88688C 0.562928 5.57566 0.327723 5.2019 0.179591 4.79125C 0.0314584 4.38059 -0.0260962 3.94276 0.0108748 3.50777C 0.0108748 1.54912 1.17716 0 3.0824 0C 5.21911 0 5.75329 1.86962 5.75329 3.06262C 5.76471 3.24644 5.76471 3.43079 5.75329 3.61461L 1.15046 3.61461L 1.17716 3.57899ZM 4.66713 2.6887C 4.70149 2.45067 4.68443 2.20805 4.61709 1.97718C 4.54976 1.74631 4.43372 1.53255 4.2768 1.35031C 4.11987 1.16808 3.92571 1.0216 3.70739 0.920744C 3.48907 0.81989 3.25166 0.767006 3.01118 0.765656C 2.52201 0.801064 2.06371 1.01788 1.72609 1.37362C 1.38847 1.72935 1.19588 2.19835 1.18607 2.6887L 4.66713 2.6887Z" />
    <path
       id="path6_fill"
       d="M 0.0534178 2.19228C 0.0534178 1.42663 0.0534178 0.767806 0 0.162404L 1.06836 0.162404L 1.06836 1.43553L 1.12177 1.43553C 1.23391 1.04259 1.4656 0.694314 1.78468 0.439049C 2.10376 0.183783 2.4944 0.034196 2.90237 0.0110538C 3.01466 -0.00368459 3.12839 -0.00368459 3.24068 0.0110538L 3.24068 1.12393C 3.10462 1.10817 2.9672 1.10817 2.83114 1.12393C 2.427 1.13958 2.04237 1.30182 1.7491 1.58035C 1.45583 1.85887 1.27398 2.23462 1.23751 2.63743C 1.20422 2.8196 1.18635 3.00425 1.1841 3.18941L 1.1841 6.65267L 0.00890297 6.65267L 0.00890297 2.20118L 0.0534178 2.19228Z" />
    <path
       id="path7_fill"
       d="M 6.03059 2.83565C 6.06715 3.43376 5.92485 4.02921 5.6218 4.54615C 5.31875 5.0631 4.86869 5.47813 4.32893 5.73839C 3.78917 5.99864 3.18416 6.09233 2.59097 6.00753C 1.99778 5.92272 1.44326 5.66326 0.998048 5.26219C 0.552837 4.86113 0.23709 4.33661 0.0910307 3.75546C -0.0550287 3.17431 -0.0247891 2.56283 0.177897 1.99893C 0.380583 1.43503 0.746541 0.944221 1.22915 0.589037C 1.71176 0.233853 2.28918 0.0303686 2.88784 0.00450543C 3.28035 -0.0170932 3.67326 0.0391144 4.04396 0.169896C 4.41467 0.300677 4.75587 0.503453 5.04794 0.766561C 5.34 1.02967 5.57718 1.34792 5.74582 1.70301C 5.91446 2.0581 6.01124 2.44303 6.03059 2.83565L 6.03059 2.83565Z" />
    <path
       id="path8_fill"
       d="M 18.6962 7.12238C 10.6836 7.12238 3.64131 4.24672 0 0C 1.41284 3.82041 3.96215 7.1163 7.30479 9.44404C 10.6474 11.7718 14.623 13.0196 18.6962 13.0196C 22.7695 13.0196 26.745 11.7718 30.0877 9.44404C 33.4303 7.1163 35.9796 3.82041 37.3925 4.0486e-13C 33.7601 4.24672 26.7445 7.12238 18.6962 7.12238Z" />
    <path
       id="path9_fill"
       d="M 18.6962 5.89725C 26.7089 5.89725 33.7512 8.77291 37.3925 13.0196C 35.9796 9.19922 33.4303 5.90333 30.0877 3.57559C 26.745 1.24785 22.7695 4.0486e-13 18.6962 0C 14.623 4.0486e-13 10.6474 1.24785 7.30479 3.57559C 3.96215 5.90333 1.41284 9.19922 0 13.0196C 3.64131 8.76401 10.648 5.89725 18.6962 5.89725Z" />
    <path
       id="path10_fill"
       d="M 7.59576 3.56656C 7.64276 4.31992 7.46442 5.07022 7.08347 5.72186C 6.70251 6.3735 6.13619 6.89698 5.45666 7.22561C 4.77713 7.55424 4.01515 7.67314 3.26781 7.56716C 2.52046 7.46117 1.82158 7.13511 1.26021 6.63051C 0.698839 6.12591 0.300394 5.46561 0.115637 4.73375C -0.0691191 4.00188 -0.0318219 3.23159 0.222777 2.52099C 0.477376 1.8104 0.93775 1.19169 1.54524 0.743685C 2.15274 0.295678 2.87985 0.0386595 3.63394 0.00537589C 4.12793 -0.0210471 4.62229 0.0501173 5.08878 0.214803C 5.55526 0.37949 5.98473 0.63447 6.35264 0.965179C 6.72055 1.29589 7.01971 1.69584 7.233 2.1422C 7.4463 2.58855 7.56957 3.07256 7.59576 3.56656L 7.59576 3.56656Z" />
    <path
       id="path11_fill"
       d="M 2.25061 4.37943C 1.81886 4.39135 1.39322 4.27535 1.02722 4.04602C 0.661224 3.81668 0.371206 3.48424 0.193641 3.09052C 0.0160762 2.69679 -0.0411078 2.25935 0.0292804 1.83321C 0.0996686 1.40707 0.294486 1.01125 0.589233 0.695542C 0.883981 0.37983 1.2655 0.158316 1.68581 0.0588577C 2.10611 -0.0406005 2.54644 -0.0135622 2.95143 0.136572C 3.35641 0.286707 3.70796 0.553234 3.96186 0.902636C 4.21577 1.25204 4.3607 1.66872 4.37842 2.10027C 4.39529 2.6838 4.18131 3.25044 3.78293 3.67715C 3.38455 4.10387 2.83392 4.35623 2.25061 4.37943Z" />
    <path
       d="M20.797 18.285h.896l-.212-1.347zm1.037.877h-1.49l-.474.928h-1.056l2.33-4.362h1.018l.794 4.352h-.98l-.14-.928"
       id="C" />
  </defs>
  <sodipodi:namedview
     id="base"
     pagecolor="#ffffff"
     bordercolor="#666666"
     borderopacity="1.0"
     inkscape:pageopacity="0.0"
     inkscape:pageshadow="2"
     inkscape:zoom="0.35"
     inkscape:cx="400"
     inkscape:cy="560"
     inkscape:document-units="mm"
     inkscape:current-layer="layer1"
     inkscape:document-rotation="0"
     showgrid="false"
     inkscape:window-width="1920"
     inkscape:window-height="1155"
     inkscape:window-x="1920"
     inkscape:window-y="23"
     inkscape:window-maximized="1"
     fit-margin-top="0"
     fit-margin-left="0"
     fit-margin-right="0"
     fit-margin-bottom="0" />
  <metadata
     id="metadata5">
    <rdf:RDF>
      <cc:Work
         rdf:about="">
        <dc:format>image/svg+xml</dc:format>
        <dc:type
           rdf:resource="http://purl.org/dc/dcmitype/StillImage" />
        <dc:title></dc:title>
      </cc:Work>
    </rdf:RDF>
  </metadata>
  <g
     inkscape:label="Layer 1"
     inkscape:groupmode="layer"
     id="layer1">
    <rect
       style="opacity:1;fill:#222e3d;fill-opacity:0.94117647;stroke-width:0.490871;stop-opacity:1"
       id="rect843"
       width="92.763123"
       height="92.763123"
       x="0"
       y="0" />
    <g
       style="fill:#ffffff"
       transform="matrix(0.10657023,0,0,0.10657023,19.970371,19.957147)"
       id="g1396">
	<path
   style="fill:#ffffff"
   inkscape:connector-curvature="0"
   d="m 256.7,228.6 c -14.7,0 -26.9,12 -26.9,26.8 0,14.7 12.2,26.9 26.9,26.9 35.8,-0.1 35.8,-53.7 0,-53.7 z m 0,17 c 5.5,0 9.7,4.2 9.7,9.7 0,5.5 -4.2,9.7 -9.7,9.7 -5.5,0 -9.7,-4.2 -9.7,-9.7 -0.1,-5.5 4.1,-9.7 9.7,-9.7 z M 13.8,0 C 12.3,0 11.6,0.3 6.4,0.8 1.1,1.5 -0.6,7.7 0.6,14.3 1.8,21 2.1,18.7 4.8,22.6 7.5,26.4 95,110.9 140.3,155.2 L 60,237.5 c -26.7,27.3 -40.8,69.4 -49,115.9 -8.3,46.5 -10.4,98 -11,144.8 0.1,6.7 5.1,12.4 11.8,13.2 h 2.5 c 3.1,-0.3 6,-1.7 8.2,-3.9 h 0.1 L 155.1,371.6 c 85.8,79.3 87.9,108.3 198.3,129.4 46.5,8.2 98,10.4 144.8,11 6.7,0 12.3,-5 13.2,-11.7 l 0.2,-0.2 -0.2,-2.8 c -0.3,-3 -1.7,-5.7 -3.8,-7.9 v -0.1 L 371.5,356.9 449,277.4 l 2.8,-2.8 0.2,-0.2 c 26.7,-27.3 40.9,-69.3 49.1,-115.7 8.2,-46.6 10.2,-98 10.8,-144.8 0,-6.7 -5,-12.3 -11.7,-13.2 L 500,0.5 497.2,0.6 c -3,0.3 -5.7,1.7 -7.8,3.8 h -0.1 L 356.9,140.2 274.5,60 C 247.2,33.3 205.2,19.1 158.6,10.8 110.5,5.6 62.3,0.7 13.8,0 Z m 10.3,17.8 c 43.5,0.8 89.9,2.6 131.5,9.9 44.9,7.9 83.8,22 106.9,44.6 h 0.1 l 2.3,2.3 1.6,1.7 0.1,0.2 0.3,0.2 0.3,0.3 v 0.2 l 0.1,0.2 c 2.8,3.8 7.6,11.1 9,14.2 1,2.2 1.9,4.4 2.8,6.9 3.8,11.1 5.8,24.9 4.4,42.4 v 0.1 c -0.3,3.9 -0.8,7.9 -1.4,12.2 -0.3,2 -0.8,4.2 -1.1,6.6 -0.9,4.7 -1.9,9.2 -3,13.8 -0.6,2.4 -1.2,4.9 -1.9,7.4 v 0.2 c -2.8,9.9 -6.4,20.9 -10.9,32.4 -1.1,2.9 -2.2,5.7 -3.4,8.8 -1,2.3 -2.1,4.8 -3.2,7.3 l -5.5,1.1 c -18.7,-35.3 -39.1,-59.7 -57.3,-73.7 -9.3,-7 -17.8,-11.5 -26.2,-13.3 h -0.1 c -8.2,-1.8 -17.1,-0.6 -22.8,5.3 l 0.8,1.6 6.8,-5.1 z M 494.2,24 c -0.8,43.5 -2.5,90 -9.9,131.6 -7.9,44.9 -21.9,83.8 -44.6,107 l -2.3,2.2 -2,1.8 -0.4,0.4 h -0.2 c -3.7,2.7 -11.3,7.7 -14.3,9.1 -2.2,1 -4.5,2.2 -6.9,3 h -0.2 c -11,3.8 -24.8,5.6 -42.3,4.2 -3.8,-0.3 -8,-0.7 -12.2,-1.2 l -6.4,-1.1 h -0.1 c -4.7,-0.9 -9.2,-1.9 -13.8,-3 h -0.2 c -2.5,-0.7 -4.9,-1.4 -7.3,-2.1 -11,-3 -21.8,-6.6 -32.5,-10.7 -2.9,-1.2 -5.9,-2.4 -9,-3.7 -2.2,-0.9 -4.5,-1.8 -6.7,-2.8 0.3,-1.3 -1.7,2.1 0,0 0.1,-2.1 -0.3,-4.2 -1.1,-6.1 34.9,-18.6 59.3,-38.8 73.3,-56.9 7.1,-9.3 11.7,-18 13.5,-26.3 1.9,-8.2 0.6,-17.2 -5.3,-23 l 0.2,0.2 2.4,7.5 z m -197.7,81.5 54.1,52.7 0.2,0.3 0.3,0.2 c 0.8,0.8 1.7,2.4 0.7,7.1 -0.5,2.1 -3.1,5.7 -4.4,8.3 -1.7,3.6 -2.5,6.4 -5.8,10.8 -11.7,14.9 -34.5,33.4 -66.9,50.8 1,-2.3 1.9,-4.6 2.8,-6.8 1.2,-3.1 2.4,-6.3 3.6,-9.3 4.7,-12.2 8.6,-23.6 11.5,-34.2 2.1,-7.5 3.8,-15.1 5.2,-22.7 v -0.2 c 0.3,-2.3 0.9,-4.6 1.3,-6.9 0.6,-4.5 1.1,-8.9 1.4,-13.4 1.1,-14.4 -1.5,-25.5 -4,-36.7 z m -130.7,54.8 c 34,15.3 56.2,51.7 69.9,77.2 -2.4,-1.1 -4.6,-1.9 -6.9,-2.9 -3.2,-1.2 -6.3,-2.4 -9.3,-3.6 -11.1,-4.4 -22.5,-8.2 -34,-11.5 h -0.1 c -2.7,-0.8 -5.3,-1.4 -7.7,-2.1 -5.1,-1.3 -10.2,-2.3 -14.9,-3.2 -2.3,-0.3 -4.8,-0.6 -7.1,-1.1 v -0.2 c -4.5,-0.6 -8.9,-1.1 -13.4,-1.4 -14.5,-1.1 -25.7,1.4 -36.9,3.9 l 52.8,-54 0.6,-0.7 c 0.8,-0.8 2.4,-1.7 7.1,-0.6 v 0.2 z m -24.9,68.3 c 3.8,0.3 7.9,0.8 12.2,1.4 h 0.2 c 2,0.3 4.2,0.7 6.4,1.1 4.4,0.8 8.9,1.8 13.8,3 l 3.8,0.9 3.7,0.9 h 0.1 c 10.1,2.8 20.8,6.4 32.5,10.9 2.9,1.1 5.9,2.3 8.9,3.4 2.6,1.1 5.2,2.3 7.7,3.3 l 0.3,5.6 c -35,18.6 -59.5,38.8 -73.4,57 -7.1,9.3 -11.7,17.8 -13.5,26.2 v 0.2 c -1.9,8.2 -0.6,17.1 5.3,22.8 h -0.2 l -4,-7.2 L 18,487.7 c 0.8,-43.4 2.4,-89.7 9.7,-131.3 7.9,-44.9 22,-83.8 44.6,-106.9 v -0.1 l 1.7,-1.6 0.7,-0.6 1.9,-1.7 h 0.2 l 0.2,-0.3 c 3.7,-2.7 11.4,-7.8 14.5,-9.3 2.3,-1 4.7,-2 7.1,-2.8 11.1,-3.8 24.9,-5.8 42.4,-4.4 z m 110,4.2 c -8.9,2.8 -14.9,8.9 -17.8,17.8 l 9.4,-10.4 z m 11.6,0.6 3.8,6.9 3.2,2 8.6,6.8 c -3.1,-7.5 -7.9,-12.9 -15.5,-15.6 z m -6.1,11.1 c 6.6,0 11.7,5.2 11.7,11.8 0.1,6.6 -5.2,11.9 -11.7,11.8 -6.6,0.1 -11.9,-5.2 -11.8,-11.8 0,-6.6 5.2,-11.8 11.8,-11.8 z M 234,262.9 c 3,7.8 8.2,13 15.9,15.9 l -5.1,-5.9 -4.4,-5 z m 44,0.8 -6.1,2.5 -1.2,3.8 -6.1,6.9 c 6.2,-3 10.6,-6.9 13.4,-13.2 z m -1.6,10.9 c 2.2,0.9 4.5,2.1 6.7,3 3.2,1.2 6.3,2.4 9.3,3.6 12,4.6 23.4,8.4 34,11.3 2.8,0.8 5.4,1.4 7.8,2.1 5.2,1.2 10.2,2.4 15,3.3 2.2,0.3 4.7,0.7 7.1,1.1 4.6,0.6 9.1,1.1 13.4,1.6 14.5,1.1 25.6,-1.5 36.8,-4 l -52.7,54.1 -0.3,0.2 -0.3,0.3 c -0.8,0.8 -2.4,1.6 -6.9,0.7 h -0.1 c -4.6,-1.1 -11.3,-4.3 -19.1,-10.4 -14.9,-11.7 -33.4,-34.5 -50.7,-66.9 z m -39.1,1.9 -2.8,6.7 c -1.2,3.1 -2.4,6.3 -3.7,9.3 -4.3,11.2 -8.1,22.5 -11.3,34 -0.8,2.8 -1.4,5.4 -2,7.9 -1.2,5.1 -2.4,10.2 -3.3,14.9 -0.4,2.4 -0.8,4.8 -1.1,7.2 -0.7,4.4 -1.1,8.8 -1.6,13.3 -1.1,14.5 1.5,25.7 3.9,36.8 l -54,-52.7 -0.3,-0.5 -0.3,-0.1 v -0.2 c -0.8,-0.8 -1.6,-2.2 -0.6,-6.8 v -0.1 c 1.1,-4.6 4.4,-11.3 10.4,-19.1 11.6,-14.9 34.4,-33.4 66.7,-50.6 z m 22.2,5.5 c 18.5,34.7 38.7,59.1 56.8,73.1 9.3,7.1 17.8,11.6 26.2,13.5 h 0.2 c 8.2,1.8 17,0.6 22.8,-5.3 l -0.8,-1.5 -6.5,5.8 129.9,126.7 c -43.5,-0.8 -90.1,-2.6 -131.7,-10 -44.9,-7.9 -83.8,-21.9 -106.9,-44.5 h -0.1 l -1.2,-1.1 -0.4,-0.7 -0.7,-0.6 -1.7,-1.9 v -0.2 l -0.3,-0.3 c -3.4,-4.6 -6.5,-9.4 -9.3,-14.5 -1.1,-2.2 -2,-4.7 -2.8,-7.1 -3.8,-11.1 -5.8,-24.8 -4.4,-42.3 0.3,-3.8 0.8,-7.9 1.4,-12.2 v -0.2 c 0.3,-2 0.8,-4.2 1.1,-6.4 0.8,-4.4 1.8,-8.9 3,-13.8 v -0.2 l 1,-3.6 0.9,-3.6 v -0.2 c 2.8,-10 6.3,-20.8 10.9,-32.4 1.1,-2.9 2.4,-5.9 3.6,-8.9 1,-2.5 2.1,-4.9 3.2,-7.4 l 5.9,-0.3 z"
   id="path1394" />

</g>
  </g>
  <style
     id="style898">svg {enable-background:new 0 0 360 360}</style>
  <style
     id="style900">.st0{fill:none}</style>
</svg>
