<?xml version="1.0" encoding="UTF-8" standalone="no"?>
<svg
   xmlns:dc="http://purl.org/dc/elements/1.1/"
   xmlns:cc="http://creativecommons.org/ns#"
   xmlns:rdf="http://www.w3.org/1999/02/22-rdf-syntax-ns#"
   xmlns:svg="http://www.w3.org/2000/svg"
   xmlns="http://www.w3.org/2000/svg"
   xmlns:sodipodi="http://sodipodi.sourceforge.net/DTD/sodipodi-0.dtd"
   xmlns:inkscape="http://www.inkscape.org/namespaces/inkscape"
   sodipodi:docname="aws18_zeppelin.svg"
   inkscape:version="1.0beta1 (32d4812, 2019-09-19)"
   inkscape:export-ydpi="96"
   inkscape:export-xdpi="96"
   inkscape:export-filename="/Users/jlim/Downloads/jenkins.png"
   id="svg8"
   version="1.1"
   viewBox="0 0 92.763123 92.763123"
   height="92.763123mm"
   width="92.763123mm">
  <defs
     id="defs2" />
  <sodipodi:namedview
     fit-margin-bottom="0"
     fit-margin-right="0"
     fit-margin-left="0"
     fit-margin-top="0"
     inkscape:window-maximized="1"
     inkscape:window-y="23"
     inkscape:window-x="0"
     inkscape:window-height="1155"
     inkscape:window-width="1920"
     showgrid="false"
     inkscape:document-rotation="0"
     inkscape:current-layer="layer1"
     inkscape:document-units="mm"
     inkscape:cy="264.70194"
     inkscape:cx="5.2388"
     inkscape:zoom="1.4"
     inkscape:pageshadow="2"
     inkscape:pageopacity="0.0"
     borderopacity="1.0"
     bordercolor="#666666"
     pagecolor="#ffffff"
     id="base" />
  <metadata
     id="metadata5">
    <rdf:RDF>
      <cc:Work
         rdf:about="">
        <dc:format>image/svg+xml</dc:format>
        <dc:type
           rdf:resource="http://purl.org/dc/dcmitype/StillImage" />
        <dc:title></dc:title>
      </cc:Work>
    </rdf:RDF>
  </metadata>
  <g
     id="layer1"
     inkscape:groupmode="layer"
     inkscape:label="Layer 1">
    <rect
       y="0"
       x="0"
       height="92.763123"
       width="92.763123"
       id="rect843"
       style="opacity:1;fill:#222e3d;fill-opacity:0.94117647;stroke-width:0.490871;stop-opacity:1" />
    <g
       id="layer2"
       transform="matrix(0.2120651,0,0,0.2120651,-4.8039922,-132.03864)"
       style="fill:#ffffff">
      <path
         inkscape:connector-curvature="0"
         style="fill:#ffffff;fill-opacity:1;stroke:none"
         id="path3051"
         d="m 335.36161,720.28571 c -37.79904,-0.14651 -79.70008,11.66535 -102.28125,25.59375 -8.44064,5.20631 -17.10168,11.03538 -25.78125,17.1875 0,0 -78.32109,60.30642 -102.65625,90.65625 -3.25932,4.06489 -6.226864,8.44672 -8.812504,13.0625 -0.17426,0.33135 -0.36018,0.66597 -0.53125,1 -0.24181,0.44442 -0.4844,0.89534 -0.71875,1.34375 -0.0555,0.1124 -0.10113,0.23107 -0.15625,0.34375 -3.84499,7.86016 -6.77515,16.37197 -8.21875,24.96875 -0.0121,0.0723 -0.0193,0.14639 -0.0312,0.21875 -0.0432,0.30199 -0.0852,0.60298 -0.125,0.90625 -1.30816,9.96867 -0.76941,20.60537 3.3125,29.625 4.96211,10.96458 13.221674,19.14834 25.187504,25.875 11.53936,6.48691 32.65625,12 32.65625,12 l -0.34375,0.15625 c 17.59942,3.12158 35.83078,2.0733 53.625,0.34375 8.72527,-0.84807 17.45409,-1.80839 26.1875,-2.90625 0.006,1.4e-4 0.0253,-1.4e-4 0.0312,0 0.0596,10e-4 0.24904,-10e-4 0.3125,0 -0.57556,-2.93081 -1.5052,-8.54301 -0.375,-8.84375 11.9624,-3.18311 19.08411,-5.10354 28.40625,-8.34375 8.91375,-3.09826 15.43712,-5.92124 22.65625,-9.90625 1.80388,-0.99575 3.2319,-2.65532 5.125,-3.46875 5.97713,-2.56827 12.63213,-3.17007 19.0625,-4.15625 5.13763,-0.78792 10.33455,-1.30429 15.53125,-1.40625 3.37073,-0.0661 6.78368,-0.14006 10.09375,0.5 2.5353,0.49024 5.09966,1.20031 7.3125,2.53125 1.48012,0.89024 2.85252,2.09538 3.8125,3.53125 0.51216,1.09134 0.93571,2.24019 1.34375,3.375 18.89889,-7.08135 38.0951,-15.61969 52.6875,-29.46875 21.58482,-20.48528 38.73456,-47.2581 47.21875,-75.78125 4.60898,-15.495 5.40926,-32.90691 1.03125,-48.46875 -2.70663,-9.62085 -6.8793,-15.81268 -16.1875,-25.25 -19.04117,-19.3053 -46.78078,-31.24429 -73.71875,-34.34375 -4.98707,-0.57381 -10.25639,-0.85407 -15.65625,-0.875 z m -128.0625,42.78125 c -3.86694,2.74091 -7.74622,5.54773 -11.59375,8.40625 z m 81.53125,18.21875 c 12.24582,-0.0362 19.03125,1.84375 19.03125,1.84375 0,0 -20.14702,1.88019 -31.34375,3.875 -8.86862,1.58003 -23.13395,4.32673 -34.25,8.09375 -21.67503,7.34525 -42.29425,17.61508 -62.65625,28.0625 -15.65067,8.03011 -30.64712,17.30686 -45.625,26.53125 -10.2369,6.30457 -30.21875,19.6875 -30.21875,19.6875 0,0 17.02849,-22.00445 62.3125,-47.4375 12.948,-7.27204 26.16228,-14.09362 39.71875,-20.15625 10.59321,-4.73742 21.33402,-9.25275 32.4375,-12.625 8.43594,-2.56209 17.14133,-4.33678 25.84375,-5.75 6.34044,-1.02965 13.08066,-1.67808 19.15625,-1.96875 1.9676,-0.0941 3.84435,-0.15108 5.59375,-0.15625 z m -155.34375,21 c -4.01078,0.0236 -7.45011,4.73122 -9.5625,8.28125 -2.70692,4.54913 -3.90974,12.35592 -4.46875,18.59375 8.69096,-7.43321 17.36385,-14.34789 23.375,-19.03125 -2.32248,-3.90178 -5.23188,-7.27502 -8.53125,-7.78125 -0.27221,-0.0418 -0.54511,-0.0641 -0.8125,-0.0625 z m 175.09375,19.875 c 0,0 -37.81019,14.34794 -56.59375,21.84375 -21.63823,8.63501 -43.2082,17.4858 -64.625,26.65625 -14.98122,6.4148 -29.87653,13.04508 -44.6875,19.84375 -13.61663,6.25043 -40.625,19.25 -40.625,19.25 0,0 22.99883,-18.85478 65.65625,-37.5 24.89394,-10.88094 41.6801,-20.41394 68.46875,-29.15625 12.50865,-4.08212 24.85385,-8.67866 37.5,-12.3125 11.51657,-3.30926 34.90625,-8.625 34.90625,-8.625 z m 13.125,38.375 c 0,0 -5.30717,6.31971 -17.15625,14.15625 -5.92457,3.91828 -11.11912,8.02631 -16.9375,11.625 -7.53081,4.65783 -15.26098,8.9914 -23.21875,12.875 -9.864,4.81389 -20.10595,8.83787 -30.3125,12.875 -10.00493,3.95737 -20.06788,7.80627 -30.3125,11.09375 -12.63989,4.05611 -25.40243,7.80873 -38.375,10.625 -9.41293,2.04349 -28.53125,4.53125 -28.53125,4.53125 0,0 23.5908,-7.99177 35.34375,-12.125 12.4091,-4.36398 24.17628,-8.48209 37.125,-13.375 13.38528,-5.05787 22.95621,-8.74309 34.34375,-13.34375 9.31117,-3.76179 18.68636,-7.39808 27.78125,-11.65625 6.956,-3.25675 13.70697,-6.95086 20.46875,-10.59375 10.01976,-5.39811 29.78125,-16.6875 29.78125,-16.6875 z m 27.46875,24.78125 c 0,0 -0.31644,3.91995 -10.28125,14.125 -4.02327,4.12026 -11.11171,9.4374 -15.625,12.21875 -17.49169,10.77937 -26.8125,13.53125 -26.8125,13.53125 0,0 17.2683,-11.29466 25.625,-17.34375 4.92099,-3.56212 9.77228,-7.26516 14.4375,-11.15625 4.35657,-3.63364 12.65625,-11.375 12.65625,-11.375 z M 80.892856,922.66071 c -5.87528,2.64292 -12.95462,5.92162 -17.59375,8.40625 -8.60172,4.60691 -25.52718,12.66567 -24.96875,15.28125 0.8536,3.99813 20.01536,-3.73507 30,-5.71875 6.35259,-1.26209 12.66951,-2.5865 19,-3.9375 -2.55416,-4.4666 -4.77446,-9.16952 -6.4375,-14.03125 z m 234.218754,6.40625 c -2.54346,0.0163 -5.26205,0.16532 -8.5625,0.53125 -10.11079,1.121 -12.84772,2.02498 -20.9375,4.65625 -2.88213,0.93743 -4.58295,2.44474 -6.84375,3.6875 -4.06264,2.23323 -7.88923,4.92819 -12.125,6.8125 -6.08656,2.70765 -12.56199,4.44358 -18.9375,6.375 -5.25705,1.5926 -5.98423,1.90396 -15.90625,4.28125 -1.72225,0.41265 -0.1025,3.22615 1.4375,5.375 23.53934,0.47702 94.73733,1.61531 95.6875,-2.34375 l 5.25,-21.8125 c 0.4678,-0.16716 0.9384,-0.33002 1.40625,-0.5 -0.1972,-0.74965 -0.45229,-1.49989 -0.75,-2 -0.86788,-1.45793 -2.13443,-2.78104 -3.65625,-3.53125 -2.55739,-1.26071 -5.59251,-1.06119 -8.4375,-1.25 -2.68815,-0.1784 -5.08154,-0.2975 -7.625,-0.28125 z m 12.875,5.875 c 2.82142,0.0469 5.10871,0.47639 5.09375,1.875 -0.0322,3.01076 -6.50168,2.86285 -9.46875,3.15625 -19.13706,1.89235 -25.84825,1.57046 -38.78125,1.625 -2.4847,0.0105 -7.4375,-0.25 -7.4375,-0.25 0,0 12.42713,-2.94951 23.46875,-4.28125 6.42009,-0.77433 12.68164,-1.57478 18.84375,-1.78125 2.11379,-0.0708 5.45983,-0.39061 8.28125,-0.34375 z m -14.65625,12 c 2.30042,-0.044 4.60297,0.0279 6.875,0.34375 1.79675,0.24981 3.82399,0.3401 5.21875,1.5 0.62263,0.51777 1.3451,1.62663 1.09375,2.15625 -0.51067,1.07602 -2.43391,1.12729 -6.53125,1.40625 -4.91282,0.33448 -9.70383,0.73007 -14.5625,0.875 -12.04675,0.35934 -36.15625,-0.0625 -36.15625,-0.0625 0,0 7.51913,-1.9971 11.34375,-2.6875 8.53169,-1.5401 17.15905,-2.6589 25.8125,-3.1875 2.28962,-0.13986 4.60583,-0.29974 6.90625,-0.34375 z" />
    </g>
  </g>
  <style
     id="style898">svg {enable-background:new 0 0 360 360}</style>
  <style
     id="style900">.st0{fill:none}</style>
</svg>
