<?xml version="1.0" encoding="UTF-8" standalone="no"?>
<svg
   xmlns:dc="http://purl.org/dc/elements/1.1/"
   xmlns:cc="http://creativecommons.org/ns#"
   xmlns:rdf="http://www.w3.org/1999/02/22-rdf-syntax-ns#"
   xmlns:svg="http://www.w3.org/2000/svg"
   xmlns="http://www.w3.org/2000/svg"
   xmlns:xlink="http://www.w3.org/1999/xlink"
   xmlns:sodipodi="http://sodipodi.sourceforge.net/DTD/sodipodi-0.dtd"
   xmlns:inkscape="http://www.inkscape.org/namespaces/inkscape"
   sodipodi:docname="aws18_spark.svg"
   inkscape:version="1.0beta1 (32d4812, 2019-09-19)"
   inkscape:export-ydpi="96"
   inkscape:export-xdpi="96"
   inkscape:export-filename="/Users/jlim/Downloads/jenkins.png"
   id="svg8"
   version="1.1"
   viewBox="0 0 92.763123 92.763123"
   height="92.763123mm"
   width="92.763123mm">
  <defs
     id="defs2">
    <path
       d="M 1.74498 5.47533C 1.74498 7.03335 1.62034 7.54082 1.29983 7.91474C 0.943119 8.23595 0.480024 8.41358 0 8.41331L 0.124642 9.3036C 0.86884 9.31366 1.59095 9.05078 2.15452 8.56466C 2.45775 8.19487 2.6834 7.76781 2.818 7.30893C 2.95261 6.85005 2.99341 6.36876 2.93798 5.89377L 2.93798 0L 1.74498 0L 1.74498 5.43972L 1.74498 5.47533Z"
       id="path0_fill" />
    <path
       d="M 5.50204 4.76309C 5.50204 5.43081 5.50204 6.02731 5.55545 6.54368L 4.496 6.54368L 4.42478 5.48423C 4.20318 5.85909 3.88627 6.16858 3.50628 6.38125C 3.12628 6.59392 2.69675 6.70219 2.26135 6.69503C 1.22861 6.69503 0 6.13415 0 3.84608L 0 0.0445149L 1.193 0.0445149L 1.193 3.6057C 1.193 4.84322 1.57583 5.67119 2.65309 5.67119C 2.87472 5.67358 3.09459 5.63168 3.29982 5.54796C 3.50505 5.46424 3.69149 5.34039 3.84822 5.18366C 4.00494 5.02694 4.1288 4.84049 4.21252 4.63527C 4.29623 4.43004 4.33813 4.21016 4.33575 3.98853L 4.33575 0L 5.52874 0L 5.52874 4.72748L 5.50204 4.76309Z"
       id="path1_fill" />
    <path
       d="M 0.0534178 2.27264C 0.0534178 1.44466 0.0534178 0.768036 0 0.153731L 1.06836 0.153731L 1.12177 1.2666C 1.3598 0.864535 1.70247 0.534594 2.11325 0.311954C 2.52404 0.0893145 2.98754 -0.0176786 3.45435 0.00238095C 5.03908 0.00238095 6.23208 1.32892 6.23208 3.30538C 6.23208 5.63796 4.7987 6.79535 3.24958 6.79535C 2.85309 6.81304 2.45874 6.7281 2.10469 6.54874C 1.75064 6.36937 1.44888 6.10166 1.22861 5.77151L 1.22861 5.77151L 1.22861 9.33269L 0.0534178 9.33269L 0.0534178 2.29935L 0.0534178 2.27264ZM 1.22861 4.00872C 1.23184 4.17026 1.24972 4.33117 1.28203 4.48948C 1.38304 4.88479 1.61299 5.23513 1.93548 5.48506C 2.25798 5.735 2.65461 5.87026 3.06262 5.86944C 4.31794 5.86944 5.05689 4.8456 5.05689 3.3588C 5.05689 2.05897 4.36246 0.946096 3.10714 0.946096C 2.61036 0.986777 2.14548 1.20726 1.79965 1.5662C 1.45382 1.92514 1.25079 2.3979 1.22861 2.89585L 1.22861 4.00872Z"
       id="path2_fill" />
    <path
       d="M 1.31764 0.0178059L 2.75102 3.85499C 2.90237 4.28233 3.06262 4.7987 3.16946 5.18153C 3.2941 4.7898 3.42764 4.29123 3.5879 3.82828L 4.88773 0.0178059L 6.14305 0.0178059L 4.36246 4.64735C 3.47216 6.87309 2.92908 8.02158 2.11 8.71601C 1.69745 9.09283 1.19448 9.35658 0.649917 9.48166L 0.356119 8.48453C 0.736886 8.35942 1.09038 8.16304 1.39777 7.90584C 1.8321 7.55188 2.17678 7.10044 2.4038 6.5882C 2.45239 6.49949 2.48551 6.40314 2.50173 6.3033C 2.49161 6.19586 2.46457 6.0907 2.42161 5.9917L 0 0L 1.29983 0L 1.31764 0.0178059Z"
       id="path3_fill" />
    <path
       d="M 2.19013 0L 2.19013 1.86962L 3.8995 1.86962L 3.8995 2.75992L 2.19013 2.75992L 2.19013 6.26769C 2.19013 7.06896 2.42161 7.53191 3.08043 7.53191C 3.31442 7.53574 3.54789 7.5088 3.77486 7.45179L 3.82828 8.34208C 3.48794 8.45999 3.12881 8.51431 2.76882 8.50234C 2.53042 8.51726 2.29161 8.48043 2.06878 8.39437C 1.84595 8.30831 1.64438 8.17506 1.47789 8.00377C 1.11525 7.51873 0.949826 6.91431 1.01494 6.31221L 1.01494 2.75102L 0 2.75102L 0 1.86072L 1.03274 1.86072L 1.03274 0.275992L 2.19013 0Z"
       id="path4_fill" />
    <path
       d="M 1.17716 3.57899C 1.153 3.88093 1.19468 4.18451 1.29933 4.46876C 1.40398 4.75301 1.5691 5.01114 1.78329 5.22532C 1.99747 5.43951 2.2556 5.60463 2.53985 5.70928C 2.8241 5.81393 3.12768 5.85561 3.42962 5.83145C 4.04033 5.84511 4.64706 5.72983 5.21021 5.49313L 5.41498 6.38343C 4.72393 6.66809 3.98085 6.80458 3.23375 6.78406C 2.79821 6.81388 2.36138 6.74914 1.95322 6.59427C 1.54505 6.43941 1.17522 6.19809 0.869071 5.88688C 0.562928 5.57566 0.327723 5.2019 0.179591 4.79125C 0.0314584 4.38059 -0.0260962 3.94276 0.0108748 3.50777C 0.0108748 1.54912 1.17716 0 3.0824 0C 5.21911 0 5.75329 1.86962 5.75329 3.06262C 5.76471 3.24644 5.76471 3.43079 5.75329 3.61461L 1.15046 3.61461L 1.17716 3.57899ZM 4.66713 2.6887C 4.70149 2.45067 4.68443 2.20805 4.61709 1.97718C 4.54976 1.74631 4.43372 1.53255 4.2768 1.35031C 4.11987 1.16808 3.92571 1.0216 3.70739 0.920744C 3.48907 0.81989 3.25166 0.767006 3.01118 0.765656C 2.52201 0.801064 2.06371 1.01788 1.72609 1.37362C 1.38847 1.72935 1.19588 2.19835 1.18607 2.6887L 4.66713 2.6887Z"
       id="path5_fill" />
    <path
       d="M 0.0534178 2.19228C 0.0534178 1.42663 0.0534178 0.767806 0 0.162404L 1.06836 0.162404L 1.06836 1.43553L 1.12177 1.43553C 1.23391 1.04259 1.4656 0.694314 1.78468 0.439049C 2.10376 0.183783 2.4944 0.034196 2.90237 0.0110538C 3.01466 -0.00368459 3.12839 -0.00368459 3.24068 0.0110538L 3.24068 1.12393C 3.10462 1.10817 2.9672 1.10817 2.83114 1.12393C 2.427 1.13958 2.04237 1.30182 1.7491 1.58035C 1.45583 1.85887 1.27398 2.23462 1.23751 2.63743C 1.20422 2.8196 1.18635 3.00425 1.1841 3.18941L 1.1841 6.65267L 0.00890297 6.65267L 0.00890297 2.20118L 0.0534178 2.19228Z"
       id="path6_fill" />
    <path
       d="M 6.03059 2.83565C 6.06715 3.43376 5.92485 4.02921 5.6218 4.54615C 5.31875 5.0631 4.86869 5.47813 4.32893 5.73839C 3.78917 5.99864 3.18416 6.09233 2.59097 6.00753C 1.99778 5.92272 1.44326 5.66326 0.998048 5.26219C 0.552837 4.86113 0.23709 4.33661 0.0910307 3.75546C -0.0550287 3.17431 -0.0247891 2.56283 0.177897 1.99893C 0.380583 1.43503 0.746541 0.944221 1.22915 0.589037C 1.71176 0.233853 2.28918 0.0303686 2.88784 0.00450543C 3.28035 -0.0170932 3.67326 0.0391144 4.04396 0.169896C 4.41467 0.300677 4.75587 0.503453 5.04794 0.766561C 5.34 1.02967 5.57718 1.34792 5.74582 1.70301C 5.91446 2.0581 6.01124 2.44303 6.03059 2.83565L 6.03059 2.83565Z"
       id="path7_fill" />
    <path
       d="M 18.6962 7.12238C 10.6836 7.12238 3.64131 4.24672 0 0C 1.41284 3.82041 3.96215 7.1163 7.30479 9.44404C 10.6474 11.7718 14.623 13.0196 18.6962 13.0196C 22.7695 13.0196 26.745 11.7718 30.0877 9.44404C 33.4303 7.1163 35.9796 3.82041 37.3925 4.0486e-13C 33.7601 4.24672 26.7445 7.12238 18.6962 7.12238Z"
       id="path8_fill" />
    <path
       d="M 18.6962 5.89725C 26.7089 5.89725 33.7512 8.77291 37.3925 13.0196C 35.9796 9.19922 33.4303 5.90333 30.0877 3.57559C 26.745 1.24785 22.7695 4.0486e-13 18.6962 0C 14.623 4.0486e-13 10.6474 1.24785 7.30479 3.57559C 3.96215 5.90333 1.41284 9.19922 0 13.0196C 3.64131 8.76401 10.648 5.89725 18.6962 5.89725Z"
       id="path9_fill" />
    <path
       d="M 7.59576 3.56656C 7.64276 4.31992 7.46442 5.07022 7.08347 5.72186C 6.70251 6.3735 6.13619 6.89698 5.45666 7.22561C 4.77713 7.55424 4.01515 7.67314 3.26781 7.56716C 2.52046 7.46117 1.82158 7.13511 1.26021 6.63051C 0.698839 6.12591 0.300394 5.46561 0.115637 4.73375C -0.0691191 4.00188 -0.0318219 3.23159 0.222777 2.52099C 0.477376 1.8104 0.93775 1.19169 1.54524 0.743685C 2.15274 0.295678 2.87985 0.0386595 3.63394 0.00537589C 4.12793 -0.0210471 4.62229 0.0501173 5.08878 0.214803C 5.55526 0.37949 5.98473 0.63447 6.35264 0.965179C 6.72055 1.29589 7.01971 1.69584 7.233 2.1422C 7.4463 2.58855 7.56957 3.07256 7.59576 3.56656L 7.59576 3.56656Z"
       id="path10_fill" />
    <path
       d="M 2.25061 4.37943C 1.81886 4.39135 1.39322 4.27535 1.02722 4.04602C 0.661224 3.81668 0.371206 3.48424 0.193641 3.09052C 0.0160762 2.69679 -0.0411078 2.25935 0.0292804 1.83321C 0.0996686 1.40707 0.294486 1.01125 0.589233 0.695542C 0.883981 0.37983 1.2655 0.158316 1.68581 0.0588577C 2.10611 -0.0406005 2.54644 -0.0135622 2.95143 0.136572C 3.35641 0.286707 3.70796 0.553234 3.96186 0.902636C 4.21577 1.25204 4.3607 1.66872 4.37842 2.10027C 4.39529 2.6838 4.18131 3.25044 3.78293 3.67715C 3.38455 4.10387 2.83392 4.35623 2.25061 4.37943Z"
       id="path11_fill" />
    <path
       id="C"
       d="M20.797 18.285h.896l-.212-1.347zm1.037.877h-1.49l-.474.928h-1.056l2.33-4.362h1.018l.794 4.352h-.98l-.14-.928" />
  </defs>
  <sodipodi:namedview
     fit-margin-bottom="0"
     fit-margin-right="0"
     fit-margin-left="0"
     fit-margin-top="0"
     inkscape:window-maximized="0"
     inkscape:window-y="144"
     inkscape:window-x="136"
     inkscape:window-height="907"
     inkscape:window-width="1600"
     showgrid="false"
     inkscape:document-rotation="0"
     inkscape:current-layer="g2692"
     inkscape:document-units="mm"
     inkscape:cy="248.71458"
     inkscape:cx="118.86858"
     inkscape:zoom="0.35"
     inkscape:pageshadow="2"
     inkscape:pageopacity="0.0"
     borderopacity="1.0"
     bordercolor="#666666"
     pagecolor="#ffffff"
     id="base" />
  <metadata
     id="metadata5">
    <rdf:RDF>
      <cc:Work
         rdf:about="">
        <dc:format>image/svg+xml</dc:format>
        <dc:type
           rdf:resource="http://purl.org/dc/dcmitype/StillImage" />
        <dc:title></dc:title>
      </cc:Work>
    </rdf:RDF>
  </metadata>
  <g
     id="layer1"
     inkscape:groupmode="layer"
     inkscape:label="Layer 1">
    <rect
       y="0"
       x="0"
       height="92.763123"
       width="92.763123"
       id="rect843"
       style="opacity:1;fill:#222e3d;fill-opacity:0.94117647;stroke-width:0.490871;stop-opacity:1" />
    <g
       transform="matrix(0.80800337,0,0,0.80800337,21.564567,22.879292)"
       id="g2556"
       style="fill:#ffffff;fill-rule:evenodd;stroke:#000000;stroke-linecap:round;stroke-linejoin:round">
      <use
         style="fill:#ffffff"
         height="100%"
         width="100%"
         xlink:href="#A"
         x="0.5"
         y="0.5"
         id="use2528" />
      <symbol
         style="fill:#ffffff"
         id="A"
         overflow="visible">
        <g
           style="fill:#ffffff"
           stroke="none"
           fill="#e25a1c"
           id="g2538">
          <path
             style="fill:#ffffff"
             inkscape:connector-curvature="0"
             d="m 48.104,44.333 -0.29,-0.62 -6.367,-12.07 c -0.215,-0.404 -0.188,-0.644 0.096,-0.988 l 10.073,-11.83 c 0.117,-0.14 0.224,-0.287 0.27,-0.533 l -2.94,0.77 -12.215,3.246 c -0.38,0.102 -0.55,-0.01 -0.74,-0.323 L 29.05,10.427 A 1.67,1.67 0 0 0 28.545,9.864 l -0.56,3.084 -1.936,10.897 -0.2,1.177 c -0.033,0.385 -0.225,0.514 -0.564,0.62 l -14.38,4.544 a 1.59,1.59 0 0 0 -0.642,0.358 l 11.83,4.697 -0.346,0.272 -7.36,4.758 A 0.78,0.78 0 0 1 13.534,40.34 L 4.737,36.42 c -1.316,-0.577 -2.5,-1.37 -3.422,-2.496 -2.084,-2.55 -1.673,-5.45 1.104,-7.214 0.91,-0.58 1.94,-1.015 2.97,-1.35 l 14.125,-4.487 c 0.385,-0.123 0.577,-0.3 0.65,-0.728 L 22.1,9.25 c 0.35,-1.94 0.537,-3.943 1.48,-5.71 0.363,-0.673 0.798,-1.354 1.315,-1.927 1.87,-2.077 4.482,-2.156 6.46,-0.18 0.668,0.668 1.25,1.455 1.738,2.263 l 6.446,10.71 c 0.252,0.423 0.48,0.5 0.947,0.385 l 15.79,-4.194 c 1.085,-0.287 2.183,-0.392 3.296,-0.192 2.424,0.454 3.485,2.308 2.664,4.642 -0.373,1.058 -1.018,1.97 -1.73,2.82 L 49.474,30.82 c -0.3,0.352 -0.308,0.606 -0.1,1 l 6.562,12.44 c 0.523,0.993 0.923,2.023 0.933,3.162 0.026,2.593 -1.87,4.715 -4.446,5.092 C 50.98,52.726 49.639,52.418 48.287,52 L 38.38,48.987 c -0.306,-0.09 -0.423,-0.212 -0.477,-0.54 l -1.195,-6.964 c -0.01,-0.063 0.008,-0.133 0.017,-0.275 l 11.37,3.136"
             id="path2530" />
          <g
             style="fill:#ffffff"
             fill-rule="nonzero"
             id="g2536">
            <path
               style="fill:#ffffff"
               inkscape:connector-curvature="0"
               d="m 22.085,35.243 2.097,0.914 -2.33,18.563 12.748,-14.12 2.148,0.603 2.645,8.04 -3.438,-1.212 -8.895,9.603 c 0,0 -3.978,4.118 -6.134,3.424 C 18.77,60.364 16.95,58.442 16.748,55.006 16.546,51.57 15.636,41.762 15.636,41.762 l -4.347,-3.134 z"
               id="path2532" />
            <path
               style="fill:#ffffff"
               inkscape:connector-curvature="0"
               d="m 15.625,41.765 c 0,0 -1.92,21.23 1.82,21.937 3.74,0.707 -0.404,-0.1 -0.404,-0.1 0,0 2.123,2.427 10.513,-6.57 l 8.39,-8.997 -16.782,9.907 C 19.566,57.436 21.285,40.25 21.285,40.25 Z"
               id="path2534" />
          </g>
        </g>
      </symbol>
    </g>
    <g
       transform="matrix(0.26458333,0,0,0.26458333,427.13226,204.19838)"
       id="g2692"
       style="fill:#ffffff;fill-rule:evenodd;stroke:#000000;stroke-linecap:round;stroke-linejoin:round">
      <use
         height="100%"
         width="100%"
         xlink:href="#A-8"
         x="0.5"
         y="0.5"
         id="use2647" />
      <symbol
         id="A-8"
         overflow="visible">
        <g
           stroke="none"
           id="g2667">
          <path
             inkscape:connector-curvature="0"
             d="m 77.38,22.198 -0.146,-0.3 -3.186,-6.04 c -0.114,-0.153 -0.09,-0.37 0.053,-0.494 l 5.04,-5.922 a 0.55,0.55 0 0 0 0.135,-0.266 l -1.472,0.385 -6.11,1.635 c -0.19,0.05 -0.276,-0.005 -0.37,-0.162 l -3.483,-5.8 A 0.79,0.79 0 0 0 67.588,4.952 l -0.29,1.544 -0.968,5.454 -0.1,0.6 c -0.016,0.188 -0.112,0.257 -0.282,0.31 l -7.196,2.275 c -0.096,0.034 -0.208,0.077 -0.32,0.18 l 5.915,2.35 -0.173,0.137 -3.68,2.38 c -0.146,0.096 -0.263,0.11 -0.427,0.035 l -4.403,-1.962 c -0.66,-0.294 -1.25,-0.685 -1.712,-1.25 -1.044,-1.276 -0.837,-2.728 0.553,-3.614 a 6.56,6.56 0 0 1 1.486,-0.676 l 7.07,-2.246 a 0.4,0.4 0 0 0 0.327,-0.365 l 0.968,-5.453 c 0.175,-0.962 0.27,-1.968 0.74,-2.86 0.192,-0.342 0.4,-0.677 0.658,-0.965 0.936,-1.04 2.243,-1.08 3.232,-0.1 0.334,0.334 0.62,0.728 0.87,1.133 l 3.232,5.36 c 0.034,0.09 0.104,0.164 0.194,0.2 0.09,0.036 0.19,0.034 0.28,-0.008 l 7.887,-2.095 c 0.543,-0.144 1.093,-0.196 1.65,-0.09 1.214,0.227 1.744,1.15 1.333,2.323 -0.187,0.534 -0.5,0.985 -0.87,1.41 l -5.493,6.49 c -0.15,0.176 -0.154,0.304 -0.05,0.5 l 3.284,6.226 c 0.262,0.497 0.462,1.013 0.467,1.583 0.013,1.298 -0.936,2.36 -2.226,2.55 -0.72,0.096 -1.395,-0.048 -2.07,-0.257 l -4.953,-1.508 a 0.28,0.28 0 0 1 -0.239,-0.271 l -0.598,-3.486 c -0.006,-0.032 0.004,-0.067 0.01,-0.138 l 5.69,1.57"
             fill="#e25a1c"
             id="path2649" />
          <g
             fill="#3c3a3e"
             id="g2665">
            <path
               inkscape:connector-curvature="0"
               d="m 74.164,39.14 -4.463,-0.004 c -0.17,0.015 -0.335,-0.073 -0.417,-0.224 l -5.513,-8.35 -1.125,8.554 H 58.75 l 0.135,-1.112 2.24,-17.024 c 0.013,-0.09 0.06,-0.174 0.135,-0.23 l 4.04,-2.597 c 0.02,-0.012 0.048,-0.014 0.115,-0.034 l -1.215,9.258 0.048,0.033 6.375,-7.067 0.627,3.62 c 0.033,0.177 -0.014,0.288 -0.133,0.41 l -4.084,4.292 -0.192,0.192 0.125,0.198 7.04,9.878 c 0.042,0.06 0.104,0.096 0.157,0.16 v 0.052 M 27.996,30.587 c -0.06,-0.304 -0.102,-0.75 -0.237,-1.166 -0.652,-2.012 -2.717,-3.116 -4.854,-2.62 -2.345,0.545 -4.02,2.39 -4.263,4.78 -0.18,1.77 0.773,3.475 2.546,4.115 1.427,0.516 2.802,0.3 4.078,-0.465 1.693,-1.015 2.61,-2.522 2.732,-4.646 z m -10.296,7.471 -0.334,2.5 -0.42,3.257 c -0.016,0.127 -0.055,0.192 -0.2,0.192 l -3.2,-0.005 c -0.024,0 -0.048,-0.014 -0.096,-0.03 l 0.195,-1.54 0.712,-5.4 0.842,-6.17 c 0.62,-3.62 3.693,-6.733 7.298,-7.518 2.1,-0.452 4.1,-0.242 5.915,0.933 1.82,1.173 2.863,2.885 3.1,5.016 0.337,3.027 -0.777,5.54 -2.928,7.618 -1.41,1.366 -3.1,2.23 -5.05,2.525 -2.007,0.303 -3.895,-0.032 -5.578,-1.216 -0.062,-0.043 -0.13,-0.08 -0.236,-0.148"
               id="path2651" />
            <path
               inkscape:connector-curvature="0"
               d="m 15.956,20.85 -3.518,2.62 -0.55,-0.864 c -0.504,-0.704 -1.13,-1.23 -2.04,-1.295 a 2.28,2.28 0 0 0 -1.92,0.755 1.34,1.34 0 0 0 -0.09,1.773 25.32,25.32 0 0 0 1.524,1.784 l 2.67,2.826 c 0.794,0.87 1.427,1.85 1.623,3.04 0.233,1.416 -0.05,2.764 -0.72,4.01 -1.25,2.303 -3.19,3.64 -5.768,4.057 -1.138,0.185 -2.273,0.148 -3.384,-0.18 -1.474,-0.433 -2.5,-1.4 -3.16,-2.763 C 0.39,36.133 0.211,35.623 0,35.105 l 3.816,-2.042 0.115,0.277 c 0.216,0.433 0.385,0.895 0.673,1.295 0.796,1.183 2.083,1.545 3.39,0.96 0.34,-0.154 0.654,-0.358 0.933,-0.606 0.84,-0.746 0.998,-1.786 0.385,-2.726 C 8.954,31.723 8.507,31.24 8.062,30.756 L 4.92,27.29 C 4.218,26.48 3.743,25.533 3.593,24.447 c -0.163,-1.186 0.072,-2.306 0.7,-3.304 1.534,-2.482 3.765,-3.773 6.714,-3.666 1.68,0.06 3.02,0.846 4.06,2.154 l 0.91,1.207 m 28.48,13.337 -0.572,4.336 c -0.01,0.072 -0.067,0.17 -0.128,0.198 -2.903,1.345 -6.726,1.157 -9.1,-1.55 -1.28,-1.454 -1.828,-3.18 -1.738,-5.102 0.186,-4.446 3.872,-8.327 8.272,-8.87 2.576,-0.317 4.834,0.38 6.58,2.38 1.19,1.363 1.738,2.982 1.657,4.787 -0.054,1.187 -0.24,2.368 -0.388,3.56 l -0.66,5.015 c -0.008,0.06 -0.02,0.118 -0.034,0.192 H 44.883 L 45,37.985 45.748,32.193 c 0.137,-1.204 0.05,-2.4 -0.5,-3.515 -0.577,-1.186 -1.568,-1.813 -2.86,-1.95 -2.674,-0.283 -5.22,1.575 -5.8,4.207 -0.377,1.737 0.217,3.403 1.6,4.323 1.348,0.897 2.793,0.9 4.263,0.317 0.745,-0.294 1.38,-0.762 1.984,-1.392 m 14.635,-10.656 -0.474,3.6 c -0.734,0 -1.454,-0.004 -2.174,0.002 a 1.37,1.37 0 0 0 -1.291,0.926 c -0.067,0.214 -0.094,0.442 -0.123,0.673 l -1.09,8.296 -0.272,2.103 H 50.03 l 0.198,-1.56 0.708,-5.375 0.63,-4.648 c 0.325,-2.07 2.385,-3.91 4.474,-4 l 3.028,-0.008"
               id="path2653" />
            <g
               fill-rule="nonzero"
               id="g2663">
              <use
                 height="100%"
                 width="100%"
                 y="0"
                 x="0"
                 xlink:href="#C"
                 id="use2655" />
              <path
                 inkscape:connector-curvature="0"
                 d="m 27.17,16.613 h -0.53 l -0.18,1.005 h 0.53 c 0.32,0 0.577,-0.212 0.577,-0.608 A 0.36,0.36 0 0 0 27.17,16.613 Z m -1.286,-0.866 h 1.395 c 0.73,0 1.25,0.435 1.25,1.183 0,0.94 -0.666,1.575 -1.613,1.575 h -0.6 l -0.282,1.594 h -0.908 l 0.768,-4.352"
                 id="path2657" />
              <use
                 height="100%"
                 width="100%"
                 y="0"
                 xlink:href="#C"
                 x="10.811"
                 id="use2659" />
              <path
                 inkscape:connector-curvature="0"
                 d="m 38.54,19.935 c -0.31,0.144 -0.645,0.22 -0.986,0.224 -1.15,0 -1.876,-0.866 -1.876,-1.946 0,-1.382 1.154,-2.547 2.55,-2.547 a 1.88,1.88 0 0 1 0.914,0.224 l -0.128,1.044 c -0.192,-0.212 -0.5,-0.36 -0.883,-0.36 -0.794,0 -1.498,0.718 -1.498,1.54 0,0.635 0.396,1.125 1.024,1.125 0.365,-0.001 0.718,-0.125 1.004,-0.352 l -0.122,1.037 m 5.555,-1.6 H 42.2 l -0.308,1.753 h -0.908 l 0.767,-4.352 h 0.91 l -0.308,1.73 h 1.895 l 0.308,-1.73 h 0.91 l -0.767,4.352 h -0.91 l 0.308,-1.753 m 3.332,1.754 0.768,-4.352 H 50.6 l -0.154,0.866 H 48.95 l -0.154,0.845 h 1.382 l -0.154,0.877 h -1.392 l -0.154,0.877 h 1.504 l -0.154,0.877 h -2.412"
                 id="path2661" />
            </g>
          </g>
        </g>
      </symbol>
    </g>
  </g>
  <style
     id="style898">svg {enable-background:new 0 0 360 360}</style>
  <style
     id="style900">.st0{fill:none}</style>
</svg>
