<?xml version="1.0" encoding="UTF-8" standalone="no"?>
<svg
   xmlns:dc="http://purl.org/dc/elements/1.1/"
   xmlns:cc="http://creativecommons.org/ns#"
   xmlns:rdf="http://www.w3.org/1999/02/22-rdf-syntax-ns#"
   xmlns:svg="http://www.w3.org/2000/svg"
   xmlns="http://www.w3.org/2000/svg"
   xmlns:sodipodi="http://sodipodi.sourceforge.net/DTD/sodipodi-0.dtd"
   xmlns:inkscape="http://www.inkscape.org/namespaces/inkscape"
   sodipodi:docname="drawing-1.svg"
   inkscape:version="1.0beta1 (32d4812, 2019-09-19)"
   inkscape:export-ydpi="96"
   inkscape:export-xdpi="96"
   inkscape:export-filename="/Users/jlim/Downloads/jenkins.png"
   id="svg8"
   version="1.1"
   viewBox="0 0 210 297"
   height="297mm"
   width="210mm">
  <defs
     id="defs2" />
  <sodipodi:namedview
     inkscape:window-maximized="0"
     inkscape:window-y="89"
     inkscape:window-x="195"
     inkscape:window-height="907"
     inkscape:window-width="1600"
     showgrid="false"
     inkscape:document-rotation="0"
     inkscape:current-layer="layer1"
     inkscape:document-units="mm"
     inkscape:cy="712.58777"
     inkscape:cx="592.05849"
     inkscape:zoom="0.98994949"
     inkscape:pageshadow="2"
     inkscape:pageopacity="0.0"
     borderopacity="1.0"
     bordercolor="#666666"
     pagecolor="#ffffff"
     id="base" />
  <metadata
     id="metadata5">
    <rdf:RDF>
      <cc:Work
         rdf:about="">
        <dc:format>image/svg+xml</dc:format>
        <dc:type
           rdf:resource="http://purl.org/dc/dcmitype/StillImage" />
        <dc:title></dc:title>
      </cc:Work>
    </rdf:RDF>
  </metadata>
  <g
     id="layer1"
     inkscape:groupmode="layer"
     inkscape:label="Layer 1">
    <rect
       y="142.72194"
       x="95.147957"
       height="92.763123"
       width="92.763123"
       id="rect843"
       style="opacity:1;fill:#352bb6;fill-opacity:1;stroke-width:0.490871;stop-opacity:1" />
    <path
       inkscape:export-ydpi="96"
       inkscape:export-xdpi="96"
       id="surface1"
       d="m 144.45654,157.32 c -9.28373,0.20173 -14.59379,4.37948 -14.88975,4.61493 -0.23816,0.0762 -6.36855,2.18189 -7.61316,7.66468 -0.19238,0.0762 -0.24662,0.0678 -0.52716,0.23815 -0.56022,0.36783 -1.26029,0.97094 -1.82983,1.94416 -1.08764,1.8478 -1.54286,5.0186 -0.35851,9.94973 -1.64811,1.27147 -2.54065,3.25826 -2.55633,5.35939 -0.0169,2.44429 0.81194,5.00291 2.48463,6.79011 1.49794,1.60336 2.95324,2.29622 4.07453,2.53396 0.43732,0.0941 0.45512,0.007 0.78058,0 0.20171,1.04942 0.96424,4.08792 2.60125,7.24304 -0.94636,0.53395 -3.65516,2.04959 -6.84172,3.89739 -1.7939,1.04272 -3.56542,2.08544 -4.90638,2.90839 -0.66362,0.41953 -1.21766,0.77805 -1.63702,1.06739 a 8.4293197,8.4293197 0 0 0 -0.53395,0.40342 1.7491006,1.7491006 0 0 0 -0.23815,0.21953 c -0.0873,0.10513 -0.26274,0.16611 -0.32292,0.69921 l -0.0899,0.85881 2.66626,6.63094 h 53.15249 l 0.24663,-0.78905 c 0,0 0.61192,-1.94416 1.19968,-4.14173 a 63.41611,63.41611 0 0 0 0.80771,-3.27624 c 0.20849,-1.03373 0.36529,-1.86568 0.32291,-2.62812 -0.0339,-0.43733 -0.17459,-0.59667 -0.28054,-0.76279 a 4.5633587,4.5633587 0 0 0 -0.3585,-0.45512 12.732556,12.732556 0 0 0 -0.97323,-0.95526 60.927005,60.927005 0 0 0 -2.7066,-2.27605 c -1.56972,-1.2536 -2.56761,-1.98909 -3.11698,-2.41065 0.47123,-0.58564 1.48666,-1.64591 2.7828,-4.93113 1.5854,-3.99375 2.99595,-10.06405 2.41064,-18.37676 -0.56022,-7.86649 -3.27623,-13.3425 -7.27897,-16.84519 -3.2425,-2.82101 -7.25422,-4.30997 -11.51037,-4.88849 v -0.0169 c -0.0339,0 -0.0593,0.009 -0.0967,0 a 36.224322,36.224322 0 0 0 -2.95332,-0.26443 34.85195,34.85195 0 0 0 -1.9083,-0.007 z m 2.44421,2.51159 c 0.71786,-0.0423 1.46208,-0.0339 2.2335,0 3.9063,0.53565 7.48976,1.88366 10.31748,4.36371 1.55175,1.35674 2.89272,3.07443 3.96011,5.19353 a 5.9043359,5.9043359 0 0 0 -2.39938,-0.41021 c -1.90162,0.10513 -3.2964,1.00687 -3.2964,1.00687 l 1.20197,1.90161 c 0,0 0.97323,-0.60513 2.20656,-0.66616 1.21087,-0.0593 2.58549,0.25341 3.90858,2.52277 0.44665,1.70651 0.76956,3.58118 0.9283,5.69358 -0.0678,-0.12374 -0.12289,-0.22884 -0.21104,-0.36783 a 81.961061,81.961061 0 0 0 -0.91041,-1.63032 c -0.66617,-1.13909 -1.31402,-2.23343 -1.31402,-2.23343 l -1.92857,1.13918 a 259.39835,259.39835 0 0 0 2.19088,3.80093 c 0.0763,0.13222 0.1229,0.21952 0.17459,0.32546 -0.0967,0.0508 -0.14154,0.0873 -0.35003,0.12968 -0.68396,0.15001 -1.82305,0.13221 -2.91738,-0.19325 l -0.62124,2.16401 c 1.43521,0.41275 2.84787,0.47293 4.00273,0.21952 0.58734,-0.1229 1.1123,-0.30681 1.5765,-0.70177 a 2.1370422,2.1370422 0 0 0 0.40343,-0.49749 c 0.20849,6.89326 -1.01806,11.93872 -2.33886,15.30241 -1.46429,3.69551 -2.97799,5.30786 -2.97799,5.30786 l -0.84075,0.9194 v 0.009 c -1.22655,1.19968 -4.01393,3.31877 -8.72529,3.66186 -6.55238,0.48224 -11.03728,-3.61703 -13.2012,-5.92004 -2.06757,-2.19088 -2.35454,-3.86374 -2.35454,-3.86374 l -2.20885,0.428 c 0,0 0.51615,2.40836 2.93535,4.97596 0.96425,1.02476 2.44429,2.43531 4.36159,3.7045 -0.14155,0.009 -0.28901,-0.009 -0.43733,0.0169 -0.87677,0.14832 -1.74457,0.55174 -2.34784,1.29613 -3.17979,-0.18391 -5.41321,-1.10332 -6.83266,-2.02272 -1.52488,-0.99789 -2.10341,-1.8567 -2.11909,-1.88366 -1.49802,-2.4353 -2.38377,-5.85273 -2.74254,-7.4628 0.60514,-0.30765 1.35664,-0.85888 2.13706,-1.81414 l -1.74236,-1.41945 c -0.61447,0.74414 -1.12121,1.08755 -1.44641,1.25579 l -0.0169,0.007 -0.56022,0.17459 c 0,0 -0.21782,0.0967 -0.88355,-0.0423 -0.66616,-0.13901 -1.68176,-0.56023 -2.90841,-1.87246 -1.18179,-1.2625 -1.90161,-3.34794 -1.88364,-5.22938 0.0169,-1.89263 0.70176,-3.41743 1.98009,-4.06555 l 0.0339,-0.0254 c 1.51362,-0.84076 2.52269,-0.95296 3.20665,-0.81363 0.68142,0.14154 1.15485,0.53394 1.55624,1.10332 0.81618,1.14807 1.05401,2.87475 1.05401,2.87475 l 0.15679,1.39029 4.54541,-1.56743 -0.11191,-0.90144 c 0,0 -0.21273,-1.54954 -0.87906,-3.45116 -0.41021,-1.14806 -0.22629,-2.6371 0.21103,-4.17758 0.43055,-1.54285 1.06968,-3.06545 1.33208,-4.46024 0.28054,-1.47107 -0.0763,-2.52277 -0.48225,-3.24029 0.80685,-1.62804 5.09928,-9.36442 15.37412,-9.94972 z m -9.81065,0.88577 a 22.931158,22.931158 0 0 0 -7.15786,7.34846 l -0.3051,0.0339 c -2.07655,0.19324 -3.87273,0.52463 -5.22268,0.81363 1.56073,-3.31877 5.99182,-4.91315 5.99182,-4.91315 l 0.20171,-0.0678 0.15679,-0.13221 c 0,0 2.20876,-1.82086 6.33482,-3.08334 z m 5.18455,8.76792 c -2.34785,0.12289 -3.95121,1.28935 -4.80782,2.59447 -1.15705,1.74237 -1.21764,3.6327 -1.21764,3.6327 l 2.2335,0.12374 c 0,0 0.0967,-1.3836 0.84991,-2.52277 0.75345,-1.13688 1.90831,-2.12807 5.01851,-1.40148 l 0.51615,-2.1797 a 9.2119298,9.2119298 0 0 0 -2.59227,-0.24662 z m -13.01738,0.94627 c 0.45767,0.50936 0.81618,0.77125 0.55344,2.17291 -0.18391,0.98 -0.82549,2.55642 -1.30503,4.2831 -0.47293,1.71771 -0.81618,3.65288 -0.1568,5.51864 0.41954,1.19071 0.45258,1.63693 0.54073,2.13028 l -0.38308,0.12967 c -0.14155,-0.77125 -0.11442,-1.4464 -0.96425,-2.64608 -0.63904,-0.89254 -1.61234,-1.73347 -2.96002,-2.00476 -1.00017,-0.20172 -2.13934,-0.0678 -3.41751,0.428 -0.88347,-4.13513 -0.31359,-6.36855 0.36783,-7.5234 0.36783,-0.64158 0.78905,-0.99119 1.09434,-1.18401 a 1.6504333,1.6504333 0 0 1 0.43054,-0.21781 h 0.0169 c 0,0 3.06545,-0.71786 6.18242,-1.08756 z m 17.93952,5.12395 -2.06528,0.86787 c 0,0 1.52481,3.61032 2.52948,5.38633 -0.0678,0.0423 -0.0763,0.0678 -0.31359,0.1229 -0.75345,0.16612 -2.19088,0.0898 -3.81891,-0.62125 l -0.90372,2.05858 c 1.99806,0.8656 3.81221,1.05841 5.19572,0.75346 0.69075,-0.15002 1.32309,-0.40343 1.7783,-0.98221 0.46445,-0.57887 0.50683,-1.55853 0.11192,-2.20656 -0.70007,-1.16604 -2.51159,-5.37963 -2.51159,-5.37963 z m 8.68274,1.34096 -2.24249,0.0254 c 0,0 0.0593,5.3348 4.33463,9.20525 h -0.008 c 1.79617,1.63023 2.54963,2.69092 2.67304,3.06535 0.0593,0.19324 0.0423,0.1746 0.008,0.24664 a 1.9015863,1.9015863 0 0 1 -0.42207,0.48903 c -0.33138,0.29832 -1.64591,0.95525 -3.06536,1.3858 -1.41945,0.42801 -3.01384,0.70855 -4.0207,0.68142 -0.37632,-0.0169 -0.43056,-0.0873 -0.49072,-0.14832 -0.0678,-0.0678 -0.13901,-0.21951 -0.1746,-0.45512 -0.0678,-0.46445 0.0593,-1.06069 0.0593,-1.06069 l -2.17968,-0.55175 c 0,0 -0.25595,0.90144 -0.0967,1.94416 0.0762,0.52716 0.26866,1.13019 0.74414,1.6482 0.48224,0.51615 1.24231,0.84076 2.07645,0.8656 1.43522,0.0339 3.14393,-0.2958 4.72933,-0.77805 1.58541,-0.48224 2.98689,-1.02484 3.91527,-1.86576 0.36783,-0.33393 0.73566,-0.71109 0.97323,-1.24453 0.23561,-0.53394 0.26866,-1.22663 0.0763,-1.84778 -0.40344,-1.22665 -1.41945,-2.32098 -3.3031,-4.03869 -3.52056,-3.18867 -3.59006,-7.56822 -3.59006,-7.56822 z m -33.25981,7.37763 c -0.71786,0.0423 -1.47336,0.36528 -2.15503,0.92618 l 1.26029,1.5159 c -0.30682,0.91933 -0.61193,2.26928 -0.35852,3.66187 l 2.20656,-0.40344 c -0.12119,-0.66616 0.0593,-1.56963 0.26274,-2.32089 0.28054,0.56955 0.50005,1.13019 0.50005,1.13019 l 2.16401,-0.56954 c 0,0 -0.32546,-1.36792 -1.19978,-2.52277 -0.44834,-0.57887 -1.06958,-1.17502 -1.98001,-1.36792 a 2.3478312,2.3478312 0 0 0 -0.70176,-0.0508 z m 39.46013,8.63341 c -1.70872,1.93747 -4.83468,2.19987 -4.83468,2.19987 l 0.12968,2.2424 c 0,0 3.90857,-0.12968 6.38651,-2.96899 z m -15.04681,0.79838 -1.42165,1.73566 c 4.75841,3.86146 10.5036,2.20656 10.5036,2.20656 l -0.62126,-2.14604 c 0,0 -4.63517,1.30512 -8.46297,-1.7939 z m -0.62378,3.59236 -2.16393,0.61192 c 0.43733,1.55845 1.5248,2.67296 2.75823,3.36361 1.22654,0.69329 2.61913,1.01586 3.93315,1.19071 2.62821,0.34325 5.0119,0.0169 5.0119,0.0169 l -0.29155,-2.22453 c 0,0 -2.16173,0.28054 -4.42211,-0.0169 -1.13908,-0.13899 -2.27605,-0.43733 -3.14384,-0.91932 -0.85889,-0.49157 -1.42844,-1.08536 -1.68185,-2.02273 z m 15.28445,7.17363 c 0.56022,0.428 1.51591,1.13018 3.03181,2.33885 0.95525,0.76194 1.9083,1.54946 2.60116,2.1819 a 11.66067,11.66067 0 0 1 0.8077,0.79583 l 0.0423,0.0423 c -0.008,0.28731 -0.0678,0.96425 -0.25341,1.83882 -0.20172,0.96424 -0.49327,2.09222 -0.77126,3.16181 -0.47293,1.72668 -0.78058,2.72457 -0.94628,3.26725 h -2.6371 l -0.0763,-0.63904 c -0.0967,-0.8589 -0.56022,-1.38361 -1.03162,-1.74237 0.0856,-0.16781 0.20002,-0.32545 0.25087,-0.49326 0.23731,-0.69074 0.30682,-1.41724 0.30682,-2.12587 0.0169,-1.42844 -0.23562,-2.86578 -0.33224,-3.65517 -0.15001,-1.28715 -0.63905,-2.39038 -1.46437,-3.14385 a 3.7964454,3.7964454 0 0 0 -0.96424,-0.60514 c 0.59666,-0.4441 1.08764,-0.87457 1.43742,-1.22434 z m -34.15228,1.23333 c 0.34072,0.78905 0.93729,1.98899 2.46887,3.97807 2.15503,2.80306 5.71154,3.78517 7.38441,4.09919 0.0967,1.04273 0.21952,2.04061 0.49327,2.94425 0.13899,0.48225 0.33901,0.94637 0.61192,1.37462 h -22.27636 l -1.8567,-4.6261 c 0.0593,-0.0423 0.0762,-0.0593 0.14832,-0.10344 0.35003,-0.24664 0.89474,-0.59667 1.55176,-0.99119 a 189.3065,189.3065 0 0 1 4.83475,-2.88155 c 3.08334,-1.78719 5.52754,-3.1618 6.63756,-3.79195 z m 30.9725,1.96433 c 0.53564,-0.10514 0.87457,0.009 1.19968,0.30511 0.32546,0.29155 0.64159,0.85212 0.74499,1.73559 0.10513,0.91041 0.32546,2.2335 0.31613,3.38158 0,0.56954 -0.0678,1.08535 -0.17459,1.41055 -0.11191,0.33223 -0.22884,0.43732 -0.35003,0.4975 -0.89475,0.45513 -2.53396,0.3585 -3.92427,0.0169 a 16.082756,16.082756 0 0 1 -1.63023,-0.50937 c 0.13222,-0.35003 0.21951,-0.72633 0.21951,-1.12121 0,-0.99788 -0.46445,-1.88364 -1.17501,-2.49581 0.75345,-0.59413 1.5787,-1.2513 2.4353,-1.8567 a 21.975879,21.975879 0 0 1 1.48895,-0.9733 c 0.43987,-0.2441 0.81618,-0.38309 0.8522,-0.39242 z m -26.84644,0.4458 a 16.320454,16.320454 0 0 0 5.44914,1.51591 6.5254908,6.5254908 0 0 0 0.0169,1.16611 c 0.0254,0.19071 0.0339,0.37462 0.0508,0.57633 -1.55175,-0.41275 -4.02968,-1.26918 -5.4043,-3.05639 -0.0984,-0.12373 -0.0254,-0.0762 -0.11442,-0.20171 z m 9.87124,0.21104 a 9.3733852,9.3733852 0 0 1 3.25827,0.91932 l 4.1619,2.173 c -0.42122,0.55174 -0.68396,1.23333 -0.68396,1.96882 0,0.59667 0.1746,1.14815 0.45513,1.63702 -1.47099,0.84329 -4.31887,2.30521 -6.66671,2.48005 -0.76956,0.0508 -1.13697,-0.0873 -1.39031,-0.28053 -0.24662,-0.1924 -0.46613,-0.53395 -0.64157,-1.13689 -0.35851,-1.21095 -0.40343,-3.26724 -0.66617,-5.55458 -0.11191,-0.91041 0.0508,-1.38351 0.24664,-1.65489 0.20171,-0.27121 0.4975,-0.44835 1.01576,-0.52717 0.26274,-0.0423 0.56955,-0.0508 0.91051,-0.0254 z m 11.23908,0.48903 c -0.35172,0.27121 -0.78905,0.58734 -1.06968,0.80769 0.10514,-0.0762 -0.289,0.0873 -0.68396,0.0763 a 3.0048653,3.0048653 0 0 1 -0.58564,-0.0423 l -1.19299,-0.62125 c 0.67464,0.0423 1.36783,0.0423 2.08545,-0.008 0.51615,-0.0339 0.96423,-0.12968 1.44639,-0.21104 z m -1.184,3.50498 c 0.60513,0 1.07637,0.46444 1.07637,1.06739 0,0.60513 -0.47124,1.06966 -1.07637,1.06966 a 1.0584301,1.0584301 0 0 1 -1.07638,-1.06966 c 0,-0.60515 0.47124,-1.06739 1.07638,-1.06739 z m 1.86567,4.07224 c 0.35173,0.15679 1.00009,0.45512 2.21775,0.76278 v 0.94627 h -3.87264 l -0.73566,-1.4531 c 0.17458,0.0254 0.35003,0.0508 0.52462,0.0508 0.0679,0 0.13221,-0.0169 0.20172,-0.0169 0.3585,0.11442 0.70176,0.19324 0.97321,0.11442 0.41954,-0.13222 0.44581,-0.22884 0.69075,-0.40343 z m 7.24304,0.83228 v 0.0339 c 0,0 0.53818,0.22882 0.56022,0.45512 l 0.0423,0.38563 h -3.38827 v -0.56022 c 0.9194,0.0678 1.87466,0.008 2.78508,-0.31359 z m -11.72794,0.26443 0.31613,0.61191 h -1.50692 c 0.43055,-0.21103 0.84076,-0.42122 1.1907,-0.61191 z"
       inkscape:connector-curvature="0"
       style="opacity:1;fill:#ffffff;stroke-width:2.24244;stop-opacity:1" />
  </g>
</svg>
