<?xml version="1.0" encoding="UTF-8" standalone="no"?>
<svg
   xmlns:dc="http://purl.org/dc/elements/1.1/"
   xmlns:cc="http://creativecommons.org/ns#"
   xmlns:rdf="http://www.w3.org/1999/02/22-rdf-syntax-ns#"
   xmlns:svg="http://www.w3.org/2000/svg"
   xmlns="http://www.w3.org/2000/svg"
   xmlns:sodipodi="http://sodipodi.sourceforge.net/DTD/sodipodi-0.dtd"
   xmlns:inkscape="http://www.inkscape.org/namespaces/inkscape"
   sodipodi:docname="goharbor.svg"
   inkscape:version="1.0beta1 (32d4812, 2019-09-19)"
   inkscape:export-ydpi="96"
   inkscape:export-xdpi="96"
   inkscape:export-filename="/Users/jlim/Downloads/jenkins.png"
   id="svg8"
   version="1.1"
   viewBox="0 0 92.763123 92.763123"
   height="92.763123mm"
   width="92.763123mm">
  <defs
     id="defs2" />
  <sodipodi:namedview
     fit-margin-bottom="0"
     fit-margin-right="0"
     fit-margin-left="0"
     fit-margin-top="0"
     inkscape:window-maximized="0"
     inkscape:window-y="89"
     inkscape:window-x="195"
     inkscape:window-height="907"
     inkscape:window-width="1600"
     showgrid="false"
     inkscape:document-rotation="0"
     inkscape:current-layer="layer1"
     inkscape:document-units="mm"
     inkscape:cy="405.93977"
     inkscape:cx="483.32426"
     inkscape:zoom="0.7"
     inkscape:pageshadow="2"
     inkscape:pageopacity="0.0"
     borderopacity="1.0"
     bordercolor="#666666"
     pagecolor="#ffffff"
     id="base" />
  <metadata
     id="metadata5">
    <rdf:RDF>
      <cc:Work
         rdf:about="">
        <dc:format>image/svg+xml</dc:format>
        <dc:type
           rdf:resource="http://purl.org/dc/dcmitype/StillImage" />
        <dc:title></dc:title>
      </cc:Work>
    </rdf:RDF>
  </metadata>
  <g
     id="layer1"
     inkscape:groupmode="layer"
     inkscape:label="Layer 1">
    <rect
       y="0"
       x="0"
       height="92.763123"
       width="92.763123"
       id="rect843"
       style="opacity:1;fill:#666574;fill-opacity:1;stroke-width:0.490871;stop-opacity:1" />
    <g
       style="opacity:1;fill:#808000;stroke:#000000;stroke-width:1.00104;stroke-miterlimit:4;stroke-dasharray:1.00104, 1.00104;stroke-dashoffset:0;stroke-opacity:1"
       transform="matrix(0.21068393,0,0,0.21068393,8.4130977,8.6176853)"
       id="g927">
      <path
         style="fill:#ffffff;stroke:none;stroke-width:1.00104;stroke-miterlimit:4;stroke-dasharray:1.00104, 1.00104;stroke-dashoffset:0;stroke-opacity:1"
         inkscape:connector-curvature="0"
         d="m 111.485,207.424 57.2,25.206 -3.944,-48.237 h 7.486 v -16.118 h -5.554 v -32.892 h 5.554 v -9.455 l -30.85,-30.187 v -2.124 a 2.92,2.92 0 0 0 -2.911,-2.911 2.92,2.92 0 0 0 -2.912,2.911 v 2.124 l -30.851,30.187 v 9.455 h 5.555 v 32.892 h -5.555 v 16.118 h 8.82 l -2.038,23.03 z m 7.703,-72.041 h 38.554 v 32.892 h -9.15 v -14.05 c 0,-5.57 -4.555,-10.129 -10.126,-10.129 -5.571,0 -10.129,4.558 -10.129,10.13 v 14.049 h -9.15 v -32.892 z m -11.053,109.897 63.888,28.156 -0.959,-11.725 -61.968,-27.305 z m -0.712,8.056 -0.963,10.873 67.23,29.628 -0.956,-11.72 z m 3.35,-37.859 -0.963,10.877 60.544,26.677 -0.958,-11.721 z"
         id="path906" />
      <path
         style="fill:#ffffff;fill-opacity:1;stroke:#ffffff;stroke-width:1.00104;stroke-miterlimit:4;stroke-dasharray:1.00104, 1.00104;stroke-dashoffset:0;stroke-opacity:1"
         inkscape:connector-curvature="0"
         d="m 347.924,219.235 c 0.058,-0.242 0.121,-0.481 0.178,-0.724 a 170.624,170.624 0 0 0 4.232,-46.903 l -23.994,-1.722 -7.185,-0.516 -147.465,-10.583 144.67,50.191 2.098,0.728 c -14.079,63.474 -70.785,111.1 -138.436,111.1 -2.057,0 -4.101,-0.054 -6.137,-0.141 l -1.484,-18.147 -68.654,-30.253 -2.194,24.795 C 65.39,271.616 40.193,228.188 40.193,178.981 c 0,-78.202 63.626,-141.824 141.83,-141.824 27.466,0 53.106,7.887 74.85,21.463 l -0.843,0.877 -82.34,85.632 113.38,-58.677 c 6.342,7.354 11.98,15.323 16.727,23.868 0.096,0.172 0.178,0.354 0.274,0.53 l -128.148,41.18 141.98,-4.834 a 140.97,140.97 0 0 1 3.252,22.173 l 7.185,0.516 23.994,1.722 A 170.382,170.382 0 0 0 349.196,146.129 169.426,169.426 0 0 0 333.45,101.409 171.283,171.283 0 0 0 314.368,72.325 172.142,172.142 0 0 0 278.11,38.89 C 277.655,38.578 277.2,38.264 276.742,37.957 249.579,19.715 216.915,9.059 181.808,9.059 c -94.14,0 -170.727,76.587 -170.727,170.726 0,94.139 76.587,170.727 170.727,170.727 80.563,0 148.264,-56.095 166.116,-131.276 z"
         id="path908" />
      <path
         style="fill:#ffffff;stroke:none;stroke-width:1.00104;stroke-miterlimit:4;stroke-dasharray:1.00104, 1.00104;stroke-dashoffset:0;stroke-opacity:1"
         inkscape:connector-curvature="0"
         d="M 181.808,5.058 C 85.463,5.058 7.08,83.439 7.08,179.784 c 0,96.345 78.382,174.727 174.727,174.727 96.345,0 174.726,-78.382 174.726,-174.727 C 356.533,83.439 278.152,5.058 181.808,5.058 Z M 11.08,179.784 C 11.08,85.645 87.667,9.058 181.807,9.058 c 35.107,0 67.77,10.656 94.934,28.898 0.458,0.307 0.913,0.62 1.368,0.933 a 172.142,172.142 0 0 1 36.258,33.437 171.283,171.283 0 0 1 19.082,29.083 169.426,169.426 0 0 1 15.746,44.721 170.382,170.382 0 0 1 3.138,25.478 170.624,170.624 0 0 1 -4.233,46.903 c -0.056,0.243 -0.12,0.482 -0.177,0.724 -17.852,75.181 -85.553,131.276 -166.116,131.276 -94.14,0 -170.727,-76.588 -170.727,-170.727 z"
         id="path910" />
    </g>
  </g>
  <style
     id="style898">svg {enable-background:new 0 0 360 360}</style>
  <style
     id="style900">.st0{fill:none}</style>
</svg>
