<?xml version="1.0" encoding="UTF-8" standalone="no"?>
<svg
   xmlns:dc="http://purl.org/dc/elements/1.1/"
   xmlns:cc="http://creativecommons.org/ns#"
   xmlns:rdf="http://www.w3.org/1999/02/22-rdf-syntax-ns#"
   xmlns:svg="http://www.w3.org/2000/svg"
   xmlns="http://www.w3.org/2000/svg"
   xmlns:sodipodi="http://sodipodi.sourceforge.net/DTD/sodipodi-0.dtd"
   xmlns:inkscape="http://www.inkscape.org/namespaces/inkscape"
   sodipodi:docname="hashiconsul.svg"
   inkscape:version="1.0beta1 (32d4812, 2019-09-19)"
   inkscape:export-ydpi="96"
   inkscape:export-xdpi="96"
   inkscape:export-filename="/Users/jlim/Downloads/jenkins.png"
   id="svg8"
   version="1.1"
   viewBox="0 0 92.763123 92.763123"
   height="92.763123mm"
   width="92.763123mm">
  <defs
     id="defs2">
    <path
       id="a"
       d="M37.6 36.8c1.2 0 2.1-1 2.1-2.1s-.9-2.1-2.1-2.1-2.1 1-2.1 2.1.9 2.1 2.1 2.1zM31.3 31c1.2 0 2.1-1 2.1-2.1 0-1.2-.9-2.1-2.1-2.1-1.2 0-2.1 1-2.1 2.1 0 1.2.9 2.1 2.1 2.1zm6.3 0c1.2 0 2.1-1 2.1-2.1 0-1.2-.9-2.1-2.1-2.1s-2.1 1-2.1 2.1c0 1.2.9 2.1 2.1 2.1zm6.3 0c1.2 0 2.1-1 2.1-2.1 0-1.2-.9-2.1-2.1-2.1-1.2 0-2.1 1-2.1 2.1 0 1.2 1 2.1 2.1 2.1zm-12.6-5.7c1.2 0 2.1-1 2.1-2.1 0-1.2-.9-2.1-2.1-2.1-1.2 0-2.1 1-2.1 2.1 0 1.2.9 2.1 2.1 2.1zm6.3 0c1.2 0 2.1-1 2.1-2.1 0-1.2-.9-2.1-2.1-2.1s-2.1 1-2.1 2.1c0 1.2.9 2.1 2.1 2.1zm6.3 0c1.2 0 2.1-1 2.1-2.1 0-1.2-.9-2.1-2.1-2.1-1.2 0-2.1 1-2.1 2.1 0 1.2 1 2.1 2.1 2.1zm-6.3-5.7c1.2 0 2.1-1 2.1-2.1 0-1.2-.9-2.1-2.1-2.1s-2.1 1-2.1 2.1.9 2.1 2.1 2.1zm6.3 0c1.2 0 2.1-1 2.1-2.1 0-1.2-.9-2.1-2.1-2.1-1.2 0-2.1 1-2.1 2.1s1 2.1 2.1 2.1zm-12.6 0c1.2 0 2.1-1 2.1-2.1 0-1.2-.9-2.1-2.1-2.1-1.2 0-2.1 1-2.1 2.1s.9 2.1 2.1 2.1zM36.8 72L0 0h73.6L36.8 72z" />
  </defs>
  <sodipodi:namedview
     fit-margin-bottom="0"
     fit-margin-right="0"
     fit-margin-left="0"
     fit-margin-top="0"
     inkscape:window-maximized="0"
     inkscape:window-y="89"
     inkscape:window-x="195"
     inkscape:window-height="907"
     inkscape:window-width="1600"
     showgrid="false"
     inkscape:document-rotation="0"
     inkscape:current-layer="layer1"
     inkscape:document-units="mm"
     inkscape:cy="257.79444"
     inkscape:cx="322.3682"
     inkscape:zoom="0.98994949"
     inkscape:pageshadow="2"
     inkscape:pageopacity="0.0"
     borderopacity="1.0"
     bordercolor="#666666"
     pagecolor="#ffffff"
     id="base" />
  <metadata
     id="metadata5">
    <rdf:RDF>
      <cc:Work
         rdf:about="">
        <dc:format>image/svg+xml</dc:format>
        <dc:type
           rdf:resource="http://purl.org/dc/dcmitype/StillImage" />
        <dc:title></dc:title>
      </cc:Work>
    </rdf:RDF>
  </metadata>
  <g
     id="layer1"
     inkscape:groupmode="layer"
     inkscape:label="Layer 1">
    <rect
       y="0"
       x="0"
       height="92.763123"
       width="92.763123"
       id="rect843"
       style="opacity:1;fill:#4e6d8b;fill-opacity:1;stroke-width:0.490871;stop-opacity:1" />
    <g
       style="fill:#ffffff;fill-opacity:1"
       transform="matrix(0.96287362,0,0,0.96287362,13.844892,14.329388)"
       id="Isolation_Mode">
      <path
         style="fill:#ffffff;fill-opacity:1"
         inkscape:connector-curvature="0"
         class="st0"
         d="m 59.1,40.3 c -0.4,1.5 -1.8,2.3 -3.3,2 -1.5,-0.4 -2.3,-1.8 -2,-3.3 0.4,-1.5 1.8,-2.3 3.3,-2 1.4,0.4 2.3,1.7 2,3.1 0.1,0 0.1,0.1 0,0.2 z m -1.9,-8.8 c -1.5,0.3 -2.9,-0.6 -3.3,-2 -0.3,-1.5 0.6,-2.9 2,-3.3 1.5,-0.3 2.9,0.6 3.3,2 0.1,0.4 0.1,0.7 0,1.1 -0.1,1 -0.9,1.9 -2,2.2 z"
         id="path1177" />
      <path
         style="fill:#ffffff;fill-opacity:1"
         inkscape:connector-curvature="0"
         id="XMLID_12_"
         class="st0"
         d="m 47.7,36.6 c -1.5,0 -2.7,-1.2 -2.7,-2.7 0,-1.5 1.2,-2.7 2.7,-2.7 1.5,0 2.7,1.2 2.7,2.7 0,1.5 -1.2,2.7 -2.7,2.7 z" />
      <path
         style="fill:#ffffff;fill-opacity:1"
         inkscape:connector-curvature="0"
         id="XMLID_11_"
         class="st0"
         d="m 33.9,41 c -3.9,0 -7.1,-3.2 -7.1,-7.1 0,-3.9 3.2,-7.1 7.1,-7.1 3.9,0 7.1,3.2 7.1,7.1 0,4 -3.2,7.1 -7.1,7.1 z" />
      <path
         style="fill:#ffffff;fill-opacity:1"
         inkscape:connector-curvature="0"
         id="XMLID_10_"
         class="st0"
         d="M 34,68 C 29.4,68 25,67.1 20.8,65.3 16.7,63.6 13.1,61.1 10,58 6.9,54.9 4.4,51.2 2.7,47.2 0.9,43 0,38.6 0,34 0,29.4 0.9,25 2.7,20.8 4.4,16.7 6.9,13.1 10,10 13.1,6.9 16.8,4.4 20.8,2.7 25,0.9 29.4,0 34,0 c 3.8,0 7.5,0.6 11.1,1.8 3.4,1.2 6.7,3 9.6,5.2 1,0.8 1.2,2.1 0.4,3.1 -0.8,1 -2.1,1.2 -3.1,0.4 C 46.8,6.5 40.6,4.4 34.1,4.4 26.2,4.4 18.8,7.5 13.2,13 7.6,18.6 4.6,26 4.6,33.9 c 0,7.9 3.1,15.3 8.6,20.9 5.6,5.6 13,8.6 20.9,8.6 6.6,0 12.8,-2.1 17.9,-6.1 1,-0.8 2.4,-0.6 3.1,0.4 0.7,1 0.6,2.4 -0.4,3.1 -2.9,2.2 -6.1,4 -9.6,5.1 C 41.5,67.4 37.8,68 34,68 Z" />
      <path
         style="fill:#ffffff;fill-opacity:1"
         inkscape:connector-curvature="0"
         class="st0"
         d="m 68.4,39.9 c -0.2,1.5 -1.7,2.5 -3.2,2.2 -1.5,-0.2 -2.5,-1.7 -2.2,-3.2 0.2,-1.5 1.7,-2.5 3.2,-2.2 1.4,0.2 2.4,1.5 2.3,2.9 0,0.2 -0.1,0.2 -0.1,0.3 z m -2.2,-8.6 c -1.5,0.2 -2.9,-0.8 -3.1,-2.2 -0.2,-1.5 0.8,-2.9 2.2,-3.1 1.5,-0.2 2.9,0.8 3.1,2.2 0,0.2 0.1,0.5 0,0.7 0,1.2 -0.9,2.2 -2.2,2.4 z M 63.5,51 c -0.8,1.3 -2.4,1.8 -3.7,1 -1.3,-0.8 -1.8,-2.4 -1,-3.7 0.8,-1.3 2.4,-1.8 3.7,-1 0.9,0.5 1.5,1.6 1.4,2.6 0,0.4 -0.1,0.8 -0.4,1.1 z M 62.6,20.8 c -1.3,0.7 -3,0.3 -3.7,-1 -0.7,-1.3 -0.3,-3 1,-3.7 1.3,-0.7 3,-0.3 3.7,1 0.3,0.5 0.4,1 0.3,1.6 0,0.8 -0.5,1.6 -1.3,2.1 z"
         id="path1182" />
    </g>
  </g>
  <style
     id="style898">svg {enable-background:new 0 0 360 360}</style>
  <style
     id="style900">.st0{fill:none}</style>
  <style
     id="style1088">.st0{fill:#000}</style>
  <style
     id="style1126">.st0{fill-rule:evenodd;clip-rule:evenodd;fill:#000}</style>
  <style
     id="style1175">.st0{fill:#000}</style>
</svg>
