<?xml version="1.0" encoding="UTF-8" standalone="no"?>
<svg
   xmlns:dc="http://purl.org/dc/elements/1.1/"
   xmlns:cc="http://creativecommons.org/ns#"
   xmlns:rdf="http://www.w3.org/1999/02/22-rdf-syntax-ns#"
   xmlns:svg="http://www.w3.org/2000/svg"
   xmlns="http://www.w3.org/2000/svg"
   xmlns:sodipodi="http://sodipodi.sourceforge.net/DTD/sodipodi-0.dtd"
   xmlns:inkscape="http://www.inkscape.org/namespaces/inkscape"
   sodipodi:docname="hashiterraform.svg"
   inkscape:version="1.0beta1 (32d4812, 2019-09-19)"
   inkscape:export-ydpi="96"
   inkscape:export-xdpi="96"
   inkscape:export-filename="/Users/jlim/Downloads/jenkins.png"
   id="svg8"
   version="1.1"
   viewBox="0 0 92.763123 92.763123"
   height="92.763123mm"
   width="92.763123mm">
  <defs
     id="defs2">
    <path
       id="a"
       d="M37.6 36.8c1.2 0 2.1-1 2.1-2.1s-.9-2.1-2.1-2.1-2.1 1-2.1 2.1.9 2.1 2.1 2.1zM31.3 31c1.2 0 2.1-1 2.1-2.1 0-1.2-.9-2.1-2.1-2.1-1.2 0-2.1 1-2.1 2.1 0 1.2.9 2.1 2.1 2.1zm6.3 0c1.2 0 2.1-1 2.1-2.1 0-1.2-.9-2.1-2.1-2.1s-2.1 1-2.1 2.1c0 1.2.9 2.1 2.1 2.1zm6.3 0c1.2 0 2.1-1 2.1-2.1 0-1.2-.9-2.1-2.1-2.1-1.2 0-2.1 1-2.1 2.1 0 1.2 1 2.1 2.1 2.1zm-12.6-5.7c1.2 0 2.1-1 2.1-2.1 0-1.2-.9-2.1-2.1-2.1-1.2 0-2.1 1-2.1 2.1 0 1.2.9 2.1 2.1 2.1zm6.3 0c1.2 0 2.1-1 2.1-2.1 0-1.2-.9-2.1-2.1-2.1s-2.1 1-2.1 2.1c0 1.2.9 2.1 2.1 2.1zm6.3 0c1.2 0 2.1-1 2.1-2.1 0-1.2-.9-2.1-2.1-2.1-1.2 0-2.1 1-2.1 2.1 0 1.2 1 2.1 2.1 2.1zm-6.3-5.7c1.2 0 2.1-1 2.1-2.1 0-1.2-.9-2.1-2.1-2.1s-2.1 1-2.1 2.1.9 2.1 2.1 2.1zm6.3 0c1.2 0 2.1-1 2.1-2.1 0-1.2-.9-2.1-2.1-2.1-1.2 0-2.1 1-2.1 2.1s1 2.1 2.1 2.1zm-12.6 0c1.2 0 2.1-1 2.1-2.1 0-1.2-.9-2.1-2.1-2.1-1.2 0-2.1 1-2.1 2.1s.9 2.1 2.1 2.1zM36.8 72L0 0h73.6L36.8 72z" />
  </defs>
  <sodipodi:namedview
     fit-margin-bottom="0"
     fit-margin-right="0"
     fit-margin-left="0"
     fit-margin-top="0"
     inkscape:window-maximized="0"
     inkscape:window-y="89"
     inkscape:window-x="195"
     inkscape:window-height="907"
     inkscape:window-width="1600"
     showgrid="false"
     inkscape:document-rotation="0"
     inkscape:current-layer="layer1"
     inkscape:document-units="mm"
     inkscape:cy="643.66988"
     inkscape:cx="375.09601"
     inkscape:zoom="0.49497475"
     inkscape:pageshadow="2"
     inkscape:pageopacity="0.0"
     borderopacity="1.0"
     bordercolor="#666666"
     pagecolor="#ffffff"
     id="base" />
  <metadata
     id="metadata5">
    <rdf:RDF>
      <cc:Work
         rdf:about="">
        <dc:format>image/svg+xml</dc:format>
        <dc:type
           rdf:resource="http://purl.org/dc/dcmitype/StillImage" />
        <dc:title></dc:title>
      </cc:Work>
    </rdf:RDF>
  </metadata>
  <g
     id="layer1"
     inkscape:groupmode="layer"
     inkscape:label="Layer 1">
    <rect
       y="0"
       x="0"
       height="92.763123"
       width="92.763123"
       id="rect843"
       style="opacity:1;fill:#4e6d8b;fill-opacity:1;stroke-width:0.490871;stop-opacity:1" />
    <g
       style="fill:#ffffff;fill-opacity:1"
       transform="matrix(0.85038769,0,0,0.85038769,16.012982,13.937033)"
       id="XMLID_8_">
      <path
         style="fill:#ffffff;fill-opacity:1"
         inkscape:connector-curvature="0"
         id="XMLID_21_"
         class="st0"
         d="M 25.4,14.3 46.8,26.7 V 51.4 L 25.4,39 Z" />
      <path
         style="fill:#ffffff;fill-opacity:1"
         inkscape:connector-curvature="0"
         id="XMLID_20_"
         class="st0"
         d="M 50.6,26.7 72,14.3 V 39 L 50.6,51.4 Z" />
      <path
         style="fill:#ffffff;fill-opacity:1"
         inkscape:connector-curvature="0"
         id="XMLID_19_"
         class="st0"
         d="M 0,0 21.4,12.4 V 37.1 L 0,24.7 Z" />
      <path
         style="fill:#ffffff;fill-opacity:1"
         inkscape:connector-curvature="0"
         id="XMLID_18_"
         class="st0"
         d="M 25.4,43.7 46.8,56 V 80.8 L 25.4,68.4 Z" />
    </g>
  </g>
  <style
     id="style898">svg {enable-background:new 0 0 360 360}</style>
  <style
     id="style900">.st0{fill:none}</style>
  <style
     id="style1088">.st0{fill:#000}</style>
</svg>
