<?xml version="1.0" encoding="UTF-8" standalone="no"?>
<svg
   xmlns:dc="http://purl.org/dc/elements/1.1/"
   xmlns:cc="http://creativecommons.org/ns#"
   xmlns:rdf="http://www.w3.org/1999/02/22-rdf-syntax-ns#"
   xmlns:svg="http://www.w3.org/2000/svg"
   xmlns="http://www.w3.org/2000/svg"
   xmlns:sodipodi="http://sodipodi.sourceforge.net/DTD/sodipodi-0.dtd"
   xmlns:inkscape="http://www.inkscape.org/namespaces/inkscape"
   sodipodi:docname="jenkins.svg"
   inkscape:version="1.0beta1 (32d4812, 2019-09-19)"
   inkscape:export-ydpi="96"
   inkscape:export-xdpi="96"
   inkscape:export-filename="/Users/jlim/Downloads/jenkins.png"
   id="svg8"
   version="1.1"
   viewBox="0 0 92.763123 92.763123"
   height="92.763123mm"
   width="92.763123mm">
  <defs
     id="defs2">
    <path
       id="a"
       d="M37.6 36.8c1.2 0 2.1-1 2.1-2.1s-.9-2.1-2.1-2.1-2.1 1-2.1 2.1.9 2.1 2.1 2.1zM31.3 31c1.2 0 2.1-1 2.1-2.1 0-1.2-.9-2.1-2.1-2.1-1.2 0-2.1 1-2.1 2.1 0 1.2.9 2.1 2.1 2.1zm6.3 0c1.2 0 2.1-1 2.1-2.1 0-1.2-.9-2.1-2.1-2.1s-2.1 1-2.1 2.1c0 1.2.9 2.1 2.1 2.1zm6.3 0c1.2 0 2.1-1 2.1-2.1 0-1.2-.9-2.1-2.1-2.1-1.2 0-2.1 1-2.1 2.1 0 1.2 1 2.1 2.1 2.1zm-12.6-5.7c1.2 0 2.1-1 2.1-2.1 0-1.2-.9-2.1-2.1-2.1-1.2 0-2.1 1-2.1 2.1 0 1.2.9 2.1 2.1 2.1zm6.3 0c1.2 0 2.1-1 2.1-2.1 0-1.2-.9-2.1-2.1-2.1s-2.1 1-2.1 2.1c0 1.2.9 2.1 2.1 2.1zm6.3 0c1.2 0 2.1-1 2.1-2.1 0-1.2-.9-2.1-2.1-2.1-1.2 0-2.1 1-2.1 2.1 0 1.2 1 2.1 2.1 2.1zm-6.3-5.7c1.2 0 2.1-1 2.1-2.1 0-1.2-.9-2.1-2.1-2.1s-2.1 1-2.1 2.1.9 2.1 2.1 2.1zm6.3 0c1.2 0 2.1-1 2.1-2.1 0-1.2-.9-2.1-2.1-2.1-1.2 0-2.1 1-2.1 2.1s1 2.1 2.1 2.1zm-12.6 0c1.2 0 2.1-1 2.1-2.1 0-1.2-.9-2.1-2.1-2.1-1.2 0-2.1 1-2.1 2.1s.9 2.1 2.1 2.1zM36.8 72L0 0h73.6L36.8 72z" />
  </defs>
  <sodipodi:namedview
     fit-margin-bottom="0"
     fit-margin-right="0"
     fit-margin-left="0"
     fit-margin-top="0"
     inkscape:window-maximized="0"
     inkscape:window-y="89"
     inkscape:window-x="195"
     inkscape:window-height="907"
     inkscape:window-width="1600"
     showgrid="false"
     inkscape:document-rotation="0"
     inkscape:current-layer="layer1"
     inkscape:document-units="mm"
     inkscape:cy="404.29995"
     inkscape:cx="656.33435"
     inkscape:zoom="0.7"
     inkscape:pageshadow="2"
     inkscape:pageopacity="0.0"
     borderopacity="1.0"
     bordercolor="#666666"
     pagecolor="#ffffff"
     id="base" />
  <metadata
     id="metadata5">
    <rdf:RDF>
      <cc:Work
         rdf:about="">
        <dc:format>image/svg+xml</dc:format>
        <dc:type
           rdf:resource="http://purl.org/dc/dcmitype/StillImage" />
        <dc:title></dc:title>
      </cc:Work>
    </rdf:RDF>
  </metadata>
  <g
     id="layer1"
     inkscape:groupmode="layer"
     inkscape:label="Layer 1">
    <rect
       y="0"
       x="0"
       height="92.763123"
       width="92.763123"
       id="rect843"
       style="opacity:1;fill:#898382;fill-opacity:1;stroke-width:0.490871;stop-opacity:1" />
    <g
       transform="matrix(1.2752588,0,0,1.2752588,23.606463,20.090258)"
       id="g1258"
       style="fill:#ffffff;fill-opacity:1">
      <path
         style="fill:#ffffff;fill-opacity:1;stroke-width:1.13531"
         inkscape:connector-curvature="0"
         d="M 21.373918,-5.7061855 C 14.402409,-5.6618369 9.537432,-4.5043539 6.251243,-2.6683466 3.2533169,-0.99199083 1.7366153,1.3362799 1.2177437,3.7088992 0.69887108,3.9705528 -0.15261092,4.4849898 -0.90209212,5.7710818 -1.8821831,7.434133 -2.307924,10.232492 -1.367746,14.343553 c -1.4058319,1.064352 -2.3194017,2.643142 -2.5322722,4.390454 -0.2483489,2.048878 0.2572191,4.266279 1.7428769,5.853939 1.30826678,1.401397 2.73183788,2.017835 3.8272343,2.252879 0.4656539,0.09757 0.4966978,0.03104 0.8337427,0.03104 0.1818266,0.966786 0.811569,3.290622 2.1065312,5.845068 -0.8692212,0.492263 -2.9979261,1.685225 -5.6188942,3.206362 -1.5078327,0.873656 -2.9979261,1.756181 -4.1243653,2.452445 -0.5676546,0.35035 -1.0377442,0.651916 -1.3925283,0.900265 -0.1818266,0.11974 -0.3281748,0.226175 -0.4656539,0.34148 -0.070957,0.06209 -0.1374792,0.119739 -0.217305,0.21287 -0.084262,0.09313 -0.2616536,0.155218 -0.3193058,0.691829 l -0.088696,0.767225 2.1198347,5.228632 H 40.479044 l 0.177392,-0.918004 c 0,0 0.314871,-1.592093 0.612002,-3.392624 0.301567,-1.804964 0.620872,-3.649842 0.545481,-4.847238 -0.03104,-0.447914 -0.195131,-0.629742 -0.314871,-0.784959 -0.115304,-0.155219 -0.23061,-0.270524 -0.354784,-0.385828 -0.252784,-0.235045 -0.54548,-0.46122 -0.891395,-0.705134 C 39.56991,34.99199 38.709558,34.442075 37.844771,33.909899 36.673983,33.195896 36.141807,32.9032 35.5165,32.54398 c 0.612004,-0.87809 1.419137,-2.186357 2.283924,-4.319497 1.436875,-3.552276 2.731838,-8.860734 2.23514,-15.907634 C 39.56104,5.6646465 37.241638,1.0568871 33.804667,-1.8035599 30.655958,-4.4245281 26.664636,-5.5287934 22.513661,-5.6795761 v -0.026609 c -0.128609,0 -0.248349,0.017739 -0.372523,0.017739 -0.257218,-0.00444 -0.514437,-0.017739 -0.76722,-0.017739 z m 0.762785,2.2883577 c 3.898192,0.093131 7.481511,1.0820917 10.217784,3.36158047 1.476789,1.22843983 2.731838,2.84270773 3.672016,4.94480323 -0.421307,-0.1640874 -0.847048,-0.2882618 -1.246179,-0.3592187 -0.45235,-0.084261 -0.891396,-0.1241744 -1.299398,-0.1374791 -1.210701,-0.044345 -2.10653,0.1419136 -2.10653,0.1419136 l 0.44348,2.2262713 c 0,0 1.241745,-0.235044 2.554446,0.0044 1.312701,0.239479 2.479053,0.745046 2.935838,2.563315 l 0.03992,-0.0089 c 0.12861,0.67409 0.23061,1.388092 0.310437,2.137575 -0.172963,-0.310445 -0.33705,-0.612011 -0.523312,-0.944622 C 36.554247,9.478503 35.986592,8.485107 35.986592,8.485107 L 34.01754,9.620416 c 0,0 0.563219,0.984527 1.139744,2.004531 0.257218,0.456785 0.505567,0.904699 0.714003,1.286093 -0.740613,0.02217 -1.871486,-0.133045 -2.824969,-0.408002 l -0.629742,2.181923 c 1.179657,0.341479 2.452446,0.52774 3.534538,0.496697 0.541045,-0.01774 1.033308,-0.06209 1.547745,-0.306002 0.115304,-0.05765 0.239479,-0.128609 0.359219,-0.221739 0.101996,5.592285 -0.988961,9.81865 -2.164184,12.719011 -0.913568,2.257314 -1.818268,3.623233 -2.306096,4.279584 l -0.0754,-0.05321 c 4e-6,-6e-6 -2.261745,3.565575 -7.392811,3.565575 -5.339501,0 -10.120217,-2.550011 -11.659094,-4.186453 -1.614268,-1.707398 -1.977922,-3.929234 -1.977922,-3.929234 l -2.244009,0.337045 c 0,0 0.403567,2.856012 2.563315,5.153239 0.745047,0.78496 1.822704,1.583224 3.117666,2.306097 -0.612002,0.199566 -1.197396,0.55435 -1.614268,1.126441 -0.06652,0.09313 -0.110874,0.195131 -0.164087,0.292696 C 11.320221,36.109561 9.634997,35.244775 8.570645,34.402162 7.6038584,33.639376 7.2579433,33.062852 7.1515081,32.867721 L 6.9962897,32.614937 C 5.8033283,30.681363 5.0804553,27.998308 4.7567151,26.583606 5.3199352,26.153431 5.9319373,25.457167 6.4995919,24.321858 L 4.4684532,23.301853 C 4.1225381,23.998117 3.807668,24.38838 3.5681882,24.623424 l -0.3547842,0.06209 c 0,0 -0.3636532,0.07982 -1.068787,-0.07096 C 1.4350487,24.468209 0.48600058,24.086817 -0.49852492,23.035768 -1.4165291,22.055677 -1.8245309,20.481322 -1.6471388,19.004533 c 0.1818266,-1.476788 0.91356968,-2.731838 1.96461748,-3.264014 l 0.044347,-0.01774 c 1.25061472,-0.700698 2.01783522,-0.76722 2.44801072,-0.67409 0.4346111,0.09757 0.6962647,0.34148 0.9490481,0.780526 0.5100025,0.878091 0.5898284,2.323836 0.5898284,2.323836 l 0.022173,1.809399 4.5412371,-2.270619 -0.02217,-0.727307 c 0,0 -0.05321,-1.1087 -0.625306,-2.740707 C 7.96308,13.376769 8.171517,12.170503 8.632735,10.866671 9.093955,9.56284 9.763609,8.276747 10.007523,6.99509 10.273611,5.5848234 9.839001,4.4672533 9.417695,3.7532493 9.852305,2.9727242 10.570743,1.8906326 11.706052,0.75088877 13.741627,-1.2891201 16.987902,-3.3202589 22.136706,-3.4178251 Z m -10.231088,1.0288741 c -0.67409,0.4966978 -1.286092,1.0155693 -1.809399,1.53887647 C 9.00082,0.24975367 8.220295,1.3540191 7.683684,2.2409795 l -0.03548,0.00444 C 6.2113301,2.3828931 4.8188029,2.7021989 3.6701889,3.0126356 4.2511482,1.6999342 5.3775873,0.42271127 7.359944,-0.68598983 8.548471,-1.3512095 10.065172,-1.9321688 11.905615,-2.3889537 Z m 6.37281,6.6743765 C 16.238416,4.3120345 14.748323,5.105862 13.839189,6.0549091 12.624054,7.327697 12.318052,8.81779 12.318052,8.81779 l 2.226271,0.470089 c 0,0 0.195131,-0.886961 0.935743,-1.658615 0.740611,-0.771656 1.90253,-1.4812244 4.505759,-0.878091 L 20.500262,4.5426419 C 19.697562,4.3519452 18.956951,4.2765538 18.278425,4.2854228 Z M 7.2402041,4.631338 C 7.65264,5.154644 7.976382,5.5049936 7.77238,6.569346 7.639337,7.283349 7.0140289,8.640398 6.4951574,10.112753 5.9718513,11.580672 5.5239355,13.288071 6.122634,14.97773 c 0.3326105,0.949048 0.3015666,1.108701 0.337045,1.401397 l -0.1330435,0.06652 C 6.1980254,15.882429 6.0738509,15.297036 5.7235024,14.689468 5.2578474,13.886769 4.450714,13.084069 3.293231,12.831286 2.490531,12.658328 1.5902671,12.764768 0.60574048,13.123983 -0.06391492,9.797881 0.45495778,7.944135 1.0536552,6.919696 1.3951358,6.3431709 1.7366153,6.0105616 1.9938332,5.8242994 l 0.031039,0.075396 c 0,0 2.6298372,-0.9135687 5.215327,-1.2683528 z M 22.447139,8.675877 20.309565,9.429792 c 0,0 0.345914,0.997832 0.789394,2.14201 0.368089,0.957917 0.771656,1.880356 1.170788,2.652012 -0.487828,0.06209 -1.43244,0.01774 -2.709663,-0.536612 l -0.9047,2.084358 c 1.680789,0.727307 3.108796,0.953482 4.266279,0.718437 0.580959,-0.115304 1.157483,-0.354784 1.543311,-0.931308 0.385828,-0.580959 0.314871,-1.432441 -0.01331,-1.977922 C 24.212187,13.18607 23.648967,11.868934 23.218791,10.755798 22.788616,9.647099 22.447135,8.675877 22.447135,8.675877 Z m 6.878378,1.476788 -2.270619,0.07096 c 0,0 0.146349,4.323932 3.778452,7.614555 1.521137,1.379223 2.283923,2.292793 2.430271,2.612099 0.02217,0.04434 0.02217,0.03992 0.03104,0.05321 0,-0.01775 -0.0133,0.03548 -0.186262,0.190696 -0.248349,0.226175 -1.419136,0.860352 -2.647576,1.290527 -1.232875,0.425741 -2.620968,0.714003 -3.374884,0.691829 -0.279393,-0.0089 -0.257219,-0.03992 -0.226175,-0.01774 0,-0.01331 -0.0044,-0.01775 -0.0044,-0.05765 -0.01331,-0.217305 0.110874,-0.629742 0.110874,-0.629742 l -2.093226,-0.860351 c 0,0 -0.332611,0.696264 -0.288262,1.600963 0.02217,0.45235 0.159653,1.028874 0.603133,1.498964 0.439046,0.470088 1.11757,0.718437 1.836007,0.736176 1.294962,0.03548 2.780621,-0.337045 4.177584,-0.816003 1.396963,-0.483393 2.607664,-1.011135 3.423667,-1.742877 0.337045,-0.306001 0.682959,-0.678525 0.855917,-1.224005 0.168516,-0.545471 0.07538,-1.179648 -0.15966,-1.68078 C 34.84244,18.472361 33.933305,17.589835 32.35895,16.161829 29.427547,13.500948 29.325546,10.152672 29.325546,10.152672 Z M 1.3729609,17.243914 c 0,0 -2.06661702,1.738442 -1.54774552,4.505759 L 2.0603555,21.332801 c -0.3015665,-1.600964 0.722873,-2.306097 0.722873,-2.306097 z m 20.7193941,6.820725 -1.428006,1.765051 c 4.01793,3.264015 8.834126,2.510098 8.834126,2.510098 l -0.345916,-2.24401 c 0,0 -3.858277,0.57209 -7.060204,-2.031139 z m 12.058226,0.133044 c -1.410266,1.600963 -3.79619,1.889225 -3.79619,1.889225 l 0.212871,2.26175 c 0,0 3.166449,-0.235044 5.286283,-2.652012 z m -12.812142,3.849408 -2.190793,0.612002 c 0.390263,1.388094 1.419137,2.346011 2.541143,2.851578 1.122004,0.505568 2.354879,0.660785 3.507927,0.687395 2.310533,0.04434 4.394889,-0.47009 4.394889,-0.47009 l -0.532176,-2.20853 c 0,0 -1.875922,0.44348 -3.81393,0.408001 -0.971222,-0.02217 -1.933573,-0.172957 -2.625402,-0.487828 -0.687395,-0.310436 -1.086527,-0.682959 -1.281658,-1.392528 z m 12.608142,6.199853 c 0.598698,0.34148 1.547746,0.88696 2.714099,1.600964 0.833743,0.514437 1.67192,1.046613 2.266183,1.481223 0.261653,0.186263 0.447916,0.337045 0.585394,0.456785 -0.0044,0.598699 -0.204001,2.394793 -0.483394,4.048974 -0.21287,1.277223 -0.328174,1.862617 -0.430175,2.412532 h -4.501324 c 0.09313,-0.03992 0.186262,-0.0754 0.279393,-0.11974 0.696263,-0.350348 1.113135,-0.97122 1.365919,-1.583224 0.252783,-0.607567 0.372523,-1.255049 0.44348,-1.898095 0.133043,-1.286092 0.03548,-2.572185 -0.05765,-3.34384 -0.150784,-1.281659 -0.962353,-2.261749 -1.898095,-2.754013 -0.13748,-0.07096 -0.274959,-0.115304 -0.416872,-0.168522 0.04878,-0.04878 0.08426,-0.0887 0.133042,-0.133044 z M 5.5150665,34.814598 c 0.3725233,0.749483 0.9889611,1.822704 2.0267041,3.175319 1.9202694,2.496793 4.9270644,4.182018 6.0180254,4.749673 0.04434,0.434611 0.101996,0.847047 0.195131,1.228439 0.02661,0.09313 0.05765,0.186263 0.08426,0.279393 H -3.970975 l -1.2550492,-3.11323 c 0.2926975,-0.204002 0.7406122,-0.492263 1.2860931,-0.829308 1.0909606,-0.67409 2.5721851,-1.547746 4.07114748,-2.416967 C 2.6280102,36.442171 4.4861924,35.395558 5.5150665,34.814598 Z m 26.5777665,1.521138 c 0.372524,-0.0089 0.78496,0.07096 1.082092,0.230609 0.403567,0.208436 0.634177,0.447915 0.700699,1.002266 0.0754,0.647481 0.155217,1.836008 0.04879,2.842708 -0.05321,0.505567 -0.155218,0.966786 -0.279392,1.263918 -0.124177,0.301567 -0.243917,0.399133 -0.288265,0.421307 -0.793829,0.399131 -2.017834,0.44348 -3.037839,0.314871 -1.020004,-0.12861 -1.769487,-0.376959 -1.769487,-0.376959 l -0.177392,-0.05765 h -3.849413 l -0.230609,0.110874 c 0,0 -1.130874,0.545481 -2.656446,1.090962 -1.525572,0.545476 -3.454711,1.068782 -4.798456,1.068782 -0.376958,0 -0.474524,-0.06209 -0.558785,-0.137479 -0.08426,-0.0754 -0.21287,-0.257218 -0.314871,-0.682959 -0.21287,-0.855916 -0.230609,-2.501228 -0.195131,-4.70089 l 0.0044,-0.07982 -0.01331,-0.07096 c -0.08426,-0.740611 0.04878,-1.086526 0.177392,-1.263918 0.133045,-0.177392 0.328176,-0.301567 0.736178,-0.372524 0.811569,-0.133043 2.279487,0.195132 3.392623,0.740612 l 0.01775,0.0044 4.452543,2.022273 h 1.787225 l 0.310436,-0.252783 c 0.616438,-0.496698 1.751747,-1.272789 2.816099,-1.915835 0.527742,-0.319305 1.046614,-0.612003 1.472355,-0.824873 0.425741,-0.212871 0.802699,-0.34148 0.807134,-0.34148 h 0.0044 c 0.110874,-0.02217 0.23061,-0.03104 0.359219,-0.03548 z m -7.113422,1.077657 c 0.199566,0.0044 0.403567,0.0089 0.607568,0.01331 -0.0044,0.0044 -0.0089,0.0044 -0.0089,0.0089 h -0.54545 z m -14.089365,0.523306 c 0.798264,0.23948 1.636441,0.461219 2.598793,0.567655 0.0089,0.115305 0.0044,0.217306 0.01774,0.33261 l -0.0089,-0.146348 c -0.0089,0.461219 0,0.816003 -0.0044,1.23731 -0.776091,-0.532176 -1.720703,-1.219571 -2.603229,-1.991227 z"
         id="path1247" />
    </g>
  </g>
  <style
     id="style898">svg {enable-background:new 0 0 360 360}</style>
  <style
     id="style900">.st0{fill:none}</style>
  <style
     id="style1088">.st0{fill:#000}</style>
  <style
     id="style1126">.st0{fill-rule:evenodd;clip-rule:evenodd;fill:#000}</style>
  <style
     id="style1175">.st0{fill:#000}</style>
</svg>
