<?xml version="1.0" encoding="UTF-8" standalone="no"?>
<svg
   xmlns:dc="http://purl.org/dc/elements/1.1/"
   xmlns:cc="http://creativecommons.org/ns#"
   xmlns:rdf="http://www.w3.org/1999/02/22-rdf-syntax-ns#"
   xmlns:svg="http://www.w3.org/2000/svg"
   xmlns="http://www.w3.org/2000/svg"
   xmlns:sodipodi="http://sodipodi.sourceforge.net/DTD/sodipodi-0.dtd"
   xmlns:inkscape="http://www.inkscape.org/namespaces/inkscape"
   sodipodi:docname="prometheus.svg"
   inkscape:version="1.0beta1 (32d4812, 2019-09-19)"
   inkscape:export-ydpi="96"
   inkscape:export-xdpi="96"
   inkscape:export-filename="/Users/jlim/Downloads/jenkins.png"
   id="svg8"
   version="1.1"
   viewBox="0 0 92.763123 92.763123"
   height="92.763123mm"
   width="92.763123mm">
  <defs
     id="defs2">
    <path
       id="a"
       d="M37.6 36.8c1.2 0 2.1-1 2.1-2.1s-.9-2.1-2.1-2.1-2.1 1-2.1 2.1.9 2.1 2.1 2.1zM31.3 31c1.2 0 2.1-1 2.1-2.1 0-1.2-.9-2.1-2.1-2.1-1.2 0-2.1 1-2.1 2.1 0 1.2.9 2.1 2.1 2.1zm6.3 0c1.2 0 2.1-1 2.1-2.1 0-1.2-.9-2.1-2.1-2.1s-2.1 1-2.1 2.1c0 1.2.9 2.1 2.1 2.1zm6.3 0c1.2 0 2.1-1 2.1-2.1 0-1.2-.9-2.1-2.1-2.1-1.2 0-2.1 1-2.1 2.1 0 1.2 1 2.1 2.1 2.1zm-12.6-5.7c1.2 0 2.1-1 2.1-2.1 0-1.2-.9-2.1-2.1-2.1-1.2 0-2.1 1-2.1 2.1 0 1.2.9 2.1 2.1 2.1zm6.3 0c1.2 0 2.1-1 2.1-2.1 0-1.2-.9-2.1-2.1-2.1s-2.1 1-2.1 2.1c0 1.2.9 2.1 2.1 2.1zm6.3 0c1.2 0 2.1-1 2.1-2.1 0-1.2-.9-2.1-2.1-2.1-1.2 0-2.1 1-2.1 2.1 0 1.2 1 2.1 2.1 2.1zm-6.3-5.7c1.2 0 2.1-1 2.1-2.1 0-1.2-.9-2.1-2.1-2.1s-2.1 1-2.1 2.1.9 2.1 2.1 2.1zm6.3 0c1.2 0 2.1-1 2.1-2.1 0-1.2-.9-2.1-2.1-2.1-1.2 0-2.1 1-2.1 2.1s1 2.1 2.1 2.1zm-12.6 0c1.2 0 2.1-1 2.1-2.1 0-1.2-.9-2.1-2.1-2.1-1.2 0-2.1 1-2.1 2.1s.9 2.1 2.1 2.1zM36.8 72L0 0h73.6L36.8 72z" />
  </defs>
  <sodipodi:namedview
     fit-margin-bottom="0"
     fit-margin-right="0"
     fit-margin-left="0"
     fit-margin-top="0"
     inkscape:window-maximized="0"
     inkscape:window-y="89"
     inkscape:window-x="195"
     inkscape:window-height="907"
     inkscape:window-width="1600"
     showgrid="false"
     inkscape:document-rotation="0"
     inkscape:current-layer="layer1"
     inkscape:document-units="mm"
     inkscape:cy="404.29995"
     inkscape:cx="656.33435"
     inkscape:zoom="0.7"
     inkscape:pageshadow="2"
     inkscape:pageopacity="0.0"
     borderopacity="1.0"
     bordercolor="#666666"
     pagecolor="#ffffff"
     id="base" />
  <metadata
     id="metadata5">
    <rdf:RDF>
      <cc:Work
         rdf:about="">
        <dc:format>image/svg+xml</dc:format>
        <dc:type
           rdf:resource="http://purl.org/dc/dcmitype/StillImage" />
        <dc:title></dc:title>
      </cc:Work>
    </rdf:RDF>
  </metadata>
  <g
     id="layer1"
     inkscape:groupmode="layer"
     inkscape:label="Layer 1">
    <rect
       y="0"
       x="0"
       height="92.763123"
       width="92.763123"
       id="rect843"
       style="opacity:1;fill:#da4e31;fill-opacity:1;stroke-width:0.490871;stop-opacity:1" />
    <path
       style="fill:#fefcfc;fill-opacity:1;stroke-width:0.267229"
       inkscape:connector-curvature="0"
       d="m 45.948759,12.919127 c -18.890403,0 -34.205553,15.31328 -34.205553,34.204484 0,18.890402 15.31515,34.204751 34.205553,34.204751 18.890402,0 34.205017,-15.314349 34.205017,-34.204751 0,-18.891472 -15.315149,-34.204484 -34.205017,-34.204484 z m 0,64.01733 c -5.374507,0 -9.732205,-3.590219 -9.732205,-8.017934 h 19.464411 c 0,4.426914 -4.357436,8.017934 -9.732206,8.017934 z M 62.023371,66.263338 h -32.15083 v -5.830129 h 32.151364 v 5.829862 h -6e-4 z M 61.907929,57.432763 H 29.964201 c -0.106356,-0.12239 -0.214852,-0.243178 -0.317468,-0.367441 -3.290923,-3.996138 -4.066153,-6.082126 -4.81867,-8.208198 -0.01282,-0.07001 3.990529,0.81772 6.829299,1.456396 0,0 1.460673,0.338047 3.596366,0.727398 -2.050447,-2.403457 -3.26821,-5.458951 -3.26821,-8.582319 0,-6.856557 5.259065,-12.848095 3.361741,-17.690816 1.846548,0.150184 3.821372,3.896999 3.954984,9.755188 1.963065,-2.712907 2.784524,-7.666795 2.784524,-10.704116 0,-3.145015 2.072362,-6.798302 4.145255,-6.923096 -1.847888,3.045338 0.47834,5.655896 2.546688,12.132189 0.7755,2.43258 0.676624,6.526527 1.275218,9.122653 0.198818,-5.392143 1.125834,-13.25989 4.54663,-15.976006 -1.509042,3.420531 0.223403,7.701001 1.408296,9.758663 1.911756,3.32005 3.070459,5.835207 3.070459,10.592415 0,3.189642 -1.177678,6.192494 -3.163989,8.540098 2.258616,-0.423824 3.818432,-0.805963 3.818432,-0.805963 l 7.335431,-1.431011 c 6e-4,-6.01e-4 -1.065441,4.382821 -5.161258,8.603966 z"
       fill="#DA4E31"
       id="path1218" />
  </g>
  <style
     id="style898">svg {enable-background:new 0 0 360 360}</style>
  <style
     id="style900">.st0{fill:none}</style>
  <style
     id="style1088">.st0{fill:#000}</style>
  <style
     id="style1126">.st0{fill-rule:evenodd;clip-rule:evenodd;fill:#000}</style>
  <style
     id="style1175">.st0{fill:#000}</style>
</svg>
