<?xml version="1.0" encoding="UTF-8" standalone="no"?>
<svg
   xmlns:dc="http://purl.org/dc/elements/1.1/"
   xmlns:cc="http://creativecommons.org/ns#"
   xmlns:rdf="http://www.w3.org/1999/02/22-rdf-syntax-ns#"
   xmlns:svg="http://www.w3.org/2000/svg"
   xmlns="http://www.w3.org/2000/svg"
   xmlns:sodipodi="http://sodipodi.sourceforge.net/DTD/sodipodi-0.dtd"
   xmlns:inkscape="http://www.inkscape.org/namespaces/inkscape"
   inkscape:export-ydpi="96"
   inkscape:export-xdpi="96"
   inkscape:export-filename="/Users/jlim/Workspace/github.com/github-technologies/Logo/csm-logo.png"
   width="72.455528mm"
   height="72.95256mm"
   viewBox="0 0 72.455528 72.95256"
   version="1.1"
   id="svg8"
   inkscape:version="1.0beta1 (32d4812, 2019-09-19)"
   sodipodi:docname="csm-logo.svg">
  <defs
     id="defs2" />
  <sodipodi:namedview
     fit-margin-bottom="0"
     fit-margin-right="0"
     fit-margin-left="0"
     fit-margin-top="0"
     id="base"
     pagecolor="#ffffff"
     bordercolor="#666666"
     borderopacity="1.0"
     inkscape:pageopacity="0.0"
     inkscape:pageshadow="2"
     inkscape:zoom="0.7"
     inkscape:cx="-63.753193"
     inkscape:cy="603.82223"
     inkscape:document-units="mm"
     inkscape:current-layer="layer1"
     inkscape:document-rotation="0"
     showgrid="false"
     inkscape:window-width="1920"
     inkscape:window-height="1155"
     inkscape:window-x="0"
     inkscape:window-y="23"
     inkscape:window-maximized="1" />
  <metadata
     id="metadata5">
    <rdf:RDF>
      <cc:Work
         rdf:about="">
        <dc:format>image/svg+xml</dc:format>
        <dc:type
           rdf:resource="http://purl.org/dc/dcmitype/StillImage" />
        <dc:title></dc:title>
      </cc:Work>
    </rdf:RDF>
  </metadata>
  <g
     transform="translate(-17.338138,-14.739613)"
     style="display:inline"
     inkscape:label="Layer 1"
     inkscape:groupmode="layer"
     id="layer1" />
  <g
     transform="translate(-17.338138,-14.739613)"
     style="display:inline"
     inkscape:label="Layer 2"
     id="layer2"
     inkscape:groupmode="layer">
    <path
       inkscape:connector-curvature="0"
       id="path24"
       d="m 79.236517,72.955049 c -0.69824,-0.72459 -2.87891,-2.93305 -4.84593,-4.90769 -3.30673,-3.31954 -3.56968,-3.61771 -3.48724,-3.95427 0.049,-0.20021 0.14,-0.38406 0.20213,-0.40856 0.0621,-0.0245 0.11296,-0.15626 0.11296,-0.29279 0,-0.13654 0.0601,-0.28541 0.13363,-0.33084 0.0735,-0.0454 0.13364,-0.22938 0.13364,-0.40879 0,-0.17941 0.0601,-0.3262 0.13363,-0.3262 0.0735,0 0.13364,-0.12027 0.13364,-0.26727 0,-0.147 0.0601,-0.26727 0.13363,-0.26727 0.0735,0 0.13363,-0.14679 0.13363,-0.3262 0,-0.17941 0.0601,-0.36337 0.13364,-0.40879 0.0735,-0.0454 0.13363,-0.19931 0.13363,-0.34198 0,-0.14266 0.0601,-0.25938 0.13364,-0.25938 0.0735,0 0.13363,-0.091 0.13363,-0.20226 0,-0.11125 0.0531,-0.30669 0.11805,-0.43432 0.11881,-0.23355 0.31892,-0.71116 0.53115,-1.26771 0.0631,-0.16538 0.24347,-0.56194 0.40091,-0.88126 0.15743,-0.31932 0.28624,-0.69516 0.28624,-0.83521 0,-0.14006 0.0601,-0.25465 0.13363,-0.25465 0.0735,0 0.13364,-0.091 0.13364,-0.20226 0,-0.11125 0.0531,-0.30669 0.11804,-0.43431 0.12159,-0.23902 0.35322,-0.78196 0.58361,-1.36795 0.0722,-0.18375 0.18446,-0.4385 0.24938,-0.56613 0.0649,-0.12763 0.11805,-0.32307 0.11805,-0.43432 0,-0.11124 0.0601,-0.20226 0.13363,-0.20226 0.0735,0 0.13364,-0.11672 0.13364,-0.25938 0,-0.14266 0.0601,-0.29655 0.13363,-0.34198 0.0735,-0.0454 0.13364,-0.22938 0.13364,-0.40879 0,-0.17941 0.0601,-0.3262 0.13363,-0.3262 0.0735,0 0.13364,-0.21047 0.13364,-0.46772 0,-0.25725 -0.0601,-0.46772 -0.13364,-0.46772 -0.0735,0 -0.13363,-0.091 -0.13363,-0.20227 0,-0.19625 -0.0559,-0.33813 -0.38004,-0.96522 -0.085,-0.16438 -0.1545,-0.38989 -0.1545,-0.50113 0,-0.11125 -0.0601,-0.20227 -0.13363,-0.20227 -0.0735,0 -0.13364,-0.091 -0.13364,-0.20226 0,-0.11125 -0.0601,-0.32172 -0.13364,-0.46773 -0.0735,-0.146 -0.19377,-0.38491 -0.26727,-0.53091 -0.0735,-0.146 -0.13363,-0.35648 -0.13363,-0.46772 0,-0.11125 -0.0601,-0.20227 -0.13363,-0.20227 -0.0735,0 -0.13364,-0.12027 -0.13364,-0.26726 0,-0.147 -0.0601,-0.26727 -0.13364,-0.26727 -0.0735,0 -0.13363,-0.091 -0.13363,-0.20227 0,-0.19625 -0.0559,-0.33813 -0.38004,-0.96523 -0.085,-0.16437 -0.1545,-0.38988 -0.1545,-0.50112 0,-0.11125 -0.0601,-0.20227 -0.13363,-0.20227 -0.0735,0 -0.13364,-0.12027 -0.13364,-0.26727 0,-0.147 -0.0601,-0.26727 -0.13363,-0.26727 -0.0735,0 -0.13364,-0.11844 -0.13364,-0.26321 0,-0.14476 -0.12027,-0.47733 -0.26727,-0.73905 -0.147,-0.26172 -0.26727,-0.56423 -0.26727,-0.67224 0,-0.10801 -0.0601,-0.19639 -0.13363,-0.19639 -0.0735,0 -0.13364,-0.091 -0.13364,-0.20226 0,-0.11125 -0.0536,-0.30669 -0.11901,-0.43431 -0.0655,-0.12763 -0.25244,-0.53273 -0.41552,-0.90023 -0.16309,-0.36749 -0.35008,-0.77259 -0.41553,-0.90022 -0.0655,-0.12762 -0.11901,-0.32306 -0.11901,-0.43431 0,-0.11125 -0.0601,-0.20227 -0.13364,-0.20227 -0.0735,0 -0.13363,-0.11526 -0.13363,-0.25613 0,-0.14087 -0.0559,-0.27618 -0.12417,-0.30068 -0.12988,-0.0466 9.73812,-10.13502 9.91291,-10.13435 0.0551,2.1e-4 0.10023,0.12065 0.10023,0.26765 0,0.147 0.0601,0.26727 0.13363,0.26727 0.0735,0 0.13364,0.091 0.13364,0.20227 0,0.11124 0.0531,0.30668 0.11804,0.43431 0.0649,0.12763 0.17715,0.38239 0.24939,0.56613 0.0722,0.18375 0.20758,0.5145 0.30074,0.735 0.0932,0.22049 0.21699,0.52117 0.27517,0.66817 0.0582,0.147 0.39104,0.9889 0.7397,1.87089 0.34866,0.88199 0.68389,1.66074 0.74497,1.73057 0.0611,0.0698 0.11105,0.20803 0.11105,0.30713 0,0.0991 0.12027,0.42911 0.26727,0.73337 0.147,0.30425 0.26727,0.63209 0.26727,0.72853 0,0.0964 0.0493,0.17535 0.10948,0.17535 0.0602,0 0.19135,0.30068 0.29142,0.66818 0.10007,0.36749 0.23122,0.66817 0.29143,0.66817 0.0602,0 0.10948,0.0909 0.10948,0.20191 0,0.11105 0.12626,0.4869 0.28059,0.83521 0.15432,0.34833 0.34174,0.78365 0.41649,0.9674 0.0747,0.18375 0.18903,0.43851 0.25395,0.56613 0.0649,0.12763 0.11805,0.32307 0.11805,0.43432 0,0.11125 0.0601,0.20226 0.13363,0.20226 0.0735,0 0.13363,0.0909 0.13363,0.20191 0,0.11105 0.12627,0.4869 0.28059,0.83522 0.15433,0.34832 0.34175,0.78365 0.4165,0.96739 0.0747,0.18375 0.18903,0.43851 0.25395,0.56614 0.0649,0.12763 0.11804,0.32307 0.11804,0.43431 0,0.11125 0.0601,0.20227 0.13364,0.20227 0.0735,0 0.13363,0.15034 0.13363,0.33409 0,0.18374 0.0601,0.33408 0.13364,0.33408 0.0735,0 0.13363,0.091 0.13363,0.20227 0,0.11124 0.0695,0.33675 0.1545,0.50113 0.32418,0.6271 0.38004,0.76897 0.38004,0.96522 0,0.11125 0.0601,0.20227 0.13364,0.20227 0.0735,0 0.13363,0.11672 0.13363,0.25938 0,0.14266 0.0601,0.29655 0.13364,0.34197 0.0735,0.0454 0.13363,0.22939 0.13363,0.4088 0,0.17941 0.0601,0.3262 0.13363,0.3262 0.0735,0 0.13364,0.12027 0.13364,0.26727 0,0.147 0.0601,0.26727 0.13363,0.26727 0.0735,0 0.13364,0.14678 0.13364,0.3262 0,0.1794 0.0601,0.36336 0.13363,0.40879 0.0735,0.0454 0.13364,0.19931 0.13364,0.34197 0,0.14266 0.0601,0.25938 0.13363,0.25938 0.0735,0 0.13364,0.237 0.13364,0.52666 0,0.28965 -0.0601,0.56381 -0.13364,0.60924 -0.0735,0.0454 -0.13363,0.19931 -0.13363,0.34197 0,0.14266 -0.0601,0.25939 -0.13364,0.25939 -0.0735,0 -0.13363,0.15033 -0.13363,0.33408 0,0.18375 -0.0601,0.33409 -0.13364,0.33409 -0.0735,0 -0.13363,0.091 -0.13363,0.20226 0,0.11125 -0.0601,0.32172 -0.13364,0.46773 -0.0735,0.146 -0.19377,0.38491 -0.26726,0.53091 -0.0735,0.146 -0.13364,0.35648 -0.13364,0.46772 0,0.11125 -0.0601,0.20227 -0.13363,0.20227 -0.0735,0 -0.13364,0.11672 -0.13364,0.25938 0,0.14266 -0.0601,0.29655 -0.13363,0.34197 -0.0735,0.0454 -0.13364,0.22938 -0.13364,0.40879 0,0.17941 -0.0601,0.3262 -0.13363,0.3262 -0.0735,0 -0.13364,0.091 -0.13364,0.20227 0,0.11125 -0.0601,0.32172 -0.13363,0.46772 -0.0735,0.146 -0.19377,0.38491 -0.26727,0.53091 -0.0735,0.146 -0.13364,0.35648 -0.13364,0.46772 0,0.11125 -0.0601,0.20227 -0.13363,0.20227 -0.0735,0 -0.13364,0.091 -0.13364,0.20227 0,0.11124 -0.0531,0.30668 -0.11804,0.43431 -0.0649,0.12763 -0.1792,0.38239 -0.25395,0.56613 -0.0748,0.18375 -0.26218,0.61908 -0.4165,0.9674 -0.15432,0.34832 -0.28058,0.72417 -0.28058,0.83522 0,0.11105 -0.0601,0.2019 -0.13364,0.2019 -0.0735,0 -0.13364,0.091 -0.13364,0.20227 0,0.11125 -0.0601,0.32172 -0.13363,0.46772 -0.0735,0.146 -0.19377,0.38491 -0.26727,0.53091 -0.0735,0.14601 -0.13363,0.35648 -0.13363,0.46773 0,0.11124 -0.0601,0.20226 -0.13364,0.20226 -0.0735,0 -0.13363,0.0909 -0.13363,0.20191 0,0.11105 -0.12627,0.4869 -0.28059,0.83522 -0.15432,0.34832 -0.32874,0.75358 -0.38759,0.90058 -0.0589,0.14699 -0.23326,0.55225 -0.38758,0.90057 -0.15433,0.34832 -0.28059,0.66469 -0.28059,0.70304 0,0.0384 -0.11723,0.32465 -0.26051,0.63622 -0.14328,0.31157 -0.50902,1.19792 -0.81276,1.96966 -0.60573,1.53907 -0.88935,2.21657 -1.07612,2.57066 -0.0673,0.12762 -0.1224,0.35313 -0.1224,0.50113 0,0.14799 -0.0601,0.26908 -0.13364,0.26908 -0.0735,0 -0.13363,0.12027 -0.13363,0.26727 0,0.147 -0.0561,0.26727 -0.12476,0.26727 -0.0686,0 -0.14379,0.16228 -0.16704,0.36063 -0.0397,0.33891 -0.11875,0.28128 -1.31182,-0.95681 z"
       style="display:inline;fill:#808080;stroke-width:0.133635" />
    <path
       inkscape:connector-curvature="0"
       id="path26"
       d="m 53.745683,66.964949 c -0.16537,-0.075 -0.30068,-0.18725 -0.30068,-0.24951 0,-0.0623 -0.0789,-0.11322 -0.17525,-0.11322 -0.0964,0 -0.29188,-0.10524 -0.43442,-0.23386 -0.14254,-0.12862 -0.49966,-0.41315 -0.7936,-0.63228 -0.67986,-0.50685 -5.14483,-4.94572 -5.14483,-5.11476 0,-0.0697 -0.18041,-0.31544 -0.4009,-0.54616 -0.2205,-0.23073 -0.40105,-0.46516 -0.40122,-0.52096 -1.7e-4,-0.0558 -0.18044,-0.31191 -0.40059,-0.56916 -0.22016,-0.25725 -0.40042,-0.51534 -0.40059,-0.57354 -1.8e-4,-0.0582 -0.12059,-0.2349 -0.26759,-0.39269 -0.14699,-0.15779 -0.26727,-0.36575 -0.26727,-0.46213 0,-0.0964 -0.0531,-0.17526 -0.11805,-0.17526 -0.0649,0 -0.15248,-0.10524 -0.19458,-0.23386 -0.0421,-0.12862 -0.22951,-0.49105 -0.41649,-0.80539 -0.39791,-0.66897 -0.43224,-1.03847 -0.10609,-1.1419 0.31265,-0.0992 1.02445,-0.53312 1.08021,-0.65859 0.0245,-0.0551 0.15626,-0.10022 0.29279,-0.10022 0.13654,0 0.28541,-0.0601 0.33084,-0.13364 0.0454,-0.0735 0.19931,-0.13363 0.34197,-0.13363 0.14267,0 0.25939,-0.0601 0.25939,-0.13364 0,-0.32399 0.27185,-0.0678 0.84902,0.80021 0.34152,0.51361 0.62096,0.9947 0.62096,1.06908 0,0.0744 0.0601,0.13524 0.13363,0.13524 0.0735,0 0.13364,0.0789 0.13364,0.17525 0,0.0964 0.10687,0.29183 0.23749,0.43431 0.13062,0.14248 0.38334,0.46954 0.56161,0.72678 0.17826,0.25725 0.42053,0.55793 0.53837,0.66818 0.11784,0.11024 0.3011,0.3274 0.40725,0.48255 0.32185,0.47049 1.60207,1.89239 2.70775,3.00741 1.48375,1.49628 1.54205,1.48937 3.402834,-0.40304 0.78777,-0.80116 1.70292,-1.76806 2.03367,-2.14867 0.33075,-0.38061 0.67653,-0.77319 0.7684,-0.87241 0.0919,-0.0992 0.16704,-0.23154 0.16704,-0.29407 0,-0.0625 0.12028,-0.20036 0.26727,-0.30631 0.147,-0.10595 0.26727,-0.25823 0.26727,-0.33839 0,-0.0802 0.10524,-0.26539 0.23386,-0.41162 0.21953,-0.24956 0.32025,-0.40774 0.735,-1.15429 0.0919,-0.16537 0.20065,-0.33074 0.24173,-0.36749 0.23514,-0.21035 1.19484,-2.37626 1.19484,-2.69659 0,-0.58824 -0.70385,-0.83341 -4.2095,-1.46628 -1.27057,-0.22938 -6.276494,-0.23201 -7.416734,-0.004 -2.70385,0.5409 -3.8585,0.93284 -6.61934,2.2469 -0.40668,0.19356 -0.75246,0.32887 -0.7684,0.30067 -0.29825,-0.52743 -0.36307,-0.69135 -0.36307,-0.91806 0,-0.148 -0.0601,-0.26909 -0.13364,-0.26909 -0.0735,0 -0.13363,-0.1804 -0.13363,-0.4009 0,-0.2205 -0.0601,-0.40091 -0.13364,-0.40091 -0.0735,0 -0.13363,-0.17685 -0.13363,-0.39301 0,-0.21616 -0.0601,-0.43019 -0.13363,-0.47561 -0.0735,-0.0454 -0.13364,-0.28952 -0.13364,-0.54243 0,-0.25291 -0.051,-0.45983 -0.11323,-0.45983 -0.0623,0 -0.18822,-1.16547 -0.27988,-2.58994 -0.13421,-2.08589 -0.13347,-2.93765 0.004,-4.37654 0.16862,-1.76748 0.28751,-2.12069 0.71385,-2.12069 0.1155,0 0.21,-0.0601 0.21,-0.13363 0,-0.0735 0.12027,-0.13364 0.26727,-0.13364 0.147,0 0.26727,-0.0601 0.26727,-0.13363 0,-0.0735 0.12027,-0.13364 0.26727,-0.13364 0.147,0 0.26727,-0.0601 0.26727,-0.13363 0,-0.0735 0.11672,-0.13363 0.25938,-0.13363 0.14266,0 0.29655,-0.0601 0.34197,-0.13364 0.0454,-0.0735 0.22938,-0.13363 0.4088,-0.13363 0.1794,0 0.32619,-0.0601 0.32619,-0.13364 0,-0.0735 0.11673,-0.13364 0.25939,-0.13364 0.14266,0 0.29655,-0.0601 0.34197,-0.13363 0.0454,-0.0735 0.22938,-0.13363 0.40879,-0.13363 0.17941,0 0.3262,-0.0601 0.3262,-0.13364 0,-0.0735 0.17686,-0.13363 0.39302,-0.13363 0.21616,0 0.43018,-0.0601 0.47561,-0.13364 0.0454,-0.0735 0.28951,-0.13363 0.54242,-0.13363 0.25291,0 0.45984,-0.0601 0.45984,-0.13364 0,-0.0735 0.23699,-0.13363 0.52665,-0.13363 0.28966,0 0.56382,-0.0601 0.60925,-0.13364 0.0454,-0.0735 0.40623,-0.13363 0.8018,-0.13363 0.39557,0 0.75639,-0.0601 0.80181,-0.13364 0.0516,-0.0835 1.37965,-0.13363 3.54132,-0.13363 2.161674,0 3.489704,0.0501 3.541324,0.13363 0.0454,0.0735 0.40979,0.13364 0.8097,0.13364 0.39991,0 0.7271,0.0601 0.7271,0.13363 0,0.0735 0.27061,0.13364 0.60136,0.13364 0.33075,0 0.60136,0.0601 0.60136,0.13363 0,0.0735 0.20692,0.13364 0.45983,0.13364 0.25291,0 0.497,0.0601 0.54243,0.13363 0.0454,0.0735 0.22583,0.13364 0.4009,0.13364 0.17507,0 0.35548,0.0601 0.40091,0.13363 0.0454,0.0735 0.22938,0.13364 0.40879,0.13364 0.17941,0 0.3262,0.0601 0.3262,0.13363 0,0.0735 0.14678,0.13363 0.3262,0.13363 0.1794,0 0.36336,0.0601 0.40879,0.13364 0.0454,0.0735 0.19931,0.13364 0.34197,0.13364 0.14266,0 0.25938,0.0601 0.25938,0.13363 0,0.0735 0.12028,0.13364 0.26727,0.13364 0.147,0 0.26727,0.0601 0.26727,0.13363 0,0.0735 0.12027,0.13363 0.26727,0.13363 0.147,0 0.26727,0.0601 0.26727,0.13364 0,0.0735 0.12027,0.13363 0.26727,0.13363 0.147,0 0.26727,0.0601 0.26727,0.13364 0,0.0735 0.0945,0.13363 0.21,0.13363 0.3613,0 0.59181,0.36064 0.59181,0.9259 0,0.29925 0.0601,0.54409 0.13363,0.54409 0.0858,0 0.12986,1.18454 0.12309,3.30746 -0.006,1.8191 -0.0409,3.23229 -0.0779,3.14041 -0.0371,-0.0919 -0.21273,-0.16704 -0.39035,-0.16704 -0.17763,0 -0.32296,-0.0601 -0.32296,-0.13364 0,-0.0735 -0.0884,-0.13363 -0.19638,-0.13363 -0.10802,0 -0.41052,-0.12027 -0.67224,-0.26727 -0.26172,-0.147 -0.56423,-0.26727 -0.67224,-0.26727 -0.10801,0 -0.19639,-0.0601 -0.19639,-0.13363 0,-0.0735 -0.12027,-0.13364 -0.26727,-0.13364 -0.147,0 -0.26727,-0.0601 -0.26727,-0.13363 0,-0.0735 -0.0902,-0.13364 -0.20045,-0.13364 -0.16831,0 -0.20045,-0.29022 -0.20045,-1.81014 0,-1.70081 -0.0181,-1.82794 -0.30068,-2.10475 -0.16537,-0.16203 -0.48108,-0.37679 -0.70158,-0.47724 -0.2205,-0.10045 -0.50533,-0.23575 -0.63295,-0.30068 -0.12763,-0.0649 -0.34959,-0.11804 -0.49325,-0.11804 -0.14366,0 -0.29836,-0.0601 -0.34378,-0.13363 -0.0454,-0.0735 -0.28597,-0.13364 -0.53454,-0.13364 -0.24858,0 -0.48912,-0.0601 -0.53454,-0.13363 -0.0454,-0.0735 -0.34611,-0.13364 -0.66818,-0.13364 -0.32207,0 -0.62275,-0.0601 -0.66817,-0.13363 -0.0454,-0.0735 -0.39776,-0.13364 -0.78297,-0.13364 -0.38521,0 -0.76289,-0.0625 -0.83929,-0.13892 -0.0913,-0.0913 -1.09698,-0.1179 -2.933284,-0.0776 -3.0224,0.0663 -4.32554,0.17052 -4.52494,0.36195 -0.0698,0.067 -0.35192,0.12188 -0.62688,0.12188 -0.27496,0 -0.53709,0.0601 -0.58251,0.13363 -0.0454,0.0735 -0.28597,0.13364 -0.53454,0.13364 -0.24858,0 -0.48912,0.0601 -0.53454,0.13363 -0.0454,0.0735 -0.22094,0.13363 -0.39002,0.13363 -0.52845,0 -1.91498,0.79896 -2.08066,1.19893 -0.15829,0.38216 -0.11261,3.65906 0.0637,4.56864 0.12545,0.64718 0.389,0.70125 1.80158,0.3696 3.75468,-0.88151 4.49813,-0.97762 7.62123,-0.98518 2.684384,-0.006 3.758774,0.10425 6.013564,0.61991 0.96313,0.22026 2.86169,0.80989 3.0001,0.93173 0.0698,0.0615 0.26527,0.11175 0.43432,0.11175 0.16905,0 0.30736,0.0601 0.30736,0.13363 0,0.0735 0.12027,0.13364 0.26727,0.13364 0.14699,0 0.26727,0.0601 0.26727,0.13363 0,0.0735 0.12027,0.13364 0.26727,0.13364 0.147,0 0.26727,0.0601 0.26727,0.13363 0,0.0735 0.12027,0.13364 0.26727,0.13364 0.14699,0 0.26726,0.0601 0.26726,0.13363 0,0.0735 0.0945,0.13364 0.21,0.13364 0.24001,0 0.59181,0.31208 0.59181,0.52499 0,0.0788 -0.0601,0.14318 -0.13363,0.14318 -0.0735,0 -0.13364,0.21047 -0.13364,0.46772 0,0.25725 -0.0601,0.46772 -0.13363,0.46772 -0.0735,0 -0.13363,0.12109 -0.13363,0.26908 0,0.148 -0.0601,0.38854 -0.13364,0.53455 -0.0735,0.14599 -0.19377,0.38491 -0.26727,0.53091 -0.0735,0.146 -0.13363,0.38654 -0.13363,0.53454 0,0.14799 -0.0601,0.26908 -0.13364,0.26908 -0.0735,0 -0.13363,0.12027 -0.13363,0.26727 0,0.147 -0.0601,0.26727 -0.13364,0.26727 -0.0735,0 -0.13363,0.0845 -0.13363,0.18782 0,0.22257 -0.55723,1.32936 -0.70158,1.39352 -0.0551,0.0245 -0.10023,0.15981 -0.10023,0.30068 0,0.14087 -0.0601,0.25613 -0.13364,0.25613 -0.0735,0 -0.13363,0.0927 -0.13363,0.20604 0,0.11333 -0.12027,0.33514 -0.26727,0.49292 -0.147,0.15779 -0.26727,0.36575 -0.26727,0.46214 0,0.0964 -0.0601,0.17525 -0.13364,0.17525 -0.0735,0 -0.13363,0.0789 -0.13363,0.17526 0,0.0964 -0.12027,0.30435 -0.26727,0.46213 -0.147,0.15778 -0.26734,0.3345 -0.26743,0.39269 -9e-5,0.0582 -0.15043,0.28054 -0.33409,0.4941 -0.18366,0.21355 -0.33392,0.43633 -0.33392,0.49505 0,0.0587 -0.13662,0.24482 -0.30359,0.41353 -0.16697,0.16872 -0.45161,0.51723 -0.63253,0.77448 -0.51266,0.72892 -2.90517,3.14932 -3.94155,3.98749 -0.5145,0.4161 -1.01491,0.83171 -1.11203,0.92358 -0.0971,0.0919 -0.22308,0.16705 -0.2799,0.16705 -0.0568,0 -0.27803,0.15026 -0.49158,0.33392 -0.213564,0.18366 -0.458444,0.334 -0.544194,0.33409 -0.0857,9e-5 -0.17595,0.0523 -0.20045,0.11604 -0.0245,0.0637 -0.17985,0.0545 -0.34523,-0.0204 z"
       style="display:inline;opacity:1;fill:#808080;stroke:#808080;stroke-width:0.3;stroke-miterlimit:4;stroke-dasharray:none" />
    <path
       style="display:inline;fill:#00406e;fill-opacity:1;stroke:#00406e;stroke-width:0.264583px;stroke-linecap:butt;stroke-linejoin:miter;stroke-opacity:1"
       d="m 77.107137,24.521199 -10.11086,10.48884 -12.945681,-5.66964 -15.49703,6.42559 -6.42559,15.40253 6.61458,15.21354 15.40253,6.89807 12.851191,-5.38616 10.20536,10.11086 -23.056551,9.5439 -26.26934,-11.1503 -10.39435,-25.22991 10.77232,-25.70238 25.98587,-10.58333 z"
       id="path902"
       inkscape:connector-curvature="0" />
  </g>
</svg>
