<svg id="Layer_1" data-name="Layer 1" xmlns="http://www.w3.org/2000/svg" width="32" height="32" viewBox="0 0 32 32"><title>Artboard 1</title><path d="M12.5,14.07l4,2.58M2.5,13.5v0ZM12.5,7v4.28l-3,1.89v3.27m-3-5.17,3,1.9M9.5,10V5.29m-7,11.2,4-2.3m0,7.67,2.89-1.65m3.11,5.56-3,1.78m0-3.71,7-4m-10-1.72,3-1.65m7,0V27.61l-4,2-6-3.89V21.86l-4-2.12V13.17l4-1.89V7.17l6-3.9,4,2Zm-.36,0-6.64,0,3,1.63v4m14.78-3.88a11,11,0,0,0,0-3.76l2-.71L27.31,9l-1.94.94a10.93,10.93,0,0,0-2.66-2.64l.93-1.95-4.77-2-.71,2.05a10.25,10.25,0,0,0-1.66-.15V11a5.43,5.43,0,0,1,0,10.84V27.5a10.24,10.24,0,0,0,1.74-.16l.71,2,4.77-2-.95-1.93a11,11,0,0,0,2.65-2.67l1.94.93,2-4.78Z" style="fill:none;stroke:#fff;stroke-linejoin:round"/></svg>