<svg xmlns="http://www.w3.org/2000/svg" width="120" height="80" viewBox="0 0 120 80"><title>nav</title><g id="Layer_1" data-name="Layer 1"><path d="M38.53,52.75l-26.14,0A11,11,0,0,1,1.3,42.41c0-.23,0-.46,0-.7C1.28,35,5.67,32,9.57,31h0a17,17,0,0,1-.11-1.91c0-5.5,3.73-11.83,9.07-14.08a15.17,15.17,0,0,1,17.22,3.43A18.31,18.31,0,0,1,40,25.4h0c3.49-4.73,11.3-3.24,11.87,5.31v.12c2.66.46,6.84,2,8.77,6" style="fill:none;stroke:#aab7b8;stroke-linejoin:round;stroke-width:2px"/><path d="M65.07,60c6.86-2.41,14.06-8.92,14.06-8.92,13.72-13.72,12.09-28,12.09-28s-14.32-1.63-28,12.09c0,0-6.51,7.2-8.91,14.06Z" style="fill:none;stroke:#aab7b8;stroke-linejoin:round;stroke-width:2px"/><polyline points="57.38 51.83 49.21 53.49 60.8 65.08 62.3 56.75" style="fill:none;stroke:#aab7b8;stroke-linejoin:round;stroke-width:2px"/><path d="M62.34,35.5c-.35-.36-9,.69-9,.69L43.24,46.33H55.08" style="fill:none;stroke:#aab7b8;stroke-linejoin:round;stroke-width:2px"/><path d="M78.64,51.79c.35.35-.69,9-.69,9L67.8,70.89V59.06" style="fill:none;stroke:#aab7b8;stroke-linejoin:round;stroke-width:2px"/><line x1="49.81" y1="57.83" x2="44" y2="63.64" style="fill:none;stroke:#aab7b8;stroke-linejoin:round;stroke-width:2px"/><line x1="56.34" y1="64.37" x2="50.53" y2="70.18" style="fill:none;stroke:#aab7b8;stroke-linejoin:round;stroke-width:2px"/><line x1="51.71" y1="62.58" x2="42.99" y2="71.29" style="fill:none;stroke:#aab7b8;stroke-linejoin:round;stroke-width:2px"/><rect x="73.62" y="32.57" width="9.83" height="6.05" rx="2.01" ry="2.01" transform="translate(48.17 -45.11) rotate(45)" style="fill:none;stroke:#aab7b8;stroke-linejoin:round;stroke-width:2px"/></g></svg>