<svg xmlns="http://www.w3.org/2000/svg" width="102" height="80" viewBox="0 0 102 80"><title>nav</title><g id="Layer_1" data-name="Layer 1"><path d="M20,16.35l1.6,1.26a1,1,0,0,0,.92.15l1.91-.71a1,1,0,0,1,1.14.37l1.13,1.69a1,1,0,0,0,.83.43l2-.08a1,1,0,0,1,1,.7l.55,2a1,1,0,0,0,.67.66l2,.55a1,1,0,0,1,.7,1l-.08,2a.94.94,0,0,0,.42.84L36.4,28.3a1,1,0,0,1,.37,1.13l-.7,1.91a1,1,0,0,0,.14.93l1.27,1.6a1,1,0,0,1,0,1.19l-1.27,1.6a1,1,0,0,0-.14.92l.7,1.91a1,1,0,0,1-.37,1.14l-1.69,1.13a.92.92,0,0,0-.42.83l.08,2a1,1,0,0,1-.7,1l-2,.55a1,1,0,0,0-.67.67l-.55,2a1,1,0,0,1-1,.7l-2-.08a.92.92,0,0,0-.83.42L25.53,51.5a1,1,0,0,1-1.14.37l-1.91-.7a1,1,0,0,0-.92.14L20,52.58a1,1,0,0,1-1.19,0l-1.6-1.27a1,1,0,0,0-.93-.14l-1.91.7a1,1,0,0,1-1.13-.37l-1.13-1.69a.94.94,0,0,0-.84-.42l-2,.08a1,1,0,0,1-1-.7l-.55-2A1,1,0,0,0,7,46.14l-2-.55a1,1,0,0,1-.7-1l.08-2A1,1,0,0,0,4,41.76L2.32,40.63A1,1,0,0,1,2,39.49l.71-1.91a1,1,0,0,0-.15-.92l-1.26-1.6a1,1,0,0,1,0-1.19l1.26-1.6a1,1,0,0,0,.15-.93L2,29.43a1,1,0,0,1,.37-1.13L4,27.17a1,1,0,0,0,.43-.84l-.08-2a1,1,0,0,1,.7-1l2-.55a1,1,0,0,0,.66-.66l.55-2a1,1,0,0,1,1-.7l2,.08a1,1,0,0,0,.84-.43l1.13-1.69a1,1,0,0,1,1.13-.37l1.91.71a1,1,0,0,0,.93-.15l1.6-1.26A1,1,0,0,1,20,16.35Z" style="fill:none;stroke:#aab7b8;stroke-miterlimit:10;stroke-width:2px"/><circle cx="19.36" cy="34.46" r="9.7" style="fill:none;stroke:#aab7b8;stroke-miterlimit:10;stroke-width:2px"/><path d="M16.45,51.8l4.93,18.56a1,1,0,0,0,1.78.27L24.73,68a1,1,0,0,1,1.39-.29l2.5,1.72a1,1,0,0,0,1.5-1L26.26,51.31" style="fill:none;stroke:#aab7b8;stroke-miterlimit:10;stroke-width:2px"/><path d="M10.81,50.08,7,68.46a1,1,0,0,0,1.5,1L11,67.72a1,1,0,0,1,1.38.29l1.56,2.59a1,1,0,0,0,1.78-.28l1.23-3.8" style="fill:none;stroke:#aab7b8;stroke-miterlimit:10;stroke-width:2px"/><path d="M89.51,57.07v7a1,1,0,0,1-1,1.07H33.71" style="fill:none;stroke:#aab7b8;stroke-miterlimit:10;stroke-width:2px"/><path d="M28.23,19H88.49a1,1,0,0,1,1,1.06v9.8" style="fill:none;stroke:#aab7b8;stroke-miterlimit:10;stroke-width:2px"/><line x1="43.51" y1="31.82" x2="76.1" y2="31.82" style="fill:none;stroke:#aab7b8;stroke-miterlimit:10;stroke-width:2px"/><line x1="43.51" y1="39.39" x2="67.15" y2="39.39" style="fill:none;stroke:#aab7b8;stroke-miterlimit:10;stroke-width:2px"/><line x1="48.96" y1="56.8" x2="77.07" y2="56.8" style="fill:none;stroke:#aab7b8;stroke-miterlimit:10;stroke-width:2px"/><line x1="34.69" y1="56.8" x2="45.75" y2="56.8" style="fill:none;stroke:#aab7b8;stroke-miterlimit:10;stroke-width:2px"/><circle cx="89.82" cy="42.99" r="10.22" style="fill:none;stroke:#aab7b8;stroke-miterlimit:10;stroke-width:2px"/><polyline points="84.69 43.98 87.96 47.25 96.01 39.2" style="fill:none;stroke:#aab7b8;stroke-miterlimit:10;stroke-width:2px"/></g></svg>