<svg xmlns="http://www.w3.org/2000/svg" width="102" height="80" viewBox="0 0 102 80"><title>nav</title><g id="Layer_1" data-name="Layer 1"><polyline points="44.47 70.67 44.47 36.21 44.47 34.65 44.47 32.21 44.47 30.67 44.47 25.54" style="fill:none;stroke:#aab7b8;stroke-linejoin:round;stroke-width:2px"/><path d="M53.11,49.74c3.24-3.25,3.26-8.49,3.26-8.49s-5.24,0-8.48,3.27S44.62,53,44.62,53,49.86,53,53.11,49.74Z" style="fill:none;stroke:#aab7b8;stroke-linejoin:round;stroke-width:2px"/><path d="M35.47,41.79c-3.24-3.24-3.26-8.48-3.26-8.48s5.24,0,8.48,3.26S44,45.06,44,45.06,38.71,45,35.47,41.79Z" style="fill:none;stroke:#aab7b8;stroke-linejoin:round;stroke-width:2px"/><path d="M47.85,18.34c0,4.2-3.38,7.61-3.38,7.61s-3.39-3.41-3.39-7.61,3.39-7.62,3.39-7.62S47.85,14.13,47.85,18.34Z" style="fill:none;stroke:#aab7b8;stroke-linejoin:round;stroke-width:2px"/><circle cx="6.42" cy="49.04" r="5.37" style="fill:none;stroke:#aab7b8;stroke-linejoin:round;stroke-width:2px"/><path d="M38.94,22a14.89,14.89,0,0,0-4.76,1.18C29.3,25.25,25.89,31,25.89,36.06a14.43,14.43,0,0,0,.1,1.75h0c-3.56.92-7.58,3.63-7.58,9.77,0,.21,0,.43,0,.63a10.08,10.08,0,0,0,10.14,9.44H40.81" style="fill:none;stroke:#aab7b8;stroke-linejoin:round;stroke-width:2px"/><path d="M70.48,40.3a12.06,12.06,0,0,0-5.86-2.67l0-.11c-.53-7.82-7.66-9.18-10.85-4.86h0a17,17,0,0,0-3.87-6.34l-.15-.15" style="fill:none;stroke:#aab7b8;stroke-linejoin:round;stroke-width:2px"/><path d="M69.55,56.38a8.87,8.87,0,0,1-4.1,1.25H48.33" style="fill:none;stroke:#aab7b8;stroke-linejoin:round;stroke-width:2px"/><line x1="40.95" y1="71.07" x2="47.39" y2="71.07" style="fill:none;stroke:#aab7b8;stroke-linejoin:round;stroke-width:2px"/><line x1="11.52" y1="49.03" x2="18.63" y2="49.03" style="fill:none;stroke:#aab7b8;stroke-linejoin:round;stroke-width:2px"/><circle cx="12.87" cy="24.86" r="3.76" style="fill:none;stroke:#aab7b8;stroke-linejoin:round;stroke-width:2px"/><line x1="25.6" y1="37.59" x2="15.34" y2="27.33" style="fill:none;stroke:#aab7b8;stroke-linejoin:round;stroke-width:2px"/><circle cx="74.04" cy="48.71" r="4.6" style="fill:none;stroke:#aab7b8;stroke-linejoin:round;stroke-width:2px"/><circle cx="93.65" cy="48.72" r="3.39" style="fill:none;stroke:#aab7b8;stroke-linejoin:round;stroke-width:2px"/><line x1="78.4" y1="48.72" x2="89.35" y2="48.72" style="fill:none;stroke:#aab7b8;stroke-linejoin:round;stroke-width:2px"/><circle cx="81.43" cy="36.75" r="3.81" style="fill:none;stroke:#aab7b8;stroke-linejoin:round;stroke-width:2px"/><polyline points="77.31 44.36 78.07 42.86 78.24 42.53 78.45 42.13 78.66 41.72 79.78 39.53" style="fill:none;stroke:#aab7b8;stroke-linejoin:round;stroke-width:2px"/><circle cx="82.78" cy="58.42" r="2.42" style="fill:none;stroke:#aab7b8;stroke-linejoin:round;stroke-width:2px"/><line x1="76.95" y1="52.11" x2="81.23" y2="56.61" style="fill:none;stroke:#aab7b8;stroke-linejoin:round;stroke-width:2px"/></g></svg>