<svg xmlns="http://www.w3.org/2000/svg" width="32" height="32" viewBox="0 0 32 32"><title>nav</title><g id="Layer_1" data-name="Layer 1"><path d="M2.82,12.65H5.9a0,0,0,0,1,0,0V24.94a0,0,0,0,1,0,0H2.82a2,2,0,0,1-2-2V14.65A2,2,0,0,1,2.82,12.65Z" style="fill:none;stroke:#fff;stroke-linejoin:round"/><path d="M7.9,7.34H9a2,2,0,0,1,2,2v15.6a0,0,0,0,1,0,0H5.9a0,0,0,0,1,0,0V9.34A2,2,0,0,1,7.9,7.34Z" style="fill:none;stroke:#fff;stroke-linejoin:round"/><polygon points="18.87 11.65 18.87 11.65 18.87 11.65 18.87 11.65" style="fill:none;stroke:#fff;stroke-linejoin:round"/><line x1="12.63" y1="28.22" x2="31.13" y2="28.22" style="fill:none;stroke:#fff;stroke-linejoin:round"/><polyline points="15.61 28.22 18.48 21.56 20.91 21.56 22.72 24.01 24.84 16.31 28.15 28.22" style="fill:none;stroke:#fff;stroke-linejoin:round"/><path d="M11,16.33h2.84a.73.73,0,0,1,.73.72v3.52" style="fill:none;stroke:#fff;stroke-linejoin:round"/><path d="M21.31,16.19a7.55,7.55,0,0,1-6.7-7,7.57,7.57,0,0,1,7.48-8A7.54,7.54,0,0,1,27,14.32" style="fill:none;stroke:#fff;stroke-linejoin:round"/><line x1="22.09" y1="1.28" x2="22.09" y2="9.21" style="fill:none;stroke:#fff;stroke-linejoin:round"/><line x1="22.09" y1="9.21" x2="27.41" y2="14.19" style="fill:none;stroke:#fff;stroke-linejoin:round"/><polyline points="27.56 3.67 22.09 9.21 14.61 9.21" style="fill:none;stroke:#fff;stroke-linejoin:round"/><line x1="13.13" y1="24.94" x2="9.73" y2="24.94" style="fill:none;stroke:#fff;stroke-linejoin:round"/></g></svg>