<svg xmlns="http://www.w3.org/2000/svg" width="102" height="80" viewBox="0 0 102 80"><title>nav</title><g id="Layer_1" data-name="Layer 1"><path d="M36.2,26.39a6,6,0,0,0-5.79,1.55H11.79" style="fill:none;stroke:#aab7b8;stroke-miterlimit:10;stroke-width:2px"/><path d="M22.52,46.3a2.94,2.94,0,0,0-4.11.5L13.3,53.36A2.92,2.92,0,1,0,17.91,57L23,50.4A2.92,2.92,0,0,0,22.52,46.3Z" style="fill:none;stroke:#aab7b8;stroke-miterlimit:10;stroke-width:2px"/><path d="M32.79,53.2a2.93,2.93,0,0,0-4.1.51l-5.12,6.55a2.92,2.92,0,0,0,4.61,3.6l5.12-6.55A2.93,2.93,0,0,0,32.79,53.2Z" style="fill:none;stroke:#aab7b8;stroke-miterlimit:10;stroke-width:2px"/><path d="M37.27,57.22a2.92,2.92,0,0,0-4.1.5l-3.89,5a2.92,2.92,0,1,0,4.61,3.6l3.89-5A2.93,2.93,0,0,0,37.27,57.22Z" style="fill:none;stroke:#aab7b8;stroke-miterlimit:10;stroke-width:2px"/><path d="M29.33,48a2.92,2.92,0,0,0-4.1.51l-7.56,9.68a2.92,2.92,0,0,0,4.61,3.6l7.56-9.68A2.93,2.93,0,0,0,29.33,48Z" style="fill:none;stroke:#aab7b8;stroke-miterlimit:10;stroke-width:2px"/><path d="M46,43.93l6.74,4.87a2.93,2.93,0,0,0,4.08-.66h0a2.92,2.92,0,0,0-.66-4.08L45.54,35.77a9.52,9.52,0,0,0-4.43-2c-1.77-.25-3.08.17-5.19,2l-1.18.91a3.3,3.3,0,0,1-4.2-.12h0a3.3,3.3,0,0,1-.05-4.93l6.69-5.83a6,6,0,0,1,8.48,0h0c.11.2,17.08,0,17.08,0" style="fill:none;stroke:#aab7b8;stroke-miterlimit:10;stroke-width:2px"/><path d="M38.61,53.23l8.15,5.84a2.94,2.94,0,0,0,4.09-.66h0a2.93,2.93,0,0,0-.66-4.08l-8-5.89" style="fill:none;stroke:#aab7b8;stroke-miterlimit:10;stroke-width:2px"/><path d="M38.24,60.36l3.69,2.46A2.93,2.93,0,0,0,46,62.16h0a2.93,2.93,0,0,0-.66-4.08l-4.58-3.29" style="fill:none;stroke:#aab7b8;stroke-miterlimit:10;stroke-width:2px"/><path d="M44.7,50.28l7.15,5.14a2.94,2.94,0,0,0,4.09-.66h0a2.92,2.92,0,0,0-.66-4.08L48,45.28" style="fill:none;stroke:#aab7b8;stroke-miterlimit:10;stroke-width:2px"/><line x1="38.44" y1="69.58" x2="38.44" y2="76.96" style="fill:none;stroke:#aab7b8;stroke-linejoin:round;stroke-width:2px"/><line x1="45.21" y1="67.72" x2="45.21" y2="72.75" style="fill:none;stroke:#aab7b8;stroke-linejoin:round;stroke-width:2px"/><line x1="31.66" y1="71.31" x2="31.66" y2="75.45" style="fill:none;stroke:#aab7b8;stroke-linejoin:round;stroke-width:2px"/><line x1="51.98" y1="65.78" x2="51.98" y2="68.3" style="fill:none;stroke:#aab7b8;stroke-linejoin:round;stroke-width:2px"/><line x1="24.89" y1="68.48" x2="24.89" y2="71" style="fill:none;stroke:#aab7b8;stroke-linejoin:round;stroke-width:2px"/><line x1="38.44" y1="19.01" x2="38.44" y2="11.63" style="fill:none;stroke:#aab7b8;stroke-linejoin:round;stroke-width:2px"/><line x1="31.66" y1="20.87" x2="31.66" y2="15.84" style="fill:none;stroke:#aab7b8;stroke-linejoin:round;stroke-width:2px"/><line x1="45.21" y1="19.08" x2="45.21" y2="14.04" style="fill:none;stroke:#aab7b8;stroke-linejoin:round;stroke-width:2px"/><line x1="24.89" y1="22.81" x2="24.89" y2="20.29" style="fill:none;stroke:#aab7b8;stroke-linejoin:round;stroke-width:2px"/><line x1="51.98" y1="20.11" x2="51.98" y2="17.59" style="fill:none;stroke:#aab7b8;stroke-linejoin:round;stroke-width:2px"/><polygon points="9.17 43.06 9.17 25.56 1.04 25.56 1.04 52.68 9.17 52.68 9.17 44.15 9.17 43.06" style="fill:none;stroke:#aab7b8;stroke-linejoin:round;stroke-width:2px"/><polyline points="73.67 32.4 73.67 23.76 65.55 23.76 65.55 50.89 68.54 50.89" style="fill:none;stroke:#aab7b8;stroke-linejoin:round;stroke-width:2px"/><line x1="11.79" y1="49.69" x2="16.06" y2="49.69" style="fill:none;stroke:#aab7b8;stroke-miterlimit:10;stroke-width:2px"/><line x1="57" y1="47.89" x2="62.85" y2="47.89" style="fill:none;stroke:#aab7b8;stroke-miterlimit:10;stroke-width:2px"/><circle cx="84.75" cy="45.87" r="12.29" style="fill:none;stroke:#aab7b8;stroke-linejoin:round;stroke-width:2px"/><line x1="84.75" y1="43.47" x2="84.75" y2="53.96" style="fill:none;stroke:#aab7b8;stroke-linejoin:round;stroke-width:2px"/><line x1="84.75" y1="38.67" x2="84.75" y2="40.37" style="fill:none;stroke:#aab7b8;stroke-linejoin:round;stroke-width:2px"/></g></svg>