<svg xmlns="http://www.w3.org/2000/svg" width="120" height="80" viewBox="0 0 120 80"><title>nav</title><g id="Layer_1" data-name="Layer 1"><path d="M22.42,40.1l-16,0a3.53,3.53,0,0,1-1.87-.53,6.8,6.8,0,0,1-3.3-6,6.11,6.11,0,0,1,4.88-6.28h0a10.36,10.36,0,0,1-.07-1.12,9.51,9.51,0,0,1,5.34-8.29,8.93,8.93,0,0,1,10.13,2A10.8,10.8,0,0,1,24.05,24h0c2.06-2.78,6.65-1.91,7,3.12v.07a7,7,0,0,1,5,3.32" style="fill:none;stroke:#aab7b8;stroke-linejoin:round;stroke-width:2px"/><line x1="56.13" y1="30.81" x2="93.77" y2="30.81" style="fill:none;stroke:#aab7b8;stroke-linejoin:round;stroke-width:2px"/><line x1="56.13" y1="43.29" x2="74.88" y2="43.29" style="fill:none;stroke:#aab7b8;stroke-linejoin:round;stroke-width:2px"/><line x1="56.13" y1="37.02" x2="74.88" y2="37.02" style="fill:none;stroke:#aab7b8;stroke-linejoin:round;stroke-width:2px"/><line x1="56.13" y1="49.78" x2="74.88" y2="49.78" style="fill:none;stroke:#aab7b8;stroke-linejoin:round;stroke-width:2px"/><polyline points="93.63 46.86 93.63 54.01 80.32 54.01 80.32 41.31 89.43 41.31" style="fill:none;stroke:#aab7b8;stroke-linejoin:round;stroke-width:2px"/><path d="M27.31,43.64A8.67,8.67,0,1,1,36,52.3a8.67,8.67,0,0,1-8.67-8.66" style="fill:none;stroke:#aab7b8;stroke-linejoin:round;stroke-width:2px"/><path d="M20.75,68.53H51.2A15.91,15.91,0,0,0,43.78,55,14.82,14.82,0,0,0,36,52.74C27.56,52.74,20.75,59.81,20.75,68.53Z" style="fill:none;stroke:#aab7b8;stroke-linejoin:round;stroke-width:2px"/><line x1="48.88" y1="52.64" x2="48.88" y2="24.38" style="fill:none;stroke:#aab7b8;stroke-linejoin:round;stroke-width:2px"/><path d="M40.41,31.64V17.76a1.25,1.25,0,0,1,1.24-1.24H99a1.25,1.25,0,0,1,1.24,1.24V59.42A1.25,1.25,0,0,1,99,60.67H54.49" style="fill:none;stroke:#aab7b8;stroke-linejoin:round;stroke-width:2px"/><line x1="40.25" y1="24.38" x2="100.11" y2="24.38" style="fill:none;stroke:#aab7b8;stroke-linejoin:round;stroke-width:2px"/><polyline points="84.25 46.4 87.51 50.12 96.34 38.26" style="fill:none;stroke:#aab7b8;stroke-linejoin:round;stroke-width:2px"/></g></svg>