<svg xmlns="http://www.w3.org/2000/svg" width="120" height="80" viewBox="0 0 120 80"><title>nav</title><g id="Layer_1" data-name="Layer 1"><path d="M43.41,22.12l.94.73a.53.53,0,0,0,.54.09L46,22.53a.58.58,0,0,1,.67.21l.66,1a.57.57,0,0,0,.49.26l1.19,0a.58.58,0,0,1,.57.41l.32,1.15a.59.59,0,0,0,.39.39l1.15.32a.56.56,0,0,1,.41.56l0,1.19a.58.58,0,0,0,.25.5l1,.66a.56.56,0,0,1,.22.66l-.42,1.12a.58.58,0,0,0,.09.54l.74.94a.57.57,0,0,1,0,.7l-.74.93a.6.6,0,0,0-.09.55l.42,1.12a.56.56,0,0,1-.22.66l-1,.66a.57.57,0,0,0-.25.49l0,1.2a.56.56,0,0,1-.41.56l-1.15.32a.57.57,0,0,0-.39.39l-.32,1.15a.58.58,0,0,1-.57.41l-1.19-.05a.58.58,0,0,0-.49.25l-.66,1a.58.58,0,0,1-.67.21l-1.12-.41a.55.55,0,0,0-.54.08l-.94.74a.56.56,0,0,1-.69,0l-.94-.74a.55.55,0,0,0-.54-.08l-1.12.41a.58.58,0,0,1-.67-.21l-.66-1a.58.58,0,0,0-.49-.25l-1.19.05a.57.57,0,0,1-.57-.41L36.22,40a.57.57,0,0,0-.39-.39l-1.15-.32a.56.56,0,0,1-.41-.56l0-1.2a.57.57,0,0,0-.25-.49l-1-.66a.56.56,0,0,1-.22-.66l.42-1.12a.6.6,0,0,0-.09-.55l-.74-.93a.57.57,0,0,1,0-.7l.74-.94a.58.58,0,0,0,.09-.54l-.42-1.12a.56.56,0,0,1,.22-.66l1-.66a.58.58,0,0,0,.25-.5l0-1.19a.56.56,0,0,1,.41-.56l1.15-.32a.59.59,0,0,0,.39-.39l.32-1.15a.57.57,0,0,1,.57-.41l1.19,0a.57.57,0,0,0,.49-.26l.66-1a.58.58,0,0,1,.67-.21l1.12.41a.53.53,0,0,0,.54-.09l.94-.73A.53.53,0,0,1,43.41,22.12Z" style="fill:none;stroke:#aab7b8;stroke-linejoin:round;stroke-width:2px"/><circle cx="43.06" cy="32.73" r="5.68" style="fill:none;stroke:#aab7b8;stroke-linejoin:round;stroke-width:2px"/><path d="M43.4,42.62l2,6.11a.63.63,0,0,0,1,.11l.88-1a.7.7,0,0,1,.78-.12l1.39.68c.41.2.94,0,.84-.39l-1.73-5.61" style="fill:none;stroke:#aab7b8;stroke-miterlimit:10;stroke-width:2px"/><path d="M43.1,42.62l-2,6.11a.63.63,0,0,1-1,.11l-.88-1a.7.7,0,0,0-.78-.12l-1.39.68c-.4.2-.94,0-.84-.39L38,42.37" style="fill:none;stroke:#aab7b8;stroke-miterlimit:10;stroke-width:2px"/><path d="M65.46,41a9,9,0,1,1,9,9,9,9,0,0,1-9-9" style="fill:none;stroke:#aab7b8;stroke-linejoin:round;stroke-width:2px"/><path d="M58.63,66.75H90.28a16.55,16.55,0,0,0-7.72-14.09,15.39,15.39,0,0,0-8.1-2.31C65.72,50.35,58.63,57.69,58.63,66.75Z" style="fill:none;stroke:#aab7b8;stroke-linejoin:round;stroke-width:2px"/><g id="Choose_AWS_application" data-name="Choose AWS application"><path d="M57.13,57H4.54v3.85l.23.17a7.52,7.52,0,0,0,4.51,1.48H54.69" style="fill:none;stroke:#aab7b8;stroke-linejoin:round;stroke-width:2px"/></g><path d="M74.25,28.23V15.11a1.55,1.55,0,0,0-1.54-1.56H12.81a1.55,1.55,0,0,0-1.54,1.56V57" style="fill:none;stroke:#aab7b8;stroke-linejoin:round;stroke-width:2px"/><path d="M60.8,52.69H16.89a1.34,1.34,0,0,1-1.34-1.34V19.17a1.34,1.34,0,0,1,1.34-1.34H68.64A1.34,1.34,0,0,1,70,19.17V29.45" style="fill:none;stroke:#aab7b8;stroke-linejoin:round;stroke-width:2px"/><line x1="0.28" y1="38.62" x2="14.89" y2="38.62" style="fill:none;stroke:#aab7b8;stroke-linejoin:round;stroke-width:2px"/><line x1="0.54" y1="33.12" x2="4.71" y2="33.12" style="fill:none;stroke:#aab7b8;stroke-linejoin:round;stroke-width:2px"/><line x1="18.74" y1="38.62" x2="25.69" y2="38.62" style="fill:none;stroke:#aab7b8;stroke-linejoin:round;stroke-width:2px"/><line x1="20.29" y1="33.12" x2="28.39" y2="33.12" style="fill:none;stroke:#aab7b8;stroke-linejoin:round;stroke-width:2px;stroke-dasharray:8.103277206420898"/><line x1="6.71" y1="33.12" x2="20.81" y2="33.12" style="fill:none;stroke:#aab7b8;stroke-linejoin:round;stroke-width:2px"/></g></svg>