<svg xmlns="http://www.w3.org/2000/svg" width="120" height="120" viewBox="0 0 120 120"><title>navigation_visual-feedback</title><g id="Layer_1" data-name="Layer 1"><path d="M69.7,20.85l-16.41,9.3-16.41-9.3M53.29,48.76m0,0L69.7,39.45V20.85L53.29,11.54,36.88,20.85v18.6m16.41,9.31V30.15" style="fill:none;stroke:#aab7b8;stroke-linejoin:round;stroke-width:2px"/><path d="M36.88,20.85l-16.41,9.3L4.05,20.85m32.83,18.6V20.85L20.47,11.54,4.05,20.85v18.6l16.42,9.31m0,0V30.15" style="fill:none;stroke:#aab7b8;stroke-linejoin:round;stroke-width:2px"/><path d="M53.29,48.62l-16.41,9.3-16.41-9.3M53.29,67.23V48.62l-16.41-9.3-16.41,9.3V67.23l16.41,9.3Zm-16.41,9.3V57.92" style="fill:none;stroke:#aab7b8;stroke-linejoin:round;stroke-width:2px"/><circle cx="18.62" cy="96.65" r="6.83" style="fill:none;stroke:#aab7b8;stroke-linejoin:round;stroke-width:2px"/><circle cx="57.65" cy="96.65" r="6.83" style="fill:none;stroke:#aab7b8;stroke-linejoin:round;stroke-width:2px"/><line x1="63.51" y1="82.01" x2="59.61" y2="89.82" style="fill:none;stroke:#aab7b8;stroke-linejoin:round;stroke-width:2px"/><polyline points="94.74 39.07 77.15 39.07 68.45 82.01 6.91 82.01 1.05 52.74" style="fill:none;stroke:#aab7b8;stroke-linejoin:round;stroke-width:2px"/></g></svg>