<svg xmlns="http://www.w3.org/2000/svg" width="32" height="32" viewBox="0 0 32 32"><title>nav</title><g id="Layer_1" data-name="Layer 1"><path d="M5.2,1.75H26.78a2,2,0,0,1,2,2V8.58a0,0,0,0,1,0,0H3.2a0,0,0,0,1,0,0V3.75A2,2,0,0,1,5.2,1.75Z" style="fill:none;stroke:#fff;stroke-miterlimit:10"/><rect x="3.2" y="12.84" width="25.59" height="6.82" style="fill:none;stroke:#fff;stroke-miterlimit:10"/><rect x="6.61" y="8.58" width="18.76" height="4.26" style="fill:none;stroke:#fff;stroke-miterlimit:10"/><path d="M3.2,23.93H28.78a0,0,0,0,1,0,0v4.82a2,2,0,0,1-2,2H5.2a2,2,0,0,1-2-2V23.93A0,0,0,0,1,3.2,23.93Z" style="fill:none;stroke:#fff;stroke-miterlimit:10"/><rect x="6.61" y="19.66" width="18.76" height="4.26" style="fill:none;stroke:#fff;stroke-miterlimit:10"/><rect x="7.46" y="4.31" width="1.71" height="1.71" style="fill:#fff"/><rect x="7.46" y="15.4" width="1.71" height="1.71" style="fill:#fff"/><rect x="7.46" y="26.49" width="1.71" height="1.71" style="fill:#fff"/></g></svg>