<svg xmlns="http://www.w3.org/2000/svg" width="32" height="32" viewBox="0 0 32 32"><title>nav</title><g id="Layer_1" data-name="Layer 1"><line x1="16.5" y1="18.03" x2="16.5" y2="25.87" style="fill:none;stroke:#fff;stroke-linejoin:round"/><circle cx="16.5" cy="28.29" r="2.37" style="fill:none;stroke:#fff;stroke-linejoin:round"/><circle cx="7.81" cy="25.14" r="2.37" style="fill:none;stroke:#fff;stroke-linejoin:round"/><circle cx="25.18" cy="25.14" r="2.37" style="fill:none;stroke:#fff;stroke-linejoin:round"/><line x1="17.29" y1="18.03" x2="23.6" y2="23.56" style="fill:none;stroke:#fff;stroke-linejoin:round"/><line x1="15.71" y1="18.03" x2="9.39" y2="23.56" style="fill:none;stroke:#fff;stroke-linejoin:round"/><path d="M26,18c2.67,0,4-2,4-4.74,0-2.07-1.58-3.94-5.53-3.94.79-2.37-1.58-5.53-3.73-4.42C20,2.15,18.14.66,14.92.66c0,0-6.32,0-6.32,7.9-5.52,0-5.52,4.73-5.52,4.73A4.64,4.64,0,0,0,7.81,18Z" style="fill:none;stroke:#fff;stroke-linejoin:round"/></g></svg>