<svg xmlns="http://www.w3.org/2000/svg" width="120" height="80" viewBox="0 0 120 80"><title>nav</title><g id="Layer_1" data-name="Layer 1"><path d="M18.19,53.39V70a.89.89,0,0,0,.89.89h27.8a.89.89,0,0,0,.89-.89V42.21a.89.89,0,0,0-.89-.89h-16" style="fill:none;stroke:#aab7b8;stroke-linejoin:round;stroke-width:2px"/><path d="M27.24,41.92V25.8a.79.79,0,0,0-.78-.79H2.07a.79.79,0,0,0-.79.79V49.59a.78.78,0,0,0,.79.78H20.6" style="fill:none;stroke:#aab7b8;stroke-linejoin:round;stroke-width:2px"/><g id="EMR"><line x1="12.44" y1="45.27" x2="13.83" y2="41.71" style="fill:none;stroke:#aab7b8;stroke-linejoin:round;stroke-width:2px"/><line x1="7.21" y1="38.9" x2="10.84" y2="38.9" style="fill:none;stroke:#aab7b8;stroke-linejoin:round;stroke-width:2px"/><line x1="10.14" y1="30.12" x2="13.04" y2="34.98" style="fill:none;stroke:#aab7b8;stroke-linejoin:round;stroke-width:2px"/><line x1="19.45" y1="32.86" x2="17.47" y2="35.49" style="fill:none;stroke:#aab7b8;stroke-linejoin:round;stroke-width:2px"/><line x1="21.68" y1="42.68" x2="17.26" y2="39.89" style="fill:none;stroke:#aab7b8;stroke-linejoin:round;stroke-width:2px"/></g><circle cx="14.46" cy="38.3" r="3.62" style="fill:none;stroke:#aab7b8;stroke-linejoin:round;stroke-width:2px"/><polyline points="23.59 50.62 32.71 54.94 42.31 50.64" style="fill:none;stroke:#aab7b8;stroke-linejoin:round;stroke-width:2px"/><polygon points="42.34 50.62 42.34 63.1 32.74 67.9 23.62 63.1 23.62 50.62 32.74 45.82 42.34 50.62" style="fill:none;stroke:#aab7b8;stroke-linejoin:round;stroke-width:2px"/><line x1="32.68" y1="55.2" x2="32.68" y2="67.89" style="fill:none;stroke:#aab7b8;stroke-linejoin:round;stroke-width:2px"/><circle cx="9.02" cy="28.64" r="1.81" style="fill:none;stroke:#aab7b8;stroke-linejoin:round;stroke-width:2px"/><circle cx="5.4" cy="38.9" r="1.81" style="fill:none;stroke:#aab7b8;stroke-linejoin:round;stroke-width:2px"/><circle cx="20.65" cy="31.05" r="1.81" style="fill:none;stroke:#aab7b8;stroke-linejoin:round;stroke-width:2px"/><circle cx="11.44" cy="46.75" r="1.81" style="fill:none;stroke:#aab7b8;stroke-linejoin:round;stroke-width:2px"/><circle cx="22.91" cy="43.73" r="1.81" style="fill:none;stroke:#aab7b8;stroke-linejoin:round;stroke-width:2px"/><path d="M43.52,37.67a11.23,11.23,0,0,1,5.66-3.31h0a16.65,16.65,0,0,1-.11-1.88c0-5.39,3.66-11.61,8.9-13.82A14.91,14.91,0,0,1,74.87,22,18.08,18.08,0,0,1,79,28.84h0c3.43-4.64,11.09-3.19,11.66,5.21l0,.12c3.48.6,9.62,3.06,9.62,10.77,0,10-9.89,10.76-9.89,10.76L52,55.66" style="fill:none;stroke:#aab7b8;stroke-linejoin:round;stroke-width:2px"/></g></svg>