<svg xmlns="http://www.w3.org/2000/svg" width="102" height="80" viewBox="0 0 102 80"><title>nav</title><g id="Layer_1" data-name="Layer 1"><circle cx="24.21" cy="32.76" r="8.81" style="fill:none;stroke:#aab7b8;stroke-linejoin:round;stroke-width:2px"/><path d="M11.79,60.66V52.33A10.38,10.38,0,0,1,22.13,42h4.66A10.38,10.38,0,0,1,37.14,52.33v8.33" style="fill:none;stroke:#aab7b8;stroke-linejoin:round;stroke-width:2px"/><line x1="50.52" y1="33.46" x2="55.36" y2="30.35" style="fill:none;stroke:#aab7b8;stroke-linejoin:round;stroke-width:2px"/><line x1="51.5" y1="43.04" x2="78.49" y2="41.98" style="fill:none;stroke:#aab7b8;stroke-linejoin:round;stroke-width:2px"/><line x1="48.48" y1="55.56" x2="55.79" y2="58.65" style="fill:none;stroke:#aab7b8;stroke-linejoin:round;stroke-width:2px"/><circle cx="62.97" cy="25.41" r="9" style="fill:none;stroke:#aab7b8;stroke-linejoin:round;stroke-width:2px"/><circle cx="89.12" cy="40.26" r="10.92" style="fill:none;stroke:#aab7b8;stroke-linejoin:round;stroke-width:2px"/><circle cx="65.31" cy="61.22" r="9.46" style="fill:none;stroke:#aab7b8;stroke-linejoin:round;stroke-width:2px"/><circle cx="65.31" cy="59.66" r="2.63" style="fill:none;stroke:#aab7b8;stroke-linejoin:round;stroke-width:2px"/><path d="M61.54,69V65.49a3.09,3.09,0,0,1,3.08-3.08H66a3.09,3.09,0,0,1,3.08,3.08V69" style="fill:none;stroke:#aab7b8;stroke-linejoin:round;stroke-width:2px"/><circle cx="89.58" cy="37.85" r="3.34" style="fill:none;stroke:#aab7b8;stroke-linejoin:round;stroke-width:2px"/><path d="M84.78,49.72V45.26a3.93,3.93,0,0,1,3.91-3.92h1.77a3.94,3.94,0,0,1,3.92,3.92v4.46" style="fill:none;stroke:#aab7b8;stroke-linejoin:round;stroke-width:2px"/><circle cx="62.95" cy="23.28" r="2.85" style="fill:none;stroke:#aab7b8;stroke-linejoin:round;stroke-width:2px"/><path d="M58.86,33.41V29.6a3.35,3.35,0,0,1,3.34-3.34h1.5a3.35,3.35,0,0,1,3.35,3.34v3.81" style="fill:none;stroke:#aab7b8;stroke-linejoin:round;stroke-width:2px"/><circle cx="23.78" cy="41.66" r="22.74" style="fill:none;stroke:#aab7b8;stroke-linejoin:round;stroke-width:2px"/></g></svg>